{"glyphs":{"0":{"ha":500,"x_min":0,"x_max":0,"o":"m 336 627 b 52 275 156 627 63 424 b 225 -12 37 125 79 -12 b 503 353 400 -12 490 186 b 337 627 517 489 478 627 z m 327 589 b 368 383 376 589 381 486 b 231 28 355 262 307 28 b 186 243 180 28 174 134 b 326 589 199 366 244 589 z "},"1":{"ha":500,"x_min":0,"x_max":0,"o":"m 404 627 b 175 576 324 600 238 584 l 166 545 l 197 543 b 247 467 250 541 260 532 l 181 134 b 75 34 164 52 157 41 l 68 0 l 378 0 l 387 34 b 309 134 296 41 294 52 z "},"2":{"ha":500,"x_min":0,"x_max":0,"o":"m 101 481 l 125 455 b 262 538 162 500 210 538 b 359 437 326 538 359 500 b 195 186 359 350 269 256 b 8 26 134 127 61 67 l 3 0 l 411 0 b 467 154 428 50 446 102 l 435 166 b 328 106 398 111 390 106 l 169 106 l 242 165 b 490 465 387 279 490 348 b 318 627 490 566 417 627 b 168 569 256 627 210 606 z "},"3":{"ha":500,"x_min":0,"x_max":0,"o":"m 117 499 l 143 473 b 266 546 177 512 214 546 b 345 472 312 546 345 522 b 166 335 345 388 229 353 l 172 300 b 219 307 182 304 201 307 b 330 182 281 307 330 257 b 234 45 330 101 294 45 b 92 119 164 45 117 95 b 65 121 84 128 75 126 b 30 68 48 109 30 86 b 57 21 30 52 35 39 b 167 -12 81 0 125 -12 b 351 50 216 -12 288 11 b 465 227 418 95 465 150 b 341 366 465 305 403 351 l 342 368 b 429 420 376 383 399 397 b 472 503 450 435 472 461 b 322 627 471 590 392 627 b 174 569 257 627 210 604 z "},"4":{"ha":500,"x_min":0,"x_max":0,"o":"m 494 227 l 406 227 l 483 621 l 409 621 b 26 212 279 500 158 363 l 20 172 l 273 172 l 262 121 b 159 35 248 50 239 41 l 151 0 l 444 0 l 454 35 b 387 121 379 41 374 54 l 396 172 l 483 172 z m 342 493 l 283 227 l 108 227 b 337 493 186 322 259 412 z "},"5":{"ha":500,"x_min":0,"x_max":0,"o":"m 494 615 l 177 615 l 92 317 l 99 307 b 178 319 117 313 146 319 b 322 171 262 319 322 273 b 222 43 322 102 294 43 b 79 121 146 43 98 102 b 54 123 71 127 64 128 b 17 71 37 114 17 87 b 45 24 17 54 28 37 b 161 -12 69 5 112 -13 b 320 37 205 -12 259 1 b 454 229 403 85 455 152 b 271 387 454 331 364 387 b 155 361 248 387 212 378 l 203 511 l 450 511 z "},"6":{"ha":500,"x_min":0,"x_max":0,"o":"m 522 633 b 370 602 486 628 421 617 b 41 201 146 534 41 366 b 237 -12 41 78 115 -12 b 484 223 379 -12 484 99 b 317 396 484 333 413 396 b 258 380 296 396 277 389 l 208 357 l 206 359 b 417 562 262 485 361 537 b 528 597 452 578 494 591 z m 250 331 b 355 192 317 331 355 279 b 258 28 355 130 329 28 b 169 181 199 28 169 108 b 193 316 169 240 179 283 b 249 331 208 323 222 331 z "},"7":{"ha":500,"x_min":0,"x_max":0,"o":"m 561 615 l 149 615 b 98 459 136 574 121 519 l 130 444 b 237 510 163 503 178 510 l 455 510 b 67 3 355 349 212 167 l 73 -12 l 188 0 b 567 604 319 208 452 411 z "},"8":{"ha":500,"x_min":0,"x_max":0,"o":"m 321 627 b 109 448 208 627 109 551 b 191 310 110 383 145 345 b 87 247 159 294 115 267 b 31 148 52 222 31 189 b 233 -12 31 41 123 -12 b 476 177 355 -12 476 66 b 364 340 476 250 429 296 b 444 390 415 368 429 379 b 495 480 473 414 495 444 b 322 627 495 577 411 627 z m 307 587 b 387 488 357 587 387 538 b 327 364 387 431 361 388 b 225 498 283 390 225 425 b 305 587 225 547 261 587 z m 253 30 b 152 146 186 30 152 84 b 227 288 152 205 182 257 b 348 138 303 239 348 203 b 254 30 348 75 307 30 z "},"9":{"ha":500,"x_min":0,"x_max":0,"o":"m 316 627 b 75 402 184 627 75 522 b 243 235 75 292 153 235 b 298 251 254 235 275 240 l 352 277 b 47 17 304 142 175 43 l 54 -19 b 218 13 100 -18 174 -3 b 511 404 400 79 511 237 b 317 627 511 541 441 627 z m 304 587 b 382 450 364 587 382 505 b 363 316 382 392 374 344 b 312 301 351 309 330 301 b 208 433 243 301 208 359 b 303 587 208 504 244 587 z "}," ":{"ha":271,"x_min":0,"x_max":0,"o":""},"ء":{"ha":431,"x_min":0,"x_max":0,"o":"m 378 164 b 250 153 326 156 281 153 b 134 208 180 153 134 178 b 203 246 134 228 173 246 b 271 199 240 246 258 225 l 284 198 b 306 260 299 220 306 241 b 305 272 306 264 306 268 b 222 339 298 319 261 339 b 95 271 174 339 134 311 b 52 166 66 235 52 200 b 127 68 52 119 81 89 b 95 -1 114 47 103 24 l 109 -18 b 208 31 136 1 169 20 b 342 56 250 43 294 52 l 383 157 z "},"آ":{"ha":332,"x_min":0,"x_max":0,"o":"m -33 690 l -14 739 b -2 741 -13 741 -9 741 b 120 730 20 741 66 730 b 199 763 150 730 178 739 l 212 834 l 203 839 b 122 804 182 816 155 804 b -34 825 58 804 3 825 b -87 760 -69 825 -87 803 b -87 745 -87 755 -87 750 l -44 690 z m 165 -19 b 208 60 184 8 198 35 b 214 104 212 68 214 83 b 198 261 214 140 208 193 b 117 676 177 393 153 530 l 104 682 b 39 596 82 657 61 629 b 132 155 79 448 109 302 b 149 -8 142 90 148 40 z "},"ﺂ":{"ha":300,"x_min":0,"x_max":0,"o":"m -35 700 l -16 748 b -3 751 -15 750 -10 751 b 119 739 19 751 64 739 b 198 772 149 739 176 749 l 210 844 l 201 848 b 120 814 180 825 153 814 b -35 834 56 814 1 834 b -90 768 -71 834 -90 812 b -89 754 -90 764 -90 759 l -45 700 z m 297 136 l 288 136 b 184 227 226 136 195 159 b 160 389 176 282 171 318 b 100 693 144 484 125 595 l 90 698 b 23 623 66 675 44 650 b 118 179 67 456 105 256 b 307 0 141 47 215 0 l 319 0 z "},"أ":{"ha":267,"x_min":0,"x_max":0,"o":"m 143 -19 b 186 60 162 8 176 35 b 192 104 190 68 192 83 b 176 261 192 140 186 193 b 94 676 155 393 131 530 l 81 682 b 17 596 60 657 39 629 b 109 155 56 448 86 302 b 126 -8 119 90 125 40 z m 68 826 b 80 869 76 842 80 856 b 25 914 80 896 57 914 b -53 878 -3 914 -31 901 b -85 810 -75 855 -85 830 b -34 747 -85 780 -64 760 b -52 696 -41 731 -47 714 l -43 688 b 118 737 -9 712 46 728 b 138 792 126 755 133 774 l 134 798 b 66 796 110 797 91 796 b -28 833 9 796 -28 816 b 14 856 -28 844 -11 856 b 37 846 22 856 31 853 l 59 826 z "},"ﺄ":{"ha":283,"x_min":0,"x_max":0,"o":"m 280 136 l 271 136 b 168 227 209 136 178 159 b 143 389 159 282 154 318 b 83 693 127 484 109 595 l 73 698 b 7 623 50 675 27 650 b 101 179 50 456 88 256 b 290 0 124 47 198 0 l 302 0 z m 68 826 b 80 869 76 842 80 856 b 25 914 80 896 57 914 b -53 878 -3 914 -31 901 b -85 810 -75 855 -85 830 b -34 747 -85 780 -64 760 b -52 696 -41 731 -47 714 l -43 688 b 118 737 -9 712 46 728 b 138 792 126 755 133 774 l 134 798 b 66 796 110 797 91 796 b -28 833 9 796 -28 816 b 14 856 -28 844 -11 856 b 37 846 22 856 31 853 l 59 826 z "},"ؤ":{"ha":486,"x_min":0,"x_max":0,"o":"m 370 53 b 290 -57 355 13 328 -24 b 132 -120 241 -97 189 -120 b 51 -104 104 -120 77 -114 l 43 -142 b 256 -218 119 -189 191 -218 b 399 -115 304 -218 352 -193 b 438 46 423 -69 438 -18 b 432 120 438 69 436 94 b 248 393 407 280 323 393 b 144 331 208 393 174 369 b 111 221 121 298 111 262 b 292 44 111 125 169 44 b 370 53 321 44 350 47 z m 357 172 b 301 168 341 169 323 168 b 166 235 229 168 166 201 b 234 280 166 256 191 280 b 357 172 275 280 330 233 z m 200 569 b 212 612 208 585 212 599 b 157 657 212 639 189 657 b 79 621 129 657 102 644 b 47 553 58 598 47 573 b 98 490 47 523 68 503 b 80 439 92 474 85 457 l 90 431 b 250 480 123 455 178 471 b 270 535 258 498 265 517 l 266 541 b 198 539 242 540 223 539 b 104 576 141 539 104 559 b 146 599 104 587 121 599 b 170 589 155 599 163 596 l 191 569 z "},"ﺆ":{"ha":472,"x_min":0,"x_max":0,"o":"m 422 136 b 235 359 373 277 311 359 b 136 298 196 359 163 337 b 103 195 114 267 103 232 b 348 0 103 54 209 0 l 367 0 b 302 -86 358 -27 334 -57 b 143 -155 253 -127 201 -155 b 57 -136 113 -155 84 -147 l 47 -172 b 258 -248 127 -221 197 -248 b 439 0 364 -248 430 -123 l 490 0 l 469 136 z m 354 136 b 328 134 346 134 337 134 b 159 202 240 134 159 159 b 220 248 159 219 180 248 b 354 136 273 248 318 203 z m 200 534 b 212 577 208 550 212 564 b 157 623 212 604 189 623 b 79 587 129 623 102 609 b 47 518 58 564 47 538 b 98 456 47 488 68 469 b 80 405 92 439 85 422 l 90 397 b 250 446 123 420 178 436 b 270 500 258 464 265 482 l 266 507 b 198 505 242 505 223 505 b 104 542 141 505 104 524 b 146 564 104 552 121 564 b 170 555 155 564 163 562 l 191 534 z "},"إ":{"ha":269,"x_min":0,"x_max":0,"o":"m 220 -136 b 232 -93 228 -120 232 -106 b 177 -47 232 -66 209 -47 b 99 -83 149 -47 121 -61 b 67 -152 77 -106 67 -132 b 118 -214 67 -182 87 -201 b 100 -265 111 -231 105 -248 l 109 -273 b 270 -224 142 -250 198 -234 b 290 -170 278 -206 285 -188 l 286 -163 b 218 -165 262 -165 243 -165 b 123 -128 161 -165 123 -146 b 165 -106 123 -118 141 -106 b 189 -115 174 -106 182 -109 l 211 -136 z m 128 -19 b 171 60 147 8 161 35 b 177 104 175 68 177 83 b 161 261 177 140 171 193 b 79 676 140 393 116 530 l 66 682 b 2 596 45 657 24 629 b 94 155 41 448 71 302 b 111 -8 104 90 111 40 z "},"ﺈ":{"ha":248,"x_min":0,"x_max":0,"o":"m 244 136 l 235 136 b 132 227 173 136 142 159 b 107 389 123 282 118 318 b 47 693 92 484 73 595 l 37 698 b -29 623 14 675 -8 650 b 65 179 15 456 52 256 b 254 0 88 47 162 0 l 266 0 z m 218 -122 b 230 -79 226 -106 230 -92 b 175 -34 230 -52 207 -34 b 97 -70 146 -34 119 -47 b 65 -138 75 -93 65 -118 b 116 -201 65 -168 85 -188 b 98 -252 109 -217 103 -234 l 107 -260 b 268 -211 140 -236 196 -220 b 288 -156 276 -193 283 -174 l 283 -150 b 216 -152 260 -151 241 -152 b 121 -115 159 -152 121 -132 b 163 -92 121 -104 139 -92 b 187 -102 172 -92 180 -95 l 209 -122 z "},"ئ":{"ha":686,"x_min":0,"x_max":0,"o":"m 157 486 b 169 529 165 502 169 516 b 114 574 169 556 146 574 b 36 538 85 574 58 561 b 4 470 14 515 4 490 b 55 408 4 440 24 420 b 37 357 48 391 42 374 l 46 349 b 207 397 79 372 135 388 b 227 452 215 416 222 434 l 222 458 b 155 456 199 457 180 456 b 60 494 98 456 60 476 b 102 516 60 504 78 516 b 126 507 111 516 119 513 l 148 486 z m 583 237 b 603 327 595 273 603 303 b 507 450 603 370 569 450 b 350 348 451 450 397 409 b 298 201 315 303 298 253 b 445 42 298 115 336 57 b 566 13 509 33 564 23 b 473 -51 546 -11 513 -33 b 330 -84 431 -71 380 -84 b 117 163 189 -84 117 41 b 124 217 117 182 119 200 l 83 229 b 67 117 74 197 67 160 b 343 -224 67 -94 197 -224 b 523 -167 408 -224 467 -203 b 617 -75 562 -142 594 -113 b 635 23 627 -41 635 -8 b 568 146 635 75 612 127 b 358 220 517 175 358 166 b 488 322 358 245 427 322 b 566 237 511 322 537 298 z "},"ﺋ":{"ha":295,"x_min":0,"x_max":0,"o":"m 105 561 b 117 604 113 576 117 591 b 62 649 117 631 94 649 b -16 613 34 649 7 635 b -47 545 -37 590 -47 565 b 3 482 -47 515 -27 495 b -15 431 -3 466 -9 449 l -5 423 b 155 472 28 447 83 463 b 175 527 163 490 170 509 l 171 533 b 103 531 147 532 128 531 b 9 568 46 531 9 551 b 51 591 9 578 26 591 b 75 581 60 591 68 588 l 96 561 z m 119 406 b 66 300 101 376 83 340 b 155 161 106 247 155 176 b 12 136 155 151 90 136 l -3 136 b -43 85 -35 136 -43 115 b 18 0 -43 58 -33 0 l 28 0 b 161 23 90 0 132 9 b 216 92 182 33 201 53 b 228 170 224 119 228 144 b 126 405 228 254 200 293 z "},"ﺌ":{"ha":317,"x_min":0,"x_max":0,"o":"m 314 136 l 306 136 b 230 155 277 136 252 142 b 185 240 197 174 185 203 b 189 288 185 252 186 268 l 183 292 b 135 256 164 279 149 267 b 94 159 125 225 128 182 b 7 136 75 145 52 136 l -3 136 b -43 85 -35 136 -43 115 b 18 0 -43 58 -33 0 l 28 0 b 157 74 87 0 128 26 l 159 74 b 327 0 205 12 265 0 l 336 0 z m 147 466 b 159 509 155 481 159 496 b 104 554 159 536 136 554 b 26 518 76 554 49 541 b -5 450 5 495 -5 470 b 45 387 -5 420 15 400 b 27 336 39 371 33 354 l 37 328 b 197 377 70 352 125 368 b 217 432 205 395 212 414 l 213 438 b 145 436 189 437 170 436 b 51 473 88 436 51 456 b 93 496 51 484 68 496 b 117 486 102 496 110 493 l 138 466 z "},"ﺊ":{"ha":695,"x_min":0,"x_max":0,"o":"m 445 136 l 399 24 l 410 12 b 614 -34 511 8 585 -5 b 371 -115 538 -94 456 -115 b 132 124 245 -115 132 -28 b 152 248 132 159 138 199 l 111 267 b 72 68 86 198 72 132 b 371 -256 72 -120 192 -256 b 665 -132 466 -256 583 -216 b 685 -47 677 -99 685 -71 b 677 0 685 -31 682 -15 l 713 0 l 692 136 z m 339 434 b 351 477 347 450 351 464 b 296 522 351 504 328 522 b 218 486 268 522 241 509 b 186 418 197 463 186 438 b 237 355 186 388 207 368 b 219 304 231 339 224 322 l 229 296 b 389 345 262 320 317 336 b 409 400 397 363 404 382 l 405 406 b 337 404 381 405 362 404 b 243 441 280 404 243 424 b 285 464 243 452 260 464 b 309 454 294 464 302 461 l 330 434 z "},"ا":{"ha":216,"x_min":0,"x_max":0,"o":"m 103 -19 b 146 60 122 8 136 35 b 152 104 150 68 152 83 b 136 261 152 140 146 193 b 54 676 115 393 91 530 l 41 682 b -23 596 20 657 -1 629 b 69 155 16 448 46 302 b 86 -8 79 90 85 40 z "},"ﺎ":{"ha":250,"x_min":0,"x_max":0,"o":"m 246 136 l 237 136 b 134 227 175 136 144 159 b 109 389 125 282 120 318 b 49 693 94 484 75 595 l 39 698 b -27 623 16 675 -6 650 b 67 179 17 456 54 256 b 256 0 90 47 164 0 l 268 0 z "},"ب":{"ha":883,"x_min":0,"x_max":0,"o":"m 703 411 b 653 305 684 379 668 342 b 743 165 694 248 725 200 b 437 112 705 144 553 112 b 103 328 210 112 103 203 b 108 380 103 344 105 361 l 64 395 b 47 278 52 355 47 316 b 179 27 47 174 93 75 b 427 -29 237 -5 313 -29 b 782 54 554 -29 695 2 b 814 190 804 87 814 145 b 812 222 814 201 813 212 b 709 412 806 258 766 338 z m 410 -216 b 535 -302 452 -242 494 -271 b 589 -205 559 -271 576 -238 b 463 -117 552 -174 511 -144 z "},"ﺑ":{"ha":295,"x_min":0,"x_max":0,"o":"m 116 -202 b 226 -277 157 -228 195 -253 b 274 -194 248 -255 264 -227 b 164 -115 240 -165 204 -139 z m 119 406 b 66 300 101 376 83 340 b 155 161 106 247 155 176 b 12 136 155 151 90 136 l -3 136 b -43 85 -35 136 -43 115 b 18 0 -43 58 -33 0 l 28 0 b 161 23 90 0 132 9 b 216 92 182 33 201 53 b 228 170 224 119 228 144 b 126 405 228 254 200 293 z "},"ﺒ":{"ha":317,"x_min":0,"x_max":0,"o":"m 314 136 l 306 136 b 230 155 277 136 252 142 b 185 240 197 174 185 203 b 189 288 185 252 186 268 l 183 292 b 135 256 164 279 149 267 b 94 159 125 225 128 182 b 7 136 75 145 52 136 l -3 136 b -43 85 -35 136 -43 115 b 18 0 -43 58 -33 0 l 28 0 b 157 74 87 0 128 26 l 159 74 b 327 0 205 12 265 0 l 336 0 z m 121 -203 b 232 -279 162 -229 200 -254 b 279 -195 254 -256 270 -229 b 170 -116 245 -167 210 -140 z "},"ﺐ":{"ha":928,"x_min":0,"x_max":0,"o":"m 924 136 l 915 136 b 798 224 848 136 798 163 b 804 284 798 240 800 262 l 796 290 b 748 253 782 280 766 268 l 730 165 b 437 111 650 132 531 111 b 103 328 210 111 103 203 b 108 380 103 344 105 361 l 64 395 b 47 278 52 355 47 316 b 179 27 47 174 93 75 b 427 -30 237 -5 313 -30 b 782 55 551 -30 674 4 l 784 55 b 937 0 819 16 871 0 l 946 0 z m 410 -216 b 535 -302 452 -242 494 -271 b 589 -205 559 -271 576 -238 b 463 -117 552 -174 511 -144 z "},"ة":{"ha":472,"x_min":0,"x_max":0,"o":"m 126 403 b 56 209 85 340 56 283 b 243 -10 56 142 90 -10 b 391 72 303 -10 361 20 b 406 161 399 98 406 125 b 301 377 406 250 379 319 b 137 492 245 419 191 452 l 124 482 z m 182 326 b 345 184 279 276 333 229 b 232 127 330 149 277 127 b 117 214 168 127 117 168 b 182 326 117 243 136 279 z m 127 615 b 220 534 159 589 189 562 b 275 604 243 555 262 578 b 184 688 250 631 220 660 z m -14 609 b 77 528 17 583 47 556 b 133 597 100 549 119 572 b 42 682 108 625 78 654 z "},"ﺔ":{"ha":476,"x_min":0,"x_max":0,"o":"m 323 77 b 485 0 362 16 401 0 l 494 0 l 473 136 l 463 136 b 382 159 423 136 406 141 b 342 280 359 180 351 223 b 298 531 326 383 313 464 l 288 534 b 230 471 267 514 248 493 l 238 435 b 68 252 159 387 92 331 b 55 176 59 225 55 199 b 203 52 55 87 121 52 b 323 77 244 52 284 61 z m 290 191 b 201 177 261 182 232 177 b 126 212 163 177 126 185 b 265 330 126 241 179 287 b 290 191 272 292 281 245 z m 189 653 b 281 572 220 627 250 600 b 336 642 304 593 323 616 b 245 726 311 669 281 698 z m 46 647 b 138 566 78 621 109 594 b 194 635 161 587 180 610 b 103 720 170 663 139 692 z "},"ت":{"ha":883,"x_min":0,"x_max":0,"o":"m 214 507 b 327 419 251 480 289 451 b 380 504 347 447 365 475 b 271 591 346 534 309 563 z m 377 515 b 490 428 414 489 452 460 b 543 513 509 456 528 484 b 433 600 509 543 472 572 z m 703 411 b 653 305 684 379 668 342 b 743 165 694 248 725 200 b 437 112 705 144 553 112 b 103 328 210 112 103 203 b 108 380 103 344 105 361 l 64 395 b 47 278 52 355 47 316 b 179 27 47 174 93 75 b 427 -29 237 -5 313 -29 b 782 54 554 -29 695 2 b 814 190 804 87 814 145 b 812 222 814 201 813 212 b 709 412 806 258 766 338 z "},"ﺗ":{"ha":306,"x_min":0,"x_max":0,"o":"m 58 526 b 150 445 89 499 119 473 b 205 514 173 465 191 488 b 115 598 180 542 150 570 z m -84 519 b 8 439 -53 493 -22 467 b 63 508 31 459 50 482 b -27 592 38 536 9 564 z m 119 406 b 66 300 101 376 83 340 b 155 161 106 247 155 176 b 12 136 155 151 90 136 l -3 136 b -43 85 -35 136 -43 115 b 18 0 -43 58 -33 0 l 28 0 b 161 23 90 0 132 9 b 216 92 182 33 201 53 b 228 170 224 119 228 144 b 126 405 228 254 200 293 z "},"ﺘ":{"ha":317,"x_min":0,"x_max":0,"o":"m 98 430 b 191 349 130 404 160 377 b 246 418 214 370 233 393 b 155 503 221 446 191 475 z m -43 424 b 48 343 -12 397 18 371 b 104 412 72 363 90 387 b 14 496 79 440 49 469 z m 314 136 l 306 136 b 230 155 277 136 252 142 b 185 240 197 174 185 203 b 189 288 185 252 186 268 l 183 292 b 135 256 164 279 149 267 b 94 159 125 225 128 182 b 7 136 75 145 52 136 l -3 136 b -43 85 -35 136 -43 115 b 18 0 -43 58 -33 0 l 28 0 b 157 74 87 0 128 26 l 159 74 b 327 0 205 12 265 0 l 336 0 z "},"ﺖ":{"ha":928,"x_min":0,"x_max":0,"o":"m 233 507 b 346 419 270 480 308 451 b 399 504 366 447 384 475 b 290 591 365 534 328 563 z m 396 515 b 509 428 433 489 471 460 b 562 513 528 456 547 484 b 452 600 528 543 491 572 z m 924 136 l 915 136 b 798 224 848 136 798 163 b 804 284 798 240 800 262 l 796 290 b 748 253 782 280 766 268 l 730 165 b 437 111 650 132 531 111 b 103 328 210 111 103 203 b 108 380 103 344 105 361 l 64 395 b 47 278 52 355 47 316 b 179 27 47 174 93 75 b 427 -30 237 -5 313 -30 b 782 55 551 -30 674 4 l 784 55 b 937 0 819 16 871 0 l 946 0 z "},"ث":{"ha":883,"x_min":0,"x_max":0,"o":"m 210 493 b 322 406 247 467 284 437 b 376 490 342 433 360 461 b 267 578 341 520 304 549 z m 372 502 b 485 414 409 475 447 446 b 538 499 505 442 523 470 b 429 587 504 529 467 558 z m 237 666 b 349 578 273 640 311 610 b 403 663 369 606 387 634 b 293 751 368 693 332 722 z m 703 411 b 653 305 684 379 668 342 b 743 165 694 248 725 200 b 437 112 705 144 553 112 b 103 328 210 112 103 203 b 108 380 103 344 105 361 l 64 395 b 47 278 52 355 47 316 b 179 27 47 174 93 75 b 427 -29 237 -5 313 -29 b 782 54 554 -29 695 2 b 814 190 804 87 814 145 b 812 222 814 201 813 212 b 709 412 806 258 766 338 z "},"ﺛ":{"ha":306,"x_min":0,"x_max":0,"o":"m 52 519 b 144 438 83 492 114 466 b 199 507 167 458 186 481 b 109 591 175 535 144 564 z m -90 513 b 3 432 -58 486 -28 460 b 57 501 25 452 43 475 b -33 585 33 529 3 557 z m -56 659 b 35 578 -24 633 6 606 b 91 648 59 599 77 622 b 1 732 66 675 36 704 z m 119 406 b 66 300 101 376 83 340 b 155 161 106 247 155 176 b 12 136 155 151 90 136 l -3 136 b -43 85 -35 136 -43 115 b 18 0 -43 58 -33 0 l 28 0 b 161 23 90 0 132 9 b 216 92 182 33 201 53 b 228 170 224 119 228 144 b 126 405 228 254 200 293 z "},"ﺜ":{"ha":317,"x_min":0,"x_max":0,"o":"m 98 430 b 191 349 130 404 160 377 b 246 418 214 370 233 393 b 155 503 221 446 191 475 z m -43 424 b 48 343 -12 397 18 371 b 104 412 72 363 90 387 b 14 496 79 440 49 469 z m -9 570 b 82 490 21 544 52 517 b 138 559 105 510 124 533 b 47 643 113 587 83 615 z m 314 136 l 306 136 b 230 155 277 136 252 142 b 185 240 197 174 185 203 b 189 288 185 252 186 268 l 183 292 b 135 256 164 279 149 267 b 94 159 125 225 128 182 b 7 136 75 145 52 136 l -3 136 b -43 85 -35 136 -43 115 b 18 0 -43 58 -33 0 l 28 0 b 157 74 87 0 128 26 l 159 74 b 327 0 205 12 265 0 l 336 0 z "},"ﺚ":{"ha":928,"x_min":0,"x_max":0,"o":"m 238 486 b 350 399 275 460 313 431 b 404 484 370 427 388 454 b 294 571 370 513 333 543 z m 401 495 b 513 408 437 469 475 439 b 567 492 533 435 551 463 b 457 580 532 522 496 551 z m 265 659 b 377 572 302 633 340 604 b 431 656 397 600 415 627 b 321 744 396 686 359 715 z m 924 136 l 915 136 b 798 224 848 136 798 163 b 804 284 798 240 800 262 l 796 290 b 748 253 782 280 766 268 l 730 165 b 437 111 650 132 531 111 b 103 328 210 111 103 203 b 108 380 103 344 105 361 l 64 395 b 47 278 52 355 47 316 b 179 27 47 174 93 75 b 427 -30 237 -5 313 -30 b 782 55 551 -30 674 4 l 784 55 b 937 0 819 16 871 0 l 946 0 z "},"ج":{"ha":667,"x_min":0,"x_max":0,"o":"m 310 239 b 107 -38 194 195 107 94 b 475 -366 107 -237 248 -366 b 592 -345 531 -366 572 -359 b 716 -233 629 -319 670 -281 l 706 -216 b 539 -235 652 -229 596 -235 b 174 -31 333 -235 174 -147 b 550 211 174 71 324 167 l 585 300 l 578 309 l 501 309 b 157 391 386 309 275 391 b 30 255 72 391 34 340 l 89 162 l 102 162 l 121 255 b 177 267 135 263 154 267 b 309 241 205 267 251 258 z m 331 -45 b 455 -132 373 -72 415 -100 b 509 -35 479 -100 496 -68 b 384 52 472 -4 431 25 z "},"ﺟ":{"ha":629,"x_min":0,"x_max":0,"o":"m 334 224 b 7 136 237 157 150 136 l -3 136 b -43 85 -35 136 -43 115 b 18 0 -43 58 -33 0 l 28 0 b 409 169 226 0 306 60 b 519 210 440 201 471 210 b 560 304 536 244 550 276 l 557 309 l 507 309 b 335 341 451 309 405 317 b 140 388 252 371 186 388 b 12 267 69 388 15 351 l 68 180 l 82 180 l 102 252 b 157 264 113 260 131 264 b 333 228 195 264 255 253 z m 227 -161 b 338 -237 268 -187 306 -212 b 385 -153 360 -214 376 -186 b 276 -74 352 -125 315 -98 z "},"ﺠ":{"ha":612,"x_min":0,"x_max":0,"o":"m 335 224 b 7 136 239 157 150 136 l -3 136 b -43 85 -35 136 -43 115 b 18 0 -43 58 -33 0 l 28 0 b 408 169 226 0 305 60 b 519 210 439 201 471 210 b 560 304 536 244 550 276 l 557 309 l 507 309 b 335 341 451 309 405 317 b 140 388 252 371 186 388 b 12 267 69 388 15 351 l 68 180 l 82 180 l 102 252 b 157 264 113 260 131 264 b 334 228 195 264 256 253 z m 435 163 b 441 123 436 150 439 137 b 492 28 448 81 465 51 b 621 0 515 9 555 0 l 630 0 l 608 136 l 599 136 b 472 190 540 136 485 139 l 468 193 z m 227 -161 b 338 -237 268 -187 306 -212 b 385 -153 360 -214 376 -186 b 276 -74 352 -125 315 -98 z "},"ﺞ":{"ha":660,"x_min":0,"x_max":0,"o":"m 310 239 b 102 -40 194 195 102 93 b 470 -366 102 -238 245 -366 b 587 -345 526 -366 568 -359 b 711 -233 625 -319 665 -281 l 701 -216 b 534 -235 648 -229 591 -235 b 169 -31 329 -235 169 -147 b 550 211 169 71 324 166 l 585 300 l 578 309 l 501 309 b 157 391 386 309 275 391 b 30 255 72 391 34 340 l 89 162 l 102 162 l 121 255 b 177 267 135 263 154 267 b 309 241 205 267 251 258 z m 454 157 b 669 0 479 7 542 0 l 678 0 l 656 136 l 631 136 b 490 185 564 136 507 138 z m 312 -56 b 425 -132 354 -81 393 -108 b 473 -47 448 -110 464 -81 b 362 34 439 -18 402 9 z "},"ح":{"ha":667,"x_min":0,"x_max":0,"o":"m 310 239 b 107 -38 194 195 107 94 b 475 -366 107 -237 248 -366 b 592 -345 531 -366 572 -359 b 716 -233 629 -319 670 -281 l 706 -216 b 539 -235 652 -229 596 -235 b 174 -31 333 -235 174 -147 b 550 211 174 71 324 167 l 585 300 l 578 309 l 501 309 b 157 391 386 309 275 391 b 30 255 72 391 34 340 l 89 162 l 102 162 l 121 255 b 177 267 135 263 154 267 b 309 241 205 267 251 258 z "},"ﺣ":{"ha":629,"x_min":0,"x_max":0,"o":"m 335 224 b 7 136 239 157 150 136 l -3 136 b -43 85 -35 136 -43 115 b 18 0 -43 58 -33 0 l 28 0 b 409 169 226 0 306 60 b 519 210 440 201 471 210 b 560 304 536 244 550 276 l 557 309 l 507 309 b 335 341 451 309 405 317 b 140 388 252 371 186 388 b 12 267 69 388 15 351 l 68 180 l 82 180 l 102 252 b 157 264 113 260 131 264 b 334 228 195 264 256 253 z "},"ﺤ":{"ha":612,"x_min":0,"x_max":0,"o":"m 335 224 b 7 136 239 157 150 136 l -3 136 b -43 85 -35 136 -43 115 b 18 0 -43 58 -33 0 l 28 0 b 408 169 226 0 305 60 b 519 210 439 201 471 210 b 560 304 536 244 550 276 l 557 309 l 507 309 b 335 341 451 309 405 317 b 140 388 252 371 186 388 b 12 267 69 388 15 351 l 68 180 l 82 180 l 102 252 b 157 264 113 260 131 264 b 334 228 195 264 256 253 z m 435 163 b 441 123 436 150 439 137 b 492 28 448 81 465 51 b 621 0 515 9 555 0 l 630 0 l 608 136 l 599 136 b 472 190 540 136 485 139 l 468 193 z "},"ﺢ":{"ha":660,"x_min":0,"x_max":0,"o":"m 310 239 b 102 -40 194 195 102 93 b 470 -366 102 -238 245 -366 b 587 -345 526 -366 568 -359 b 711 -233 625 -319 665 -281 l 701 -216 b 534 -235 648 -229 591 -235 b 169 -31 329 -235 169 -147 b 550 211 169 71 324 166 l 585 300 l 578 309 l 501 309 b 157 391 386 309 275 391 b 30 255 72 391 34 340 l 89 162 l 102 162 l 121 255 b 177 267 135 263 154 267 b 309 241 205 267 251 258 z m 454 157 b 669 0 479 7 542 0 l 678 0 l 656 136 l 631 136 b 490 185 564 136 507 138 z "},"خ":{"ha":667,"x_min":0,"x_max":0,"o":"m 310 239 b 107 -38 194 195 107 94 b 475 -366 107 -237 248 -366 b 592 -345 531 -366 572 -359 b 716 -233 629 -319 670 -281 l 706 -216 b 539 -235 652 -229 596 -235 b 174 -31 333 -235 174 -147 b 550 211 174 71 324 167 l 585 300 l 578 309 l 501 309 b 157 391 386 309 275 391 b 30 255 72 391 34 340 l 89 162 l 102 162 l 121 255 b 177 267 135 263 154 267 b 309 241 205 267 251 258 z m 136 545 b 260 458 178 518 220 490 b 313 555 283 490 301 522 b 189 642 277 586 236 615 z "},"ﺧ":{"ha":629,"x_min":0,"x_max":0,"o":"m 335 224 b 7 136 239 157 150 136 l -3 136 b -43 85 -35 136 -43 115 b 18 0 -43 58 -33 0 l 28 0 b 409 169 226 0 306 60 b 519 210 440 201 471 210 b 560 304 536 244 550 276 l 557 309 l 507 309 b 335 341 451 309 405 317 b 140 388 252 371 186 388 b 12 267 69 388 15 351 l 68 180 l 82 180 l 102 252 b 157 264 113 260 131 264 b 334 228 195 264 256 253 z m 96 537 b 207 462 137 511 175 486 b 254 545 229 484 245 512 b 145 625 221 574 184 600 z "},"ﺨ":{"ha":612,"x_min":0,"x_max":0,"o":"m 335 224 b 7 136 239 157 150 136 l -3 136 b -43 85 -35 136 -43 115 b 18 0 -43 58 -33 0 l 28 0 b 408 169 226 0 305 60 b 519 210 439 201 471 210 b 560 304 536 244 550 276 l 557 309 l 507 309 b 335 341 451 309 405 317 b 140 388 252 371 186 388 b 12 267 69 388 15 351 l 68 180 l 82 180 l 102 252 b 157 264 113 260 131 264 b 334 228 195 264 256 253 z m 435 163 b 441 123 436 150 439 137 b 492 28 448 81 465 51 b 621 0 515 9 555 0 l 630 0 l 608 136 l 599 136 b 472 190 540 136 485 139 l 468 193 z m 96 537 b 207 462 137 511 175 486 b 254 545 229 484 245 512 b 145 625 221 574 184 600 z "},"ﺦ":{"ha":660,"x_min":0,"x_max":0,"o":"m 143 541 b 256 465 184 515 223 489 b 304 550 279 487 295 516 b 193 631 270 578 233 606 z m 310 239 b 102 -40 194 195 102 93 b 470 -366 102 -238 245 -366 b 587 -345 526 -366 568 -359 b 711 -233 625 -319 665 -281 l 701 -216 b 534 -235 648 -229 591 -235 b 169 -31 329 -235 169 -147 b 550 211 169 71 324 166 l 585 300 l 578 309 l 501 309 b 157 391 386 309 275 391 b 30 255 72 391 34 340 l 89 162 l 102 162 l 121 255 b 177 267 135 263 154 267 b 309 241 205 267 251 258 z m 454 157 b 669 0 479 7 542 0 l 678 0 l 656 136 l 631 136 b 490 185 564 136 507 138 z "},"د":{"ha":469,"x_min":0,"x_max":0,"o":"m 51 212 b 58 138 52 182 56 157 b 216 -9 75 37 133 -9 b 395 58 290 -9 349 16 b 412 146 406 85 412 115 b 409 186 412 159 411 172 b 320 355 399 249 369 306 b 125 501 259 417 193 463 l 121 501 b 94 405 105 462 94 428 b 138 357 94 382 109 372 b 347 164 240 304 315 241 b 206 126 296 136 249 126 b 94 212 142 126 104 149 z "},"ﺪ":{"ha":525,"x_min":0,"x_max":0,"o":"m 522 136 l 512 136 b 391 248 458 136 416 171 b 289 520 346 380 315 458 l 277 524 b 229 431 258 493 242 463 b 324 199 277 337 324 224 b 288 159 324 181 309 169 b 192 136 255 144 223 136 b 92 220 135 136 104 167 l 49 216 b 57 158 52 191 54 172 b 202 0 75 42 131 0 b 340 48 261 0 306 17 b 367 114 353 60 362 79 l 369 114 b 534 0 408 27 465 0 l 543 0 z "},"ذ":{"ha":469,"x_min":0,"x_max":0,"o":"m 14 630 b 124 555 54 604 92 579 b 172 638 146 577 162 605 b 62 718 138 667 102 693 z m 51 212 b 58 138 52 182 56 157 b 216 -9 75 37 133 -9 b 395 58 290 -9 349 16 b 412 146 406 85 412 115 b 409 186 412 159 411 172 b 320 355 399 249 369 306 b 125 501 259 417 193 463 l 121 501 b 94 405 105 462 94 428 b 138 357 94 382 109 372 b 347 164 240 304 315 241 b 206 126 296 136 249 126 b 94 212 142 126 104 149 z "},"ﺬ":{"ha":525,"x_min":0,"x_max":0,"o":"m 113 644 b 223 568 153 618 191 593 b 271 652 245 591 261 618 b 161 731 237 680 201 707 z m 522 136 l 512 136 b 391 248 458 136 416 171 b 289 520 346 380 315 458 l 277 524 b 229 431 258 493 242 463 b 324 199 277 337 324 224 b 288 159 324 181 309 170 b 192 136 255 144 223 136 b 92 220 135 136 104 167 l 49 216 b 57 158 52 191 54 172 b 202 0 75 42 131 0 b 340 48 261 0 306 17 b 367 114 353 60 362 79 l 369 114 b 534 0 408 27 465 0 l 543 0 z "},"ر":{"ha":441,"x_min":0,"x_max":0,"o":"m 253 359 b 210 244 238 324 222 285 b 328 70 290 145 328 97 b 271 -40 328 46 307 3 b 119 -122 228 -90 175 -122 b 50 -114 94 -122 71 -119 l 43 -150 b 238 -209 111 -187 186 -209 b 374 -94 297 -209 342 -167 b 395 17 389 -60 395 -22 b 389 85 395 39 393 62 b 382 148 387 98 387 116 b 266 359 373 203 340 262 z "},"ﺮ":{"ha":445,"x_min":0,"x_max":0,"o":"m 441 136 l 432 136 b 263 269 356 136 311 190 l 253 269 b 220 168 241 239 231 205 b 316 43 252 118 284 77 b 257 -87 314 1 295 -46 b 119 -149 221 -126 176 -149 b 56 -138 104 -149 83 -146 l 47 -172 b 237 -239 126 -219 187 -239 b 359 -140 293 -239 331 -199 b 382 -37 372 -112 382 -79 b 378 13 382 -22 381 -5 b 452 0 401 6 424 0 l 463 0 z "},"ز":{"ha":441,"x_min":0,"x_max":0,"o":"m 100 514 b 212 437 141 488 180 462 b 261 523 235 460 252 489 b 150 604 227 551 190 579 z m 253 359 b 210 244 238 324 222 285 b 328 70 290 145 328 97 b 271 -40 328 46 307 3 b 119 -122 228 -90 175 -122 b 50 -114 94 -122 71 -119 l 43 -150 b 238 -209 111 -187 186 -209 b 374 -94 297 -209 342 -167 b 395 17 389 -60 395 -22 b 389 85 395 39 393 62 b 382 148 387 98 387 116 b 266 359 373 203 340 262 z "},"ﺰ":{"ha":445,"x_min":0,"x_max":0,"o":"m 106 425 b 216 350 146 399 184 374 b 264 433 239 372 254 400 b 155 513 231 462 194 488 z m 441 136 l 432 136 b 263 269 356 136 311 190 l 253 269 b 220 168 241 239 231 205 b 316 43 252 118 284 77 b 257 -87 314 1 295 -46 b 119 -149 221 -126 176 -149 b 56 -138 104 -149 83 -146 l 47 -172 b 237 -239 126 -219 187 -239 b 359 -140 293 -239 331 -199 b 382 -37 372 -112 382 -79 b 378 13 382 -22 381 -5 b 452 0 401 6 424 0 l 463 0 z "},"س":{"ha":927,"x_min":0,"x_max":0,"o":"m 654 57 b 751 8 694 19 725 8 b 840 81 790 8 817 37 b 863 170 854 108 863 137 b 859 207 863 181 861 194 b 821 355 851 257 838 306 l 812 357 b 749 279 790 334 770 308 b 791 155 772 222 787 179 b 765 145 786 148 777 145 b 705 170 745 145 724 153 b 676 254 684 186 676 224 b 678 280 676 262 677 271 l 673 284 b 625 252 657 275 641 265 b 599 151 619 216 622 170 b 560 136 587 141 573 136 b 505 175 534 136 518 153 b 441 286 482 216 461 252 l 433 288 b 382 178 416 257 399 219 b 484 6 433 113 477 51 b 435 -60 483 -16 463 -39 b 309 -103 401 -86 361 -103 b 190 -64 267 -103 225 -91 b 121 78 139 -26 121 23 b 136 168 121 101 125 131 l 97 186 b 68 44 77 141 68 91 b 315 -241 68 -99 155 -241 b 506 -144 397 -241 468 -203 b 536 -9 527 -111 536 -65 l 536 -3 b 650 57 602 -3 631 22 z "},"ﺳ":{"ha":625,"x_min":0,"x_max":0,"o":"m 509 347 b 448 268 487 321 467 294 b 491 151 464 233 478 191 b 460 138 488 142 475 138 b 406 160 441 138 422 146 b 376 245 381 182 376 214 b 378 279 376 256 376 267 l 372 283 b 326 252 357 275 342 264 b 286 149 322 210 326 170 b 241 136 272 141 258 136 b 204 174 224 134 204 151 b 233 259 204 195 215 224 l 227 267 b 170 241 208 260 189 252 b 127 172 157 220 144 190 b 7 136 107 149 68 136 l -3 136 b -43 85 -35 136 -43 115 b 18 0 -43 58 -33 0 l 28 0 b 159 54 90 0 131 21 l 161 54 b 243 0 175 14 208 0 b 345 60 275 0 313 20 l 347 60 b 450 2 382 20 416 2 b 538 70 487 2 515 28 b 562 165 552 98 562 134 b 559 189 562 174 561 181 b 519 343 553 229 545 267 z "},"ﺴ":{"ha":694,"x_min":0,"x_max":0,"o":"m 691 136 l 682 136 b 556 228 593 136 556 165 b 563 294 556 246 559 269 l 557 299 b 508 266 538 289 524 277 b 486 170 501 233 500 195 b 422 136 473 150 455 136 b 381 186 400 136 381 155 b 398 271 381 205 389 235 l 392 277 b 341 250 374 269 358 261 b 307 162 329 218 328 189 b 246 136 294 148 277 136 b 205 178 222 136 205 149 b 233 258 205 199 216 227 l 224 265 b 170 238 203 257 186 248 b 123 166 151 207 140 181 b 7 136 100 146 63 136 l -3 136 b -43 85 -35 136 -43 115 b 18 0 -43 58 -33 0 l 28 0 b 160 52 80 0 124 18 b 241 0 178 14 208 0 b 344 58 286 0 313 21 l 347 58 b 432 0 366 19 395 0 b 536 62 471 0 507 20 l 539 62 b 703 0 570 17 627 0 l 713 0 z "},"ﺲ":{"ha":1000,"x_min":0,"x_max":0,"o":"m 536 -3 b 646 56 585 -3 623 14 l 649 56 b 739 0 675 12 707 0 b 843 65 779 0 813 25 l 845 65 b 1009 0 869 19 939 0 l 1019 0 l 997 136 l 987 136 b 898 155 953 136 922 142 b 863 233 874 164 863 200 b 869 297 863 251 865 275 l 861 302 l 815 271 b 791 171 809 231 806 194 b 728 136 775 147 754 136 b 697 149 719 136 708 138 b 685 185 690 156 685 171 b 697 277 685 202 690 236 l 692 281 b 636 248 672 271 654 260 b 609 161 629 210 623 180 b 560 136 595 145 579 136 b 503 178 529 136 518 151 b 437 290 481 218 459 255 l 429 291 b 382 179 410 254 395 218 b 484 6 441 108 474 51 b 435 -60 483 -16 463 -39 b 309 -103 401 -86 361 -103 b 190 -64 267 -103 225 -91 b 121 78 139 -26 121 23 b 136 168 121 101 125 131 l 97 186 b 68 44 77 141 68 91 b 315 -241 68 -99 155 -241 b 506 -144 397 -241 468 -203 b 536 -9 527 -111 536 -65 z "},"ش":{"ha":927,"x_min":0,"x_max":0,"o":"m 654 57 b 751 8 694 19 725 8 b 840 81 790 8 817 37 b 863 170 854 108 863 137 b 859 207 863 181 861 194 b 821 355 851 257 838 306 l 812 357 b 749 279 790 334 770 308 b 791 155 772 222 787 179 b 765 145 786 148 777 145 b 705 170 745 145 724 153 b 676 254 684 186 676 224 b 678 280 676 262 677 271 l 673 284 b 625 252 657 275 641 265 b 599 151 619 216 622 170 b 560 136 587 141 573 136 b 505 175 534 136 518 153 b 441 286 482 216 461 252 l 433 288 b 382 178 416 257 399 219 b 484 6 433 113 477 51 b 435 -60 483 -16 463 -39 b 309 -103 401 -86 361 -103 b 190 -64 267 -103 225 -91 b 121 78 139 -26 121 23 b 136 168 121 101 125 131 l 97 186 b 68 44 77 141 68 91 b 315 -241 68 -99 155 -241 b 506 -144 397 -241 468 -203 b 536 -9 527 -111 536 -65 l 536 -3 b 650 57 602 -3 631 22 z m 476 595 b 572 519 509 570 541 546 b 623 592 593 541 612 565 b 529 672 597 618 566 646 z m 442 446 b 538 370 475 421 507 397 b 589 443 559 392 577 416 b 494 523 563 469 532 496 z m 590 453 b 685 377 623 428 654 404 b 736 450 707 399 725 422 b 642 530 710 476 679 503 z "},"ﺷ":{"ha":625,"x_min":0,"x_max":0,"o":"m 313 446 b 408 370 345 421 377 397 b 459 443 430 392 448 416 b 365 523 433 469 402 496 z m 165 439 b 261 363 198 414 229 390 b 312 436 283 385 300 409 b 218 516 286 463 254 490 z m 199 589 b 295 513 232 564 264 539 b 346 585 317 534 334 558 b 252 665 320 612 288 639 z m 509 347 b 448 268 487 321 467 294 b 491 151 464 233 478 191 b 460 138 488 142 475 138 b 406 160 441 138 422 146 b 376 245 381 182 376 214 b 378 279 376 256 376 267 l 372 283 b 326 252 357 275 342 264 b 286 149 322 210 326 170 b 241 136 272 141 258 136 b 204 174 224 134 204 151 b 233 259 204 195 215 224 l 227 267 b 170 241 208 260 189 252 b 127 172 157 220 144 190 b 7 136 107 149 68 136 l -3 136 b -43 85 -35 136 -43 115 b 18 0 -43 58 -33 0 l 28 0 b 159 54 90 0 131 21 l 161 54 b 243 0 175 14 208 0 b 345 60 275 0 313 20 l 347 60 b 450 2 382 20 416 2 b 538 70 487 2 515 28 b 562 165 552 98 562 134 b 559 189 562 174 561 181 b 519 343 553 229 545 267 z "},"ﺸ":{"ha":694,"x_min":0,"x_max":0,"o":"m 342 433 b 437 357 374 408 406 383 b 488 429 459 378 477 402 b 395 509 463 456 431 483 z m 195 426 b 290 350 227 401 259 376 b 341 422 312 372 330 395 b 247 503 315 449 283 476 z m 229 575 b 324 499 261 550 293 526 b 375 572 346 521 363 545 b 281 652 349 598 317 625 z m 691 136 l 682 136 b 556 228 593 136 556 165 b 563 294 556 246 559 269 l 557 299 b 508 266 538 289 524 277 b 486 170 501 233 500 195 b 422 136 473 150 455 136 b 381 186 400 136 381 155 b 398 271 381 205 389 235 l 392 277 b 341 250 374 269 358 261 b 307 162 329 218 328 189 b 246 136 294 148 277 136 b 205 178 222 136 205 149 b 233 258 205 199 216 227 l 224 265 b 170 238 203 257 186 248 b 123 166 151 207 140 181 b 7 136 100 146 63 136 l -3 136 b -43 85 -35 136 -43 115 b 18 0 -43 58 -33 0 l 28 0 b 160 52 80 0 124 18 b 241 0 178 14 208 0 b 344 58 286 0 313 21 l 347 58 b 432 0 366 19 395 0 b 536 62 471 0 507 20 l 539 62 b 703 0 570 17 627 0 l 713 0 z "},"ﺶ":{"ha":1000,"x_min":0,"x_max":0,"o":"m 536 -3 b 646 56 585 -3 623 14 l 649 56 b 739 0 675 12 707 0 b 843 65 779 0 813 25 l 845 65 b 1009 0 869 19 939 0 l 1019 0 l 997 136 l 987 136 b 898 155 953 136 922 142 b 863 233 874 164 863 200 b 869 297 863 251 865 275 l 861 302 l 815 271 b 791 171 809 231 806 194 b 728 136 775 147 754 136 b 697 149 719 136 708 138 b 685 185 690 156 685 171 b 697 277 685 202 690 236 l 692 281 b 636 248 672 271 654 260 b 609 161 629 210 623 180 b 560 136 595 145 579 136 b 503 178 529 136 518 151 b 437 290 481 218 459 255 l 429 291 b 382 179 410 254 395 218 b 484 6 441 108 474 51 b 435 -60 483 -16 463 -39 b 309 -103 401 -86 361 -103 b 190 -64 267 -103 225 -91 b 121 78 139 -26 121 23 b 136 168 121 101 125 131 l 97 186 b 68 44 77 141 68 91 b 315 -241 68 -99 155 -241 b 506 -144 397 -241 468 -203 b 536 -9 527 -111 536 -65 z m 640 433 b 736 357 673 408 705 383 b 787 429 758 378 776 402 b 693 509 761 456 730 483 z m 527 575 b 623 499 559 550 591 526 b 673 572 644 521 662 545 b 579 652 648 598 616 625 z m 493 426 b 589 350 526 401 557 376 b 640 422 610 372 628 395 b 545 503 614 449 582 476 z "},"ص":{"ha":1016,"x_min":0,"x_max":0,"o":"m 515 157 b 437 323 492 220 467 275 l 428 326 b 374 222 409 296 391 262 b 477 18 420 158 456 92 b 416 -52 469 -3 450 -28 b 301 -85 385 -75 345 -85 b 181 -35 260 -85 219 -71 b 125 103 140 3 125 52 b 139 193 125 132 130 162 l 99 210 b 71 68 83 168 71 121 b 311 -220 71 -104 185 -220 b 486 -143 382 -220 441 -194 b 537 8 514 -113 530 -64 b 657 0 577 3 618 0 b 916 94 791 0 872 33 b 947 207 936 121 947 165 b 945 239 947 218 946 229 b 772 403 928 338 855 403 b 518 157 671 403 583 303 z m 572 142 b 766 285 627 233 694 285 b 879 194 812 285 856 254 b 667 136 834 153 748 136 b 572 142 633 136 601 138 z "},"ﺻ":{"ha":719,"x_min":0,"x_max":0,"o":"m 223 161 b 172 254 189 175 172 214 b 174 291 172 264 173 277 l 169 294 b 123 257 153 282 138 269 b 104 176 118 229 113 194 b 7 136 90 149 57 136 l -3 136 b -43 85 -35 136 -43 115 b 18 0 -43 58 -33 0 l 27 0 b 156 68 87 0 127 25 l 159 68 b 345 0 198 17 264 0 b 619 94 494 0 575 33 b 650 207 639 121 650 165 b 648 239 650 218 649 229 b 475 403 631 338 558 403 b 223 161 376 403 287 305 z m 280 142 b 475 285 335 233 402 285 b 587 194 520 285 564 254 b 376 136 543 153 456 136 b 280 142 342 136 309 138 z "},"ﺼ":{"ha":728,"x_min":0,"x_max":0,"o":"m 169 294 b 123 257 153 282 138 269 b 104 176 118 229 113 194 b 7 136 90 149 57 136 l -3 136 b -43 85 -35 136 -43 115 b 18 0 -43 58 -33 0 l 27 0 b 156 68 87 0 127 25 l 159 68 b 345 0 198 17 264 0 b 503 19 401 0 454 7 b 736 0 566 8 644 0 l 746 0 l 724 136 l 639 136 b 650 207 646 159 650 182 b 647 241 650 218 649 229 b 473 393 633 327 555 393 b 222 162 377 393 294 305 b 172 254 189 174 172 214 b 174 291 172 264 173 277 z m 281 145 b 460 274 334 227 394 274 b 583 192 533 274 583 211 b 374 136 583 169 485 136 b 281 145 336 136 305 138 z "},"ﺺ":{"ha":1025,"x_min":0,"x_max":0,"o":"m 515 157 b 437 323 492 220 467 275 l 428 326 b 374 222 409 296 391 262 b 477 18 420 158 456 92 b 416 -52 469 -3 450 -28 b 301 -85 385 -75 345 -85 b 181 -35 260 -85 219 -71 b 125 103 140 3 125 52 b 139 193 125 132 130 162 l 99 210 b 71 68 83 168 71 121 b 311 -220 71 -104 185 -220 b 486 -143 382 -220 441 -194 b 537 8 514 -113 530 -64 b 648 0 572 3 608 0 b 800 19 705 0 758 7 b 1034 0 881 5 958 0 l 1043 0 l 1021 136 l 936 136 b 947 208 943 158 947 183 b 945 239 947 218 946 229 b 773 393 931 325 854 393 b 518 157 671 393 589 305 z m 572 142 b 758 274 627 217 686 274 b 879 191 830 274 879 214 b 863 174 879 184 873 179 b 667 136 811 148 745 136 b 572 142 633 136 601 138 z "},"ض":{"ha":1016,"x_min":0,"x_max":0,"o":"m 502 544 b 612 469 543 518 581 493 b 661 552 635 491 650 519 b 551 631 627 581 591 607 z m 515 157 b 437 323 492 220 467 275 l 428 326 b 374 222 409 296 391 262 b 477 18 420 158 456 92 b 416 -52 469 -3 450 -28 b 301 -85 385 -75 345 -85 b 181 -35 260 -85 219 -71 b 125 103 140 3 125 52 b 139 193 125 132 130 162 l 99 210 b 71 68 83 168 71 121 b 311 -220 71 -104 185 -220 b 486 -143 382 -220 441 -194 b 537 8 514 -113 530 -64 b 657 0 577 3 618 0 b 916 94 791 0 872 33 b 947 207 936 121 947 165 b 945 239 947 218 946 229 b 772 403 928 338 855 403 b 518 157 671 403 583 303 z m 572 142 b 766 285 627 233 694 285 b 879 194 812 285 856 254 b 667 136 834 153 748 136 b 572 142 633 136 601 138 z "},"ﺿ":{"ha":719,"x_min":0,"x_max":0,"o":"m 271 551 b 380 475 311 525 349 500 b 429 559 403 498 419 526 b 319 638 395 587 359 614 z m 223 161 b 172 254 189 175 172 214 b 174 291 172 264 173 277 l 169 294 b 123 257 153 282 138 269 b 104 176 118 229 113 194 b 7 136 90 149 57 136 l -3 136 b -43 85 -35 136 -43 115 b 18 0 -43 58 -33 0 l 27 0 b 156 68 87 0 127 25 l 159 68 b 345 0 198 17 264 0 b 619 94 494 0 575 33 b 650 207 639 121 650 165 b 648 239 650 218 649 229 b 475 403 631 338 558 403 b 223 161 376 403 287 305 z m 280 142 b 475 285 335 233 402 285 b 587 194 520 285 564 254 b 376 136 543 153 456 136 b 280 142 342 136 309 138 z "},"ﻀ":{"ha":728,"x_min":0,"x_max":0,"o":"m 271 551 b 380 475 311 525 349 500 b 429 559 403 498 419 526 b 319 638 395 587 359 614 z m 169 294 b 123 257 153 282 138 269 b 104 176 118 229 113 194 b 7 136 90 149 57 136 l -3 136 b -43 85 -35 136 -43 115 b 18 0 -43 58 -33 0 l 27 0 b 156 68 87 0 127 25 l 159 68 b 345 0 198 17 264 0 b 503 19 401 0 454 7 b 736 0 566 8 644 0 l 746 0 l 724 136 l 639 136 b 650 207 646 159 650 182 b 647 241 650 218 649 229 b 473 393 633 327 555 393 b 222 162 377 393 294 305 b 172 254 189 174 172 214 b 174 291 172 264 173 277 z m 281 145 b 460 274 334 227 394 274 b 583 192 533 274 583 211 b 374 136 583 169 485 136 b 281 145 336 136 305 138 z "},"ﺾ":{"ha":1025,"x_min":0,"x_max":0,"o":"m 503 537 b 614 462 544 511 582 486 b 661 545 635 484 652 512 b 552 625 628 574 591 600 z m 515 157 b 437 323 492 220 467 275 l 428 326 b 374 222 409 296 391 262 b 477 18 420 158 456 92 b 416 -52 469 -3 450 -28 b 301 -85 385 -75 345 -85 b 181 -35 260 -85 219 -71 b 125 103 140 3 125 52 b 139 193 125 132 130 162 l 99 210 b 71 68 83 168 71 121 b 311 -220 71 -104 185 -220 b 486 -143 382 -220 441 -194 b 537 8 514 -113 530 -64 b 648 0 572 3 608 0 b 800 19 705 0 758 7 b 1034 0 881 5 958 0 l 1043 0 l 1021 136 l 936 136 b 947 208 943 158 947 183 b 945 239 947 218 946 229 b 773 393 931 325 854 393 b 518 157 671 393 589 305 z m 572 142 b 758 274 627 217 686 274 b 879 191 830 274 879 214 b 863 174 879 184 873 179 b 667 136 811 148 745 136 b 572 142 633 136 601 138 z "},"ط":{"ha":807,"x_min":0,"x_max":0,"o":"m 304 229 b 313 302 311 252 313 277 b 307 372 313 325 311 348 b 283 509 302 402 293 454 l 334 554 b 230 737 260 648 237 694 l 221 742 b 167 654 182 705 167 681 b 193 548 167 621 186 583 b 237 330 211 467 227 398 b 256 165 248 264 255 210 l 239 136 b 28 159 174 141 104 149 l 26 151 b 168 15 71 105 119 60 l 202 11 l 201 -65 l 215 -79 b 265 4 231 -47 248 -20 b 363 0 296 1 330 0 b 705 85 514 0 649 28 b 737 209 726 117 737 170 b 554 401 737 309 659 401 b 308 228 463 401 382 332 z m 314 134 b 542 277 396 231 471 277 b 663 200 600 277 648 235 b 314 134 614 155 493 134 z "},"ﻃ":{"ha":635,"x_min":0,"x_max":0,"o":"m 132 229 b 141 302 138 252 141 277 b 135 372 141 325 139 348 b 111 509 130 402 121 454 l 162 554 b 58 737 87 648 64 694 l 49 742 b -5 654 10 705 -5 681 b 21 548 -5 623 13 583 b 65 330 39 467 55 398 b 83 165 76 264 83 210 l 67 136 l -3 136 b -43 85 -35 136 -43 115 b 18 0 -43 58 -33 0 l 28 0 b 532 85 347 1 477 28 b 565 209 554 117 565 170 b 382 401 565 309 486 401 b 136 228 290 401 210 332 z m 141 136 b 370 277 223 233 299 277 b 491 200 427 277 476 235 b 141 136 441 155 320 136 z "},"ﻄ":{"ha":637,"x_min":0,"x_max":0,"o":"m 134 245 b 140 306 137 265 140 283 b 135 361 140 321 138 339 b 110 509 126 418 119 463 l 161 552 b 58 734 107 624 66 685 l 47 740 b -3 648 16 707 -3 686 b -1 627 -3 642 -3 635 b 73 281 4 594 33 535 b 82 182 79 243 82 210 l 82 174 l 57 136 l -3 136 b -43 85 -35 136 -43 115 b 18 0 -43 58 -33 0 l 28 0 b 401 18 159 0 287 1 b 646 0 477 7 555 0 l 656 0 l 634 136 l 553 136 b 562 195 559 154 562 174 b 511 321 562 242 543 284 b 359 391 472 368 422 391 b 136 244 273 391 200 325 z m 138 136 b 347 268 204 215 275 268 b 489 182 430 268 486 201 b 453 159 490 174 474 166 b 138 136 399 140 279 136 z "},"ﻂ":{"ha":810,"x_min":0,"x_max":0,"o":"m 307 245 b 313 306 310 265 313 283 b 308 361 313 321 311 339 b 283 509 299 418 292 463 l 334 552 b 231 734 280 624 239 685 l 220 740 b 169 648 188 707 169 686 b 171 627 169 642 170 635 b 246 281 176 594 206 535 b 255 182 252 243 255 210 l 255 174 l 235 136 b 28 159 163 142 94 149 l 26 151 b 168 15 71 105 118 60 l 201 9 l 201 -65 l 215 -78 b 264 3 232 -48 248 -22 b 345 0 296 0 321 0 b 574 18 431 0 496 7 b 819 0 650 7 728 0 l 829 0 l 807 136 l 726 136 b 735 195 732 154 735 174 b 685 321 735 242 717 284 b 532 391 646 368 595 391 b 309 244 446 391 373 325 z m 311 134 b 520 268 378 213 448 268 b 662 182 603 268 659 201 b 626 159 663 174 647 166 b 311 134 572 140 452 134 z "},"ظ":{"ha":807,"x_min":0,"x_max":0,"o":"m 404 541 b 499 465 436 516 468 492 b 550 538 521 487 538 511 b 456 618 524 564 492 591 z m 304 229 b 313 302 311 252 313 277 b 307 372 313 325 311 348 b 283 509 302 402 293 454 l 334 554 b 230 737 260 648 237 694 l 221 742 b 167 654 182 705 167 681 b 193 548 167 621 186 583 b 237 330 211 467 227 398 b 256 165 248 264 255 210 l 239 136 b 28 159 174 141 104 149 l 26 151 b 168 15 71 105 119 60 l 202 11 l 201 -65 l 215 -79 b 265 4 231 -47 248 -20 b 363 0 296 1 330 0 b 705 85 514 0 649 28 b 737 209 726 117 737 170 b 554 401 737 309 659 401 b 308 228 463 401 382 332 z m 314 134 b 542 277 396 231 471 277 b 663 200 600 277 648 235 b 314 134 614 155 493 134 z "},"ﻇ":{"ha":627,"x_min":0,"x_max":0,"o":"m 227 541 b 323 465 260 516 292 492 b 374 538 345 487 362 511 b 279 618 348 564 316 591 z m 132 229 b 141 302 138 252 141 277 b 135 372 141 325 139 348 b 111 509 130 402 121 454 l 162 554 b 58 737 87 648 64 694 l 49 742 b -5 654 10 705 -5 681 b 21 548 -5 623 13 583 b 65 330 39 467 55 398 b 83 165 76 264 83 210 l 67 136 l -3 136 b -43 85 -35 136 -43 115 b 18 0 -43 58 -33 0 l 28 0 b 532 85 347 1 477 28 b 565 209 554 117 565 170 b 382 401 565 309 486 401 b 136 228 290 401 210 332 z m 141 136 b 370 277 223 233 299 277 b 491 200 427 277 476 235 b 141 136 441 155 320 136 z "},"ﻈ":{"ha":637,"x_min":0,"x_max":0,"o":"m 238 538 b 334 462 271 513 302 488 b 385 534 355 484 373 507 b 290 614 359 561 327 588 z m 134 245 b 140 306 137 265 140 283 b 135 361 140 321 138 339 b 110 509 126 418 119 463 l 161 552 b 58 734 107 624 66 685 l 47 740 b -3 648 16 707 -3 686 b -1 627 -3 642 -3 635 b 73 281 4 594 33 535 b 82 182 79 243 82 210 l 82 174 l 57 136 l -3 136 b -43 85 -35 136 -43 115 b 18 0 -43 58 -33 0 l 28 0 b 401 18 159 0 287 1 b 646 0 477 7 555 0 l 656 0 l 634 136 l 553 136 b 562 195 559 154 562 174 b 511 321 562 242 543 284 b 359 391 472 368 422 391 b 136 244 273 391 200 325 z m 138 136 b 347 268 204 215 275 268 b 489 182 430 268 486 201 b 453 159 490 174 474 166 b 138 136 399 140 279 136 z "},"ﻆ":{"ha":810,"x_min":0,"x_max":0,"o":"m 401 538 b 496 462 433 513 465 488 b 547 534 518 484 536 507 b 453 614 522 561 490 588 z m 307 245 b 313 306 310 265 313 283 b 308 361 313 321 311 339 b 283 509 299 418 292 463 l 334 552 b 231 734 280 624 239 685 l 220 740 b 169 648 188 707 169 686 b 171 627 169 642 170 635 b 246 281 176 594 206 535 b 255 182 252 243 255 210 l 255 174 l 235 136 b 28 159 163 142 94 149 l 26 151 b 168 15 71 105 118 60 l 201 9 l 201 -65 l 215 -78 b 264 3 232 -48 248 -22 b 345 0 296 0 321 0 b 574 18 431 0 496 7 b 819 0 650 7 728 0 l 829 0 l 807 136 l 726 136 b 735 195 732 154 735 174 b 685 321 735 242 717 284 b 532 391 646 368 595 391 b 309 244 446 391 373 325 z m 311 134 b 520 268 378 213 448 268 b 662 182 603 268 659 201 b 626 159 663 174 647 166 b 311 134 572 140 452 134 z "},"ع":{"ha":606,"x_min":0,"x_max":0,"o":"m 352 388 b 188 492 300 456 245 492 b 58 396 130 492 81 452 b 39 307 44 362 39 333 b 149 142 39 235 83 184 b 85 -41 105 79 85 18 b 428 -332 85 -235 248 -332 b 508 -322 456 -332 484 -330 b 651 -202 555 -294 602 -252 l 638 -186 b 489 -199 591 -195 541 -199 b 149 -28 290 -199 149 -123 b 444 188 149 39 252 119 b 459 311 451 228 455 270 l 452 317 b 246 231 332 269 264 231 b 172 263 230 231 203 243 b 111 333 141 287 111 315 b 237 393 111 347 169 393 b 336 366 268 393 301 385 z "},"ﻋ":{"ha":507,"x_min":0,"x_max":0,"o":"m 362 328 b 185 450 311 406 254 450 b 55 362 125 450 81 413 b 31 272 38 331 31 298 b 98 144 31 220 56 179 l 98 142 b 7 136 72 136 39 136 l -3 136 b -43 85 -35 136 -43 115 b 18 0 -43 58 -33 0 l 28 0 b 201 36 71 0 125 9 b 420 106 266 59 361 75 b 455 228 434 146 446 187 l 444 238 b 260 187 353 203 290 187 b 170 227 236 187 206 199 b 111 301 140 252 111 288 b 235 343 111 312 160 343 b 345 304 267 343 304 331 z "},"ﻌ":{"ha":510,"x_min":0,"x_max":0,"o":"m 344 165 b 433 259 372 195 403 226 b 439 359 437 292 438 326 b 241 394 378 382 311 394 b 27 370 136 394 75 374 l 7 259 l 9 257 l 25 257 b 73 235 45 257 60 247 b 169 157 108 205 139 180 l 170 154 b 26 136 142 142 94 136 l -3 136 b -43 85 -35 136 -43 115 b 18 0 -43 58 -33 0 l 28 0 b 267 81 117 0 189 16 b 519 0 360 16 435 0 l 528 0 l 507 136 l 497 136 b 345 162 438 136 392 139 z m 359 270 b 263 189 326 238 295 211 b 138 275 224 211 181 241 l 138 278 b 249 289 166 285 204 289 b 359 273 290 289 326 283 z "},"ﻊ":{"ha":585,"x_min":0,"x_max":0,"o":"m 313 84 b 593 0 387 34 455 0 l 603 0 l 581 136 l 572 136 b 397 158 501 136 444 137 l 397 160 b 488 258 429 193 460 226 b 491 361 491 295 491 328 b 286 395 435 381 369 395 b 68 365 189 395 124 376 l 46 254 l 54 247 b 85 252 63 250 74 252 b 218 155 119 252 153 208 b 70 -100 121 79 70 -7 b 410 -386 70 -280 235 -386 b 518 -374 448 -386 484 -381 b 658 -251 572 -333 621 -292 l 648 -238 b 465 -254 589 -248 528 -254 b 130 -83 271 -254 130 -165 b 313 84 130 -35 204 31 z m 311 187 b 185 277 267 216 225 248 l 184 281 b 296 291 216 288 254 291 b 420 277 335 291 377 288 l 421 273 b 311 187 392 247 353 216 z "},"غ":{"ha":606,"x_min":0,"x_max":0,"o":"m 23 625 b 134 550 64 600 102 574 b 182 633 156 572 172 600 b 72 713 148 662 112 688 z m 352 388 b 188 492 300 456 245 492 b 58 396 130 492 81 452 b 39 307 44 362 39 333 b 149 142 39 235 83 184 b 85 -41 105 79 85 18 b 428 -332 85 -235 248 -332 b 508 -322 456 -332 484 -330 b 651 -202 555 -294 602 -252 l 638 -186 b 489 -199 591 -195 541 -199 b 149 -28 290 -199 149 -123 b 444 188 149 39 252 119 b 459 311 451 228 455 270 l 452 317 b 246 231 332 269 264 231 b 172 263 230 231 203 243 b 111 333 141 287 111 315 b 237 393 111 347 169 393 b 336 366 268 393 301 385 z "},"ﻏ":{"ha":507,"x_min":0,"x_max":0,"o":"m 23 585 b 134 509 64 559 102 534 b 181 593 155 532 172 559 b 72 672 147 621 111 648 z m 362 328 b 185 450 311 406 254 450 b 55 362 125 450 81 413 b 31 272 38 331 31 298 b 98 144 31 220 56 179 l 98 142 b 7 136 72 136 39 136 l -3 136 b -43 85 -35 136 -43 115 b 18 0 -43 58 -33 0 l 28 0 b 201 36 71 0 125 9 b 420 106 266 59 361 75 b 455 228 434 146 446 187 l 444 238 b 260 187 353 203 290 187 b 170 227 236 187 206 199 b 111 301 140 252 111 288 b 235 343 111 312 160 343 b 345 304 267 343 304 331 z "},"ﻐ":{"ha":510,"x_min":0,"x_max":0,"o":"m 96 551 b 206 475 137 525 175 500 b 254 559 229 498 245 526 b 144 638 220 587 184 614 z m 344 165 b 433 259 372 195 403 226 b 439 359 437 292 438 326 b 241 394 378 382 311 394 b 27 370 136 394 75 374 l 7 259 l 9 257 l 25 257 b 73 235 45 257 60 247 b 169 157 108 205 139 180 l 170 154 b 26 136 142 142 94 136 l -3 136 b -43 85 -35 136 -43 115 b 18 0 -43 58 -33 0 l 28 0 b 267 81 117 0 189 16 b 519 0 360 16 435 0 l 528 0 l 507 136 l 497 136 b 345 162 438 136 392 139 z m 359 270 b 263 189 326 238 295 211 b 138 275 224 211 181 241 l 138 278 b 249 289 166 285 204 289 b 359 273 290 289 326 283 z "},"ﻎ":{"ha":585,"x_min":0,"x_max":0,"o":"m 142 551 b 252 475 182 525 220 500 b 300 559 274 498 290 526 b 190 638 266 587 230 614 z m 313 84 b 593 0 387 34 455 0 l 603 0 l 581 136 l 572 136 b 397 158 501 136 444 137 l 397 160 b 488 258 429 193 460 226 b 491 361 491 295 491 328 b 286 395 435 381 369 395 b 68 365 189 395 124 376 l 46 254 l 54 247 b 85 252 63 250 74 252 b 218 155 119 252 153 208 b 70 -100 121 79 70 -7 b 410 -386 70 -280 235 -386 b 518 -374 448 -386 484 -381 b 658 -251 572 -333 621 -292 l 648 -238 b 465 -254 589 -248 528 -254 b 130 -83 271 -254 130 -165 b 313 84 130 -35 204 31 z m 311 187 b 185 277 267 216 225 248 l 184 281 b 296 291 216 288 254 291 b 420 277 335 291 377 288 l 421 273 b 311 187 392 247 353 216 z "},"ف":{"ha":907,"x_min":0,"x_max":0,"o":"m 776 187 b 777 182 777 185 777 183 b 743 151 777 167 766 158 b 438 112 648 126 547 112 b 104 332 219 112 104 199 b 110 384 104 348 106 365 l 64 400 b 47 283 54 365 47 328 b 419 -30 47 106 154 -30 b 730 11 540 -30 640 -14 b 823 52 774 24 808 38 b 839 156 833 86 839 122 b 835 208 839 174 838 192 b 635 509 812 353 728 509 b 536 452 597 509 564 487 b 502 347 514 422 502 387 b 704 185 502 239 574 185 b 776 187 728 185 752 185 z m 744 290 b 555 361 638 294 555 319 b 621 403 555 381 578 403 b 744 290 666 403 707 361 z m 498 629 b 610 553 539 604 578 577 b 659 638 633 575 649 604 b 547 719 625 667 587 694 z "},"ﻓ":{"ha":395,"x_min":0,"x_max":0,"o":"m -1 625 b 109 549 39 599 77 574 b 157 633 131 572 146 600 b 47 712 123 661 87 688 z m -3 136 b -43 85 -35 136 -43 115 b 18 0 -43 58 -33 0 l 28 0 b 333 138 226 0 333 9 b 329 187 333 153 332 169 b 124 509 304 343 216 509 b 25 452 85 509 52 487 b -9 347 3 422 -9 387 b 192 185 -9 239 62 185 b 265 189 217 185 242 186 b 269 176 268 185 269 180 b 33 136 269 139 175 136 z m 233 290 b 43 361 127 294 43 319 b 110 403 43 381 66 403 b 233 290 155 403 196 361 z "},"ﻔ":{"ha":444,"x_min":0,"x_max":0,"o":"m -3 136 b -43 85 -35 136 -43 115 b 18 0 -43 58 -33 0 l 28 0 b 211 42 102 0 162 16 b 453 0 311 9 353 0 l 463 0 l 441 136 l 431 136 b 332 144 401 136 368 139 b 348 242 341 176 348 208 b 283 422 348 307 329 368 b 210 465 261 448 237 465 b 115 412 175 465 143 444 b 62 273 82 374 62 329 b 91 144 62 230 76 181 b 7 136 67 138 38 136 z m 109 248 b 203 337 121 294 159 337 b 297 236 248 337 297 270 b 213 167 297 214 266 183 b 109 248 159 185 122 212 z m 77 596 b 187 521 117 570 155 545 b 235 604 210 543 225 571 b 125 684 201 633 165 659 z "},"ﻒ":{"ha":999,"x_min":0,"x_max":0,"o":"m 1017 0 l 996 136 l 986 136 b 888 145 953 136 920 138 b 903 237 896 171 903 200 b 838 422 903 302 885 366 b 764 465 816 448 791 465 b 670 412 730 465 698 444 b 616 272 637 373 616 328 b 647 136 616 227 631 172 b 432 112 576 119 505 112 b 103 328 229 115 103 191 b 110 382 103 346 105 363 l 64 399 b 47 279 52 359 47 319 b 422 -30 47 87 179 -30 b 791 40 544 -30 667 -4 b 1008 0 852 15 914 0 z m 664 248 b 758 337 675 294 714 337 b 852 236 802 337 852 270 b 768 165 852 214 821 182 b 664 248 714 184 677 212 z m 625 599 b 737 522 666 573 705 547 b 786 608 760 545 777 574 b 674 688 751 636 714 664 z "},"ق":{"ha":734,"x_min":0,"x_max":0,"o":"m 617 94 b 624 76 621 88 623 83 b 536 1 605 49 574 24 b 366 -50 483 -33 425 -50 b 120 214 226 -50 120 41 b 125 281 120 235 121 258 l 77 294 b 66 170 71 254 66 212 b 373 -188 66 17 138 -188 b 592 -109 460 -188 531 -158 b 670 -13 632 -77 656 -43 b 680 62 676 9 680 35 b 673 134 680 84 677 108 b 464 439 656 245 568 439 b 330 266 401 439 330 370 b 401 117 330 207 355 145 b 529 83 445 91 488 83 b 617 94 555 83 585 87 z m 580 210 b 530 206 565 208 548 206 b 387 269 444 206 387 233 b 455 321 387 288 407 321 b 580 210 503 321 545 279 z m 392 577 b 487 501 425 552 456 528 b 538 574 509 523 527 547 b 444 654 512 600 481 627 z m 244 570 b 340 494 277 545 309 521 b 391 567 361 516 379 540 b 296 647 365 593 334 621 z "},"ﻗ":{"ha":395,"x_min":0,"x_max":0,"o":"m 67 632 b 159 551 98 606 129 579 b 215 621 182 572 201 595 b 124 705 190 648 159 677 z m -75 626 b 18 545 -43 600 -12 573 b 73 614 40 566 59 589 b -18 699 48 642 18 671 z m -3 136 b -43 85 -35 136 -43 115 b 18 0 -43 58 -33 0 l 28 0 b 333 138 226 0 333 9 b 329 187 333 153 332 169 b 124 509 304 343 216 509 b 25 452 85 509 52 487 b -9 347 3 422 -9 387 b 192 185 -9 239 62 185 b 265 189 217 185 242 186 b 269 176 268 185 269 180 b 33 136 269 139 175 136 z m 233 290 b 43 361 127 294 43 319 b 110 403 43 381 66 403 b 233 290 155 403 196 361 z "},"ﻘ":{"ha":444,"x_min":0,"x_max":0,"o":"m 146 602 b 239 521 178 575 208 549 b 294 590 262 541 281 564 b 203 674 269 618 239 646 z m 5 595 b 96 515 36 569 66 543 b 152 584 120 535 138 558 b 61 668 127 612 97 640 z m -3 136 b -43 85 -35 136 -43 115 b 18 0 -43 58 -33 0 l 28 0 b 211 42 102 0 162 16 b 453 0 311 9 353 0 l 463 0 l 441 136 l 431 136 b 332 144 401 136 368 139 b 348 242 341 176 348 208 b 283 422 348 307 329 368 b 210 465 261 448 237 465 b 115 412 175 465 143 444 b 62 273 82 374 62 329 b 91 144 62 230 76 181 b 7 136 67 138 38 136 z m 109 248 b 203 337 121 294 159 337 b 297 236 248 337 297 270 b 213 167 297 214 266 183 b 109 248 159 185 122 212 z "},"ﻖ":{"ha":707,"x_min":0,"x_max":0,"o":"m 655 136 b 464 360 606 278 540 360 b 364 300 425 360 391 338 b 332 196 342 268 332 233 b 577 0 332 55 437 0 l 629 0 l 634 -7 b 555 -78 618 -30 589 -55 b 380 -134 505 -111 444 -134 b 216 -82 320 -134 263 -120 b 128 130 150 -29 128 51 b 132 195 128 151 130 172 l 88 210 b 74 85 79 169 74 127 b 384 -273 74 -120 194 -273 b 677 -102 509 -273 623 -205 b 687 0 685 -75 687 -42 l 725 0 l 703 136 z m 587 136 b 560 134 578 134 570 134 b 389 202 473 134 389 159 b 452 249 389 221 411 249 b 587 136 505 249 551 203 z m 397 503 b 492 427 429 477 461 453 b 543 499 514 448 532 472 b 449 579 517 526 486 553 z m 250 496 b 345 420 282 471 313 446 b 396 492 366 441 385 465 b 302 572 370 519 338 546 z "},"ك":{"ha":704,"x_min":0,"x_max":0,"o":"m 502 698 b 456 647 481 680 467 663 b 446 606 450 636 446 622 b 448 584 446 600 447 592 b 524 250 454 552 501 396 b 534 180 528 226 532 203 b 318 123 478 144 390 123 b 102 298 155 123 102 208 b 111 357 102 317 105 337 l 66 374 b 50 258 55 335 50 296 b 313 -14 50 97 135 -14 b 565 62 413 -14 508 16 b 598 211 587 104 598 155 b 591 293 598 237 596 264 b 560 465 583 351 572 408 l 614 511 b 511 692 552 593 517 648 z m 344 465 b 347 491 345 474 347 482 b 311 542 347 515 338 542 b 253 506 294 542 275 528 b 217 413 230 482 217 450 b 224 364 217 398 220 379 b 340 353 290 364 340 365 b 191 316 340 334 289 323 l 189 305 b 255 270 210 292 232 281 b 290 267 269 267 281 267 b 385 336 347 267 379 290 b 387 362 387 346 387 355 b 313 433 387 408 360 433 l 263 433 l 263 434 b 316 473 281 459 300 473 b 337 464 324 473 331 469 z "},"ﻛ":{"ha":433,"x_min":0,"x_max":0,"o":"m 141 479 b -2 503 96 486 47 493 l -2 507 b 281 616 76 545 172 581 b 321 729 296 654 310 692 l 316 734 b -12 603 172 684 52 637 b -66 522 -50 585 -66 557 b -37 418 -66 486 -53 456 b 227 186 111 330 227 237 b 7 136 227 157 138 136 l -3 136 b -43 85 -35 136 -43 115 b 18 0 -43 58 -33 0 l 28 0 b 279 88 174 0 260 30 b 294 178 288 118 294 149 b 127 427 294 263 258 330 z "},"ﻜ":{"ha":522,"x_min":0,"x_max":0,"o":"m 138 455 b 5 496 87 469 42 483 l 5 499 b 319 620 81 539 190 581 b 359 729 332 651 345 686 l 353 734 b -12 593 206 687 73 642 b -47 564 -27 584 -39 574 b -62 505 -57 549 -62 529 b -38 410 -62 474 -52 433 b 191 172 97 301 176 221 b 7 136 176 140 96 136 l -3 136 b -43 85 -35 136 -43 115 b 18 0 -43 58 -33 0 l 28 0 b 218 45 127 0 190 15 b 259 165 243 75 259 113 l 259 172 l 261 172 b 531 0 383 48 401 0 l 541 0 l 519 136 l 509 136 b 118 401 390 136 321 264 z "},"ﻚ":{"ha":753,"x_min":0,"x_max":0,"o":"m 530 705 b 464 626 505 680 485 654 b 549 226 499 485 529 351 b 299 137 492 173 392 137 b 100 342 186 137 100 209 b 102 382 100 356 101 369 l 60 395 b 45 286 50 357 45 321 b 313 0 45 123 146 0 b 488 42 372 0 430 14 b 585 117 532 64 566 90 l 587 117 b 762 0 617 39 674 0 l 772 0 l 750 136 l 741 136 b 620 264 678 136 635 170 l 604 364 b 538 699 588 465 568 586 z m 348 486 b 351 511 349 494 351 503 b 315 562 351 536 342 562 b 257 526 298 562 279 548 b 221 433 234 503 221 471 b 228 385 221 418 224 399 b 345 373 294 385 345 385 b 195 336 345 355 293 343 l 193 326 b 259 290 214 313 236 301 b 294 287 273 288 285 287 b 389 356 351 287 383 310 b 391 382 391 366 391 375 b 317 453 391 429 364 453 l 267 453 l 267 454 b 320 493 286 479 304 493 b 341 484 328 493 335 490 z "},"ل":{"ha":604,"x_min":0,"x_max":0,"o":"m 402 698 b 357 647 381 680 368 663 b 347 606 350 636 347 622 b 371 498 347 569 361 541 b 441 173 398 387 431 243 b 451 106 446 145 450 123 b 385 50 441 87 420 68 b 283 22 353 32 317 22 b 116 190 178 22 116 99 b 127 273 116 216 120 243 l 89 291 b 64 152 73 247 64 201 b 290 -123 64 7 148 -123 b 505 8 372 -123 469 -79 b 513 102 511 38 513 69 b 501 237 513 142 509 186 b 460 465 489 317 475 393 l 514 511 b 411 692 452 593 418 648 z "},"ﻟ":{"ha":276,"x_min":0,"x_max":0,"o":"m 74 698 b 28 647 53 680 39 663 b 18 606 22 636 18 622 b 20 584 18 600 19 592 b 104 185 24 562 104 259 b 98 163 104 175 102 169 b 7 136 81 144 50 136 l -3 136 b -43 85 -35 136 -43 115 b 18 0 -43 58 -33 0 l 28 0 b 142 61 89 0 121 25 b 164 133 153 83 159 107 b 172 211 169 157 172 182 b 165 283 172 233 170 256 b 133 465 155 349 144 413 l 186 511 b 83 692 124 593 90 648 z "},"ﻠ":{"ha":292,"x_min":0,"x_max":0,"o":"m 288 136 l 275 136 b 172 228 203 136 182 163 b 147 391 167 259 159 319 b 87 694 132 486 114 598 l 78 699 b 14 628 56 678 35 654 b 98 205 47 498 98 250 b 12 136 98 161 72 136 l -3 136 b -43 85 -35 136 -43 115 b 18 0 -43 58 -33 0 l 28 0 b 144 76 85 0 121 27 l 146 76 b 300 0 185 18 239 0 l 310 0 z "},"ﻞ":{"ha":620,"x_min":0,"x_max":0,"o":"m 616 136 l 607 136 b 534 164 580 136 555 144 b 494 258 513 184 502 214 b 420 668 467 427 442 562 l 409 673 b 349 602 388 653 368 629 b 441 144 384 441 424 254 b 454 54 446 116 450 85 b 291 -30 416 -2 344 -30 b 118 147 192 -30 118 47 b 131 236 118 172 123 201 l 92 252 b 66 112 75 208 66 160 b 302 -167 66 -13 125 -167 b 500 -56 382 -167 458 -127 b 515 29 509 -28 515 1 b 514 47 515 35 515 41 l 517 47 b 629 0 546 16 583 0 l 638 0 z "},"م":{"ha":508,"x_min":0,"x_max":0,"o":"m 115 169 b 79 82 95 138 84 109 b 74 24 76 60 74 41 b 77 -7 74 13 75 3 b 267 -454 94 -113 224 -315 l 283 -455 b 288 -374 286 -423 288 -397 b 285 -328 288 -356 287 -341 b 139 42 277 -275 168 -73 b 221 69 153 60 184 69 b 421 53 275 69 331 64 b 447 151 437 90 447 124 b 382 293 447 194 417 243 b 208 407 327 365 269 407 b 90 258 136 407 106 348 z m 158 199 l 165 226 b 160 282 165 249 163 265 b 194 288 169 286 180 288 b 343 200 242 288 292 256 l 342 195 b 224 208 298 203 256 208 b 161 197 200 208 179 204 z "},"ﻣ":{"ha":467,"x_min":0,"x_max":0,"o":"m -3 136 b -43 85 -35 136 -43 115 b 18 0 -43 58 -33 0 l 26 0 b 125 80 81 0 115 30 l 127 80 b 318 6 196 32 267 6 b 412 132 402 6 412 109 b 222 383 412 170 347 383 b 138 343 191 383 163 370 b 62 153 82 281 109 186 b 7 136 45 142 27 136 z m 147 208 b 217 267 159 245 181 267 b 337 142 262 267 311 218 b 317 136 337 138 330 136 b 147 208 264 136 208 161 z "},"ﻤ":{"ha":526,"x_min":0,"x_max":0,"o":"m 410 56 b 535 0 450 8 496 0 l 545 0 l 523 136 l 513 136 b 405 189 465 136 429 153 b 226 366 350 275 305 366 b 153 330 200 366 176 354 b 116 243 132 307 122 277 b 7 136 104 174 99 136 l -3 136 b -43 85 -35 136 -43 115 b 18 0 -43 58 -33 0 l 28 0 b 137 76 77 0 117 18 l 140 76 b 342 -28 207 12 292 -28 b 409 56 380 -28 401 2 z m 165 209 b 226 253 178 237 198 253 b 353 120 286 253 353 149 b 340 109 353 113 349 109 b 165 209 296 109 199 153 z "},"ﻢ":{"ha":602,"x_min":0,"x_max":0,"o":"m 254 402 b 109 233 231 357 157 290 b 67 106 83 202 67 166 b 299 -454 67 -66 231 -263 l 316 -454 b 319 -389 318 -432 319 -410 b 315 -332 319 -368 318 -349 b 141 90 305 -267 141 18 b 178 160 141 115 155 132 l 180 160 b 393 -54 206 40 309 -54 b 485 49 444 -54 484 -11 l 488 49 b 610 0 515 18 555 0 l 620 0 l 598 136 l 589 136 b 487 189 541 136 517 159 b 265 402 402 281 332 347 z m 276 261 b 426 103 368 187 426 127 b 388 85 426 94 413 85 b 243 211 327 85 243 151 b 276 261 243 227 256 243 z "},"ن":{"ha":618,"x_min":0,"x_max":0,"o":"m 434 408 b 380 292 413 367 395 330 b 495 60 456 184 495 92 b 486 34 495 50 492 41 b 311 -41 454 -6 379 -41 b 122 141 265 -41 122 -9 b 140 238 122 168 128 202 l 99 257 b 67 97 78 201 67 148 b 322 -185 67 -58 168 -185 b 546 -60 408 -185 504 -138 b 564 62 557 -20 564 23 b 443 406 564 158 513 298 z m 151 524 b 275 438 193 498 235 469 b 328 534 298 469 315 502 b 203 622 292 566 251 595 z "},"ﻧ":{"ha":295,"x_min":0,"x_max":0,"o":"m -26 528 b 83 453 14 503 52 477 b 131 536 105 475 121 503 b 22 616 98 565 61 591 z m 119 406 b 66 300 101 376 83 340 b 155 161 106 247 155 176 b 12 136 155 151 90 136 l -3 136 b -43 85 -35 136 -43 115 b 18 0 -43 58 -33 0 l 28 0 b 161 23 90 0 132 9 b 216 92 182 33 201 53 b 228 170 224 119 228 144 b 126 405 228 254 200 293 z "},"ﻨ":{"ha":317,"x_min":0,"x_max":0,"o":"m 20 428 b 130 353 60 402 98 377 b 178 436 152 375 168 403 b 68 515 144 465 108 491 z m 314 136 l 306 136 b 230 155 277 136 252 142 b 185 240 197 174 185 203 b 189 288 185 252 186 268 l 183 292 b 135 256 164 279 149 267 b 94 159 125 225 128 182 b 7 136 75 145 52 136 l -3 136 b -43 85 -35 136 -43 115 b 18 0 -43 58 -33 0 l 28 0 b 157 74 87 0 128 26 l 159 74 b 327 0 205 12 265 0 l 336 0 z "},"ﻦ":{"ha":654,"x_min":0,"x_max":0,"o":"m 436 326 b 388 226 417 292 401 259 b 505 18 454 137 493 67 b 314 -92 498 -26 408 -92 b 126 93 210 -92 126 -26 b 142 178 126 119 131 147 l 102 197 b 75 53 84 149 75 100 b 322 -228 75 -119 185 -228 b 541 -121 418 -228 490 -191 b 562 -1 554 -85 562 -45 b 561 24 562 7 562 16 l 563 24 b 663 0 589 8 622 0 l 673 0 l 651 136 l 642 136 b 542 172 611 136 560 148 b 445 326 511 214 484 269 z m 163 443 b 288 357 205 416 248 388 b 341 453 311 388 328 420 b 216 541 304 484 264 513 z "},"ه":{"ha":472,"x_min":0,"x_max":0,"o":"m 126 403 b 56 209 85 340 56 283 b 243 -10 56 142 90 -10 b 391 72 303 -10 361 20 b 406 161 399 98 406 125 b 301 377 406 250 379 319 b 137 492 245 419 191 452 l 124 482 z m 182 326 b 345 184 279 276 333 229 b 232 127 330 149 277 127 b 117 214 168 127 117 168 b 182 326 117 243 136 279 z "},"ﻩ":{"ha":736,"x_min":0,"x_max":0,"o":"m 572 0 b 670 73 621 0 652 22 b 680 130 676 91 680 111 b 677 163 680 142 678 153 b 469 379 661 264 576 313 b 296 499 405 418 347 458 l 285 499 b 275 424 280 475 276 450 b 196 258 227 385 196 330 b 239 102 196 204 216 142 b 43 20 177 71 112 43 l 48 -2 b 204 -16 112 -11 163 -16 b 369 36 248 -16 300 -2 b 572 0 443 17 518 0 z m 357 159 b 245 248 294 181 245 216 b 328 328 245 277 287 328 b 419 227 379 328 419 256 b 357 159 419 203 398 177 z m 452 136 b 470 240 463 170 470 203 l 470 245 b 612 130 553 201 612 156 b 573 116 612 120 599 116 b 452 136 541 116 498 123 z "},"ﻫ":{"ha":622,"x_min":0,"x_max":0,"o":"m 219 43 b 458 0 313 17 395 0 b 556 73 507 0 538 22 b 566 130 562 91 566 111 b 563 163 566 142 564 153 b 355 379 547 264 463 313 b 182 499 291 418 233 458 l 171 499 b 161 424 166 475 162 450 b 83 259 113 385 83 330 b 102 146 83 221 92 183 b 7 136 55 139 25 136 l -3 136 b -43 85 -35 136 -43 115 b 18 0 -43 58 -33 0 l 28 0 b 219 43 81 0 144 12 z m 234 163 b 133 249 184 178 133 216 b 214 326 133 281 173 326 b 306 220 263 326 306 257 b 234 163 306 199 281 174 z m 339 136 b 356 239 350 169 356 203 l 356 245 b 498 130 445 199 498 153 b 459 116 498 120 485 116 b 339 136 427 116 385 123 z "},"ﻬ":{"ha":429,"x_min":0,"x_max":0,"o":"m 301 136 b 305 174 303 149 305 161 b 302 202 305 183 304 193 b 199 393 293 262 250 327 l 148 460 l 137 460 b 73 136 99 380 78 271 l -3 136 b -43 85 -35 136 -43 115 b 18 0 -43 58 -33 0 b 73 2 29 0 45 0 b 293 -224 96 -145 209 -224 b 413 -86 377 -224 413 -146 b 390 3 413 -54 404 -26 b 437 0 413 1 429 0 l 447 0 l 425 136 z m 121 136 b 146 306 127 186 135 242 l 149 306 b 241 160 200 241 241 185 b 121 136 241 140 196 136 z m 138 3 b 208 9 163 7 186 9 b 301 -31 247 9 277 -5 b 336 -98 321 -52 336 -82 b 305 -115 336 -109 324 -115 b 138 3 241 -115 161 -54 z "},"ﻪ":{"ha":476,"x_min":0,"x_max":0,"o":"m 323 77 b 485 0 362 16 401 0 l 494 0 l 473 136 l 463 136 b 382 159 423 136 406 141 b 342 280 359 180 351 223 b 298 531 326 383 313 464 l 288 534 b 230 471 267 514 248 493 l 238 435 b 68 252 159 387 92 331 b 55 176 59 225 55 199 b 203 52 55 87 121 52 b 323 77 244 52 284 61 z m 290 191 b 201 177 261 182 232 177 b 126 212 163 177 126 185 b 265 330 126 241 179 287 b 290 191 272 292 281 245 z "},"و":{"ha":488,"x_min":0,"x_max":0,"o":"m 370 53 b 290 -57 355 13 328 -24 b 132 -120 241 -97 189 -120 b 51 -104 104 -120 77 -114 l 43 -142 b 256 -218 119 -189 191 -218 b 399 -115 304 -218 352 -193 b 438 46 423 -69 438 -18 b 432 120 438 69 436 94 b 248 393 407 280 323 393 b 144 331 208 393 174 369 b 111 221 121 298 111 262 b 292 44 111 125 169 44 b 370 53 321 44 350 47 z m 357 172 b 301 168 341 169 323 168 b 166 235 229 168 166 201 b 234 280 166 256 191 280 b 357 172 275 280 330 233 z "},"ﻮ":{"ha":472,"x_min":0,"x_max":0,"o":"m 422 136 b 235 359 373 277 311 359 b 136 298 196 359 163 337 b 103 195 114 267 103 232 b 348 0 103 54 209 0 l 367 0 b 302 -86 358 -27 334 -57 b 143 -155 253 -127 201 -155 b 57 -136 113 -155 84 -147 l 47 -172 b 258 -248 127 -221 197 -248 b 439 0 364 -248 430 -123 l 490 0 l 469 136 z m 354 136 b 328 134 346 134 337 134 b 159 202 240 134 159 159 b 220 248 159 219 180 248 b 354 136 273 248 318 203 z "},"ى":{"ha":686,"x_min":0,"x_max":0,"o":"m 583 237 b 603 327 595 273 603 303 b 507 450 603 370 569 450 b 350 348 451 450 397 409 b 298 201 315 303 298 253 b 445 42 298 115 336 57 b 566 13 509 33 564 23 b 473 -51 546 -11 513 -33 b 330 -84 431 -71 380 -84 b 117 163 189 -84 117 41 b 124 217 117 182 119 200 l 83 229 b 67 117 74 197 67 160 b 343 -224 67 -94 197 -224 b 523 -167 408 -224 467 -203 b 617 -75 562 -142 594 -113 b 635 23 627 -41 635 -8 b 568 146 635 75 612 127 b 358 220 517 175 358 166 b 488 322 358 245 427 322 b 566 237 511 322 537 298 z "},"ﯨ":{"ha":295,"x_min":0,"x_max":0,"o":"m 119 406 b 66 300 101 376 83 340 b 155 161 106 247 155 176 b 12 136 155 151 90 136 l -3 136 b -43 85 -35 136 -43 115 b 18 0 -43 58 -33 0 l 28 0 b 161 23 90 0 132 9 b 216 92 182 33 201 53 b 228 170 224 119 228 144 b 126 405 228 254 200 293 z "},"ﯩ":{"ha":317,"x_min":0,"x_max":0,"o":"m 314 136 l 306 136 b 230 155 277 136 252 142 b 185 240 197 174 185 203 b 189 288 185 252 186 268 l 183 292 b 135 256 164 279 149 267 b 94 159 125 225 128 182 b 7 136 75 145 52 136 l -3 136 b -43 85 -35 136 -43 115 b 18 0 -43 58 -33 0 l 28 0 b 157 74 87 0 128 26 l 159 74 b 327 0 205 12 265 0 l 336 0 z "},"ﻰ":{"ha":695,"x_min":0,"x_max":0,"o":"m 445 136 l 399 24 l 410 12 b 614 -34 511 8 585 -5 b 371 -115 538 -94 456 -115 b 132 124 245 -115 132 -28 b 152 248 132 159 138 199 l 111 267 b 72 68 86 198 72 132 b 371 -256 72 -120 192 -256 b 665 -132 466 -256 583 -216 b 685 -47 677 -99 685 -71 b 677 0 685 -31 682 -15 l 713 0 l 692 136 z "},"ي":{"ha":686,"x_min":0,"x_max":0,"o":"m 244 -364 b 353 -448 280 -389 316 -417 b 404 -366 370 -425 389 -399 b 297 -281 370 -334 334 -306 z m 402 -353 b 511 -437 439 -378 474 -406 b 562 -355 528 -414 547 -388 b 456 -270 528 -323 492 -295 z m 583 237 b 603 327 595 273 603 303 b 507 450 603 370 569 450 b 350 348 451 450 397 409 b 298 201 315 303 298 253 b 445 42 298 115 336 57 b 566 13 509 33 564 23 b 473 -51 546 -11 513 -33 b 330 -84 431 -71 380 -84 b 117 163 189 -84 117 41 b 124 217 117 182 119 200 l 83 229 b 67 117 74 197 67 160 b 343 -224 67 -94 197 -224 b 523 -167 408 -224 467 -203 b 617 -75 562 -142 594 -113 b 635 23 627 -41 635 -8 b 568 146 635 75 612 127 b 358 220 517 175 358 166 b 488 322 358 245 427 322 b 566 237 511 322 537 298 z "},"ﻳ":{"ha":321,"x_min":0,"x_max":0,"o":"m 183 -184 b 275 -264 215 -210 245 -237 b 331 -195 299 -244 317 -221 b 240 -111 307 -168 276 -139 z m 41 -190 b 134 -271 73 -216 103 -243 b 189 -201 157 -250 176 -227 b 98 -117 164 -174 134 -145 z m 119 406 b 66 300 101 376 83 340 b 155 161 106 247 155 176 b 12 136 155 151 90 136 l -3 136 b -43 85 -35 136 -43 115 b 18 0 -43 58 -33 0 l 28 0 b 161 23 90 0 132 9 b 216 92 182 33 201 53 b 228 170 224 119 228 144 b 126 405 228 254 200 293 z "},"ﻴ":{"ha":317,"x_min":0,"x_max":0,"o":"m 195 -193 b 286 -274 226 -220 256 -246 b 342 -205 310 -254 328 -231 b 252 -121 317 -177 287 -149 z m 52 -199 b 144 -280 83 -226 114 -252 b 200 -211 168 -260 186 -237 b 109 -127 175 -183 145 -155 z m 314 136 l 306 136 b 230 155 277 136 252 142 b 185 240 197 174 185 203 b 189 288 185 252 186 268 l 183 292 b 135 256 164 279 149 267 b 94 159 125 225 128 182 b 7 136 75 145 52 136 l -3 136 b -43 85 -35 136 -43 115 b 18 0 -43 58 -33 0 l 28 0 b 157 74 87 0 128 26 l 159 74 b 327 0 205 12 265 0 l 336 0 z "},"ﻲ":{"ha":695,"x_min":0,"x_max":0,"o":"m 256 -386 b 364 -469 292 -411 328 -439 b 416 -387 382 -447 400 -420 b 309 -302 381 -355 346 -328 z m 414 -375 b 523 -458 450 -400 486 -428 b 574 -376 540 -436 558 -410 b 467 -292 540 -345 504 -317 z m 445 136 l 399 24 l 410 12 b 614 -34 511 8 585 -5 b 371 -115 538 -94 456 -115 b 132 124 245 -115 132 -28 b 152 248 132 159 138 199 l 111 267 b 72 68 86 198 72 132 b 371 -256 72 -120 192 -256 b 665 -132 466 -256 583 -216 b 685 -47 677 -99 685 -71 b 677 0 685 -31 682 -15 l 713 0 l 692 136 z "},"ٱ":{"ha":311,"x_min":0,"x_max":0,"o":"m -66 711 b -37 745 -54 730 -42 745 b 78 721 -26 745 16 721 b 164 816 154 721 164 785 b 83 909 164 880 114 909 b -26 821 34 909 5 872 b -56 831 -41 827 -50 831 b -90 784 -66 831 -77 818 l -79 718 z m 5 806 b 75 850 22 832 45 850 b 129 808 99 850 120 835 b 83 789 124 795 107 789 b 5 806 60 789 34 795 z m 164 -19 b 207 60 183 8 197 35 b 213 104 211 68 213 83 b 197 261 213 140 207 193 b 115 676 176 393 152 530 l 102 682 b 38 596 81 657 60 629 b 130 155 77 448 107 302 b 147 -8 140 90 146 40 z "},"ﭑ":{"ha":300,"x_min":0,"x_max":0,"o":"m -68 716 b -38 750 -54 735 -43 750 b 77 726 -28 750 16 726 b 163 820 153 726 163 789 b 162 836 163 827 163 833 b 83 915 153 895 110 915 b -27 826 33 915 4 878 b -57 836 -41 833 -51 836 b -90 789 -67 836 -78 823 l -79 724 z m 4 812 b 75 856 22 838 45 856 b 128 813 98 856 119 840 b 82 795 123 800 106 795 b 4 812 60 795 33 801 z m 297 136 l 288 136 b 184 227 226 136 195 159 b 160 389 176 282 171 318 b 100 693 144 484 125 595 l 90 698 b 23 623 66 675 44 650 b 118 179 67 456 105 256 b 307 0 141 47 215 0 l 319 0 z "},"ٲ":{"ha":370,"x_min":0,"x_max":0,"o":"m 161 838 b 170 871 168 850 170 861 b 117 920 170 895 151 920 b 44 887 91 920 66 908 b 14 823 24 868 14 844 b 62 753 14 793 31 772 l 58 747 b -25 772 20 747 12 772 b -83 712 -51 772 -73 747 l -69 696 b -43 705 -60 702 -52 705 b 26 682 -22 705 -2 682 b 142 738 72 682 93 728 b 193 748 161 743 176 745 b 218 808 203 768 211 788 l 213 814 b 146 808 191 811 169 808 b 60 845 80 808 60 835 b 108 864 60 850 81 864 b 152 838 123 864 136 852 z m 205 -19 b 248 60 224 8 238 35 b 254 104 252 68 254 83 b 238 261 254 140 248 193 b 157 676 217 393 193 530 l 144 682 b 79 596 122 657 101 629 b 172 155 119 448 149 302 b 189 -8 182 90 188 40 z "},"ٳ":{"ha":338,"x_min":0,"x_max":0,"o":"m 303 -119 b 312 -85 309 -106 312 -95 b 259 -36 312 -61 292 -36 b 186 -69 233 -36 208 -48 b 156 -133 165 -88 156 -112 b 204 -203 156 -163 172 -184 l 200 -209 b 117 -184 162 -209 153 -184 b 59 -244 91 -184 68 -210 l 73 -260 b 99 -251 81 -254 90 -251 b 168 -275 120 -251 140 -275 b 284 -218 214 -275 235 -228 b 335 -208 302 -214 318 -211 b 359 -148 345 -188 353 -168 l 355 -142 b 288 -148 332 -145 311 -148 b 201 -111 222 -148 201 -121 b 250 -92 201 -106 223 -92 b 294 -119 264 -92 278 -104 z m 182 -19 b 224 60 201 8 214 35 b 231 104 229 68 231 83 b 214 261 231 140 224 193 b 133 676 193 393 170 530 l 120 682 b 56 596 98 657 77 629 b 148 155 95 448 125 302 b 165 -8 158 90 164 40 z "},"ٴ":{"ha":281,"x_min":0,"x_max":0,"o":"m 77 826 b 90 869 85 842 90 856 b 35 914 90 896 66 914 b -43 878 6 914 -21 901 b -75 810 -65 855 -75 830 b -24 747 -75 780 -55 760 b -43 696 -31 731 -37 714 l -33 688 b 127 737 0 712 56 728 b 147 792 136 755 142 774 l 143 798 b 75 796 119 797 100 796 b -19 833 18 796 -19 816 b 23 856 -19 844 -1 856 b 47 846 32 856 40 853 l 68 826 z "},"ٵ":{"ha":397,"x_min":0,"x_max":0,"o":"m 205 826 b 218 869 214 842 218 856 b 163 914 218 896 195 914 b 85 878 134 914 107 901 b 53 810 63 855 53 830 b 104 747 53 780 73 760 b 85 696 97 731 91 714 l 95 688 b 256 737 128 712 184 728 b 275 792 264 755 271 774 l 271 798 b 203 796 248 797 229 796 b 109 833 146 796 109 816 b 151 856 109 844 127 856 b 175 846 160 856 168 853 l 197 826 z m 103 -19 b 146 60 122 8 136 35 b 152 104 150 68 152 83 b 136 261 152 140 146 193 b 54 676 115 393 91 530 l 41 682 b -23 596 20 657 -1 629 b 69 155 16 448 46 302 b 86 -8 79 90 85 40 z "},"ٶ":{"ha":602,"x_min":0,"x_max":0,"o":"m 451 569 b 463 612 459 585 463 599 b 408 657 463 639 440 657 b 330 621 380 657 353 644 b 298 553 309 598 298 573 b 349 490 298 523 319 503 b 331 439 342 474 336 457 l 340 431 b 501 480 374 455 429 471 b 521 535 509 498 516 517 l 517 541 b 449 539 493 540 474 539 b 355 576 392 539 355 559 b 397 599 355 587 372 599 b 420 589 406 599 414 596 l 442 569 z m 370 53 b 290 -57 355 13 328 -24 b 132 -120 241 -97 189 -120 b 51 -104 104 -120 77 -114 l 43 -142 b 256 -218 119 -189 191 -218 b 399 -115 304 -218 352 -193 b 438 46 423 -69 438 -18 b 432 120 438 69 436 94 b 248 393 407 280 323 393 b 144 331 208 393 174 369 b 111 221 121 298 111 262 b 292 44 111 125 169 44 b 370 53 321 44 350 47 z m 357 172 b 301 168 341 169 323 168 b 166 235 229 168 166 201 b 234 280 166 256 191 280 b 357 172 275 280 330 233 z "},"ٷ":{"ha":615,"x_min":0,"x_max":0,"o":"m 229 549 b 205 558 221 553 212 557 b 126 692 208 621 180 692 b 59 663 99 692 77 680 b 33 597 41 641 33 617 b 120 513 33 553 63 526 b -24 446 86 492 33 469 l -20 439 b 57 417 6 429 32 422 b 174 492 101 437 143 458 b 195 486 181 492 189 489 b 229 549 208 503 219 523 z m 167 569 b 75 623 122 579 75 591 b 105 640 75 631 81 640 b 167 569 135 640 159 606 z m 465 569 b 477 612 473 585 477 599 b 422 657 477 639 454 657 b 344 621 393 657 366 644 b 312 553 322 598 312 573 b 363 490 312 523 332 503 b 345 439 356 474 350 457 l 354 431 b 515 480 387 455 443 471 b 534 535 523 498 530 517 l 530 541 b 463 539 507 540 488 539 b 368 576 406 539 368 559 b 410 599 368 587 386 599 b 434 589 419 599 427 596 l 456 569 z m 370 53 b 290 -57 355 13 328 -24 b 132 -120 241 -97 189 -120 b 51 -104 104 -120 77 -114 l 43 -142 b 256 -218 119 -189 191 -218 b 399 -115 304 -218 352 -193 b 438 46 423 -69 438 -18 b 432 120 438 69 436 94 b 248 393 407 280 323 393 b 144 331 208 393 174 369 b 111 221 121 298 111 262 b 292 44 111 125 169 44 b 370 53 321 44 350 47 z m 357 172 b 301 168 341 169 323 168 b 166 235 229 168 166 201 b 234 280 166 256 191 280 b 357 172 275 280 330 233 z "},"ٸ":{"ha":832,"x_min":0,"x_max":0,"o":"m 671 635 b 684 678 680 651 684 665 b 629 724 684 705 661 724 b 551 688 600 724 573 710 b 519 619 529 665 519 640 b 570 557 519 589 539 570 b 551 506 563 541 557 524 l 561 498 b 722 547 594 522 650 537 b 741 602 730 565 736 583 l 737 608 b 669 606 713 606 694 606 b 575 643 612 606 575 625 b 617 665 575 653 593 665 b 641 656 626 665 634 663 l 663 635 z m 583 237 b 603 327 595 273 603 303 b 507 450 603 370 569 450 b 350 348 451 450 397 409 b 298 201 315 303 298 253 b 445 42 298 115 336 57 b 566 13 509 33 564 23 b 473 -51 546 -11 513 -33 b 330 -84 431 -71 380 -84 b 117 163 189 -84 117 41 b 124 217 117 182 119 200 l 83 229 b 67 117 74 197 67 160 b 343 -224 67 -94 197 -224 b 523 -167 408 -224 467 -203 b 617 -75 562 -142 594 -113 b 635 23 627 -41 635 -8 b 568 146 635 75 612 127 b 358 220 517 175 358 166 b 488 322 358 245 427 322 b 566 237 511 322 537 298 z "},"ٹ":{"ha":883,"x_min":0,"x_max":0,"o":"m 317 421 l 356 421 b 511 532 460 421 511 452 b 430 629 511 579 477 629 b 338 562 392 629 362 604 l 337 564 b 338 575 338 566 338 570 b 332 633 338 587 336 607 l 357 661 b 313 739 336 690 317 718 l 308 741 b 271 686 283 721 271 703 b 271 679 271 683 271 681 b 285 631 273 664 280 649 b 302 549 293 604 298 576 b 305 516 304 536 305 526 b 303 496 305 509 304 502 b 234 499 277 496 255 497 l 229 486 z m 338 494 b 418 559 359 532 385 559 b 475 526 445 559 463 547 b 338 494 448 505 401 496 z m 703 411 b 653 305 684 379 668 342 b 743 165 694 248 725 200 b 437 112 705 144 553 112 b 103 328 210 112 103 203 b 108 380 103 344 105 361 l 64 395 b 47 278 52 355 47 316 b 179 27 47 174 93 75 b 427 -29 237 -5 313 -29 b 782 54 554 -29 695 2 b 814 190 804 87 814 145 b 812 222 814 201 813 212 b 709 412 806 258 766 338 z "},"ﭨ":{"ha":306,"x_min":0,"x_max":0,"o":"m -2 451 l 37 451 b 191 562 141 451 191 481 b 111 659 191 609 157 659 b 19 591 73 659 43 634 l 18 593 b 18 605 18 596 18 600 b 13 663 18 617 17 637 l 38 691 b -7 768 16 720 -2 748 l -12 770 b -49 715 -37 751 -49 733 b -48 709 -49 713 -49 711 b -35 661 -46 694 -39 679 b -18 578 -26 633 -22 606 b -14 546 -16 566 -14 555 b -16 526 -14 538 -15 532 b -85 529 -43 526 -64 527 l -90 515 z m 18 524 b 99 589 40 562 65 589 b 155 555 125 589 143 577 b 18 524 129 534 82 526 z m 119 406 b 66 300 101 376 83 340 b 155 161 106 247 155 176 b 12 136 155 151 90 136 l -3 136 b -43 85 -35 136 -43 115 b 18 0 -43 58 -33 0 l 28 0 b 161 23 90 0 132 9 b 216 92 182 33 201 53 b 228 170 224 119 228 144 b 126 405 228 254 200 293 z "},"ﭩ":{"ha":317,"x_min":0,"x_max":0,"o":"m 33 356 l 72 356 b 227 467 176 356 227 387 b 146 564 227 514 193 564 b 54 496 108 564 78 539 l 53 498 b 54 510 54 501 54 505 b 48 568 54 522 52 542 l 73 596 b 28 673 52 625 33 653 l 24 675 b -14 621 -1 656 -14 638 b -13 614 -14 618 -14 616 b 1 566 -11 599 -4 584 b 18 484 9 538 14 511 b 21 451 20 471 21 460 b 19 431 21 444 20 437 b -50 434 -7 431 -29 432 l -55 420 z m 54 429 b 134 494 75 467 100 494 b 191 460 161 494 178 482 b 54 429 164 439 117 431 z m 314 136 l 306 136 b 230 155 277 136 252 142 b 185 240 197 174 185 203 b 189 288 185 252 186 268 l 183 292 b 135 256 164 279 149 267 b 94 159 125 225 128 182 b 7 136 75 145 52 136 l -3 136 b -43 85 -35 136 -43 115 b 18 0 -43 58 -33 0 l 28 0 b 157 74 87 0 128 26 l 159 74 b 327 0 205 12 265 0 l 336 0 z "},"ﭧ":{"ha":928,"x_min":0,"x_max":0,"o":"m 343 414 l 382 414 b 536 526 486 414 536 445 b 456 623 536 572 503 623 b 364 555 418 623 388 597 l 363 557 b 363 568 363 559 363 564 b 358 626 363 581 362 600 l 383 654 b 338 732 361 684 343 711 l 334 734 b 296 679 309 714 296 696 b 297 672 296 676 296 674 b 311 624 299 657 306 642 b 328 542 319 597 323 569 b 331 509 330 529 331 519 b 329 489 331 502 330 495 b 260 492 302 489 281 490 l 255 479 z m 363 488 b 444 553 385 526 410 553 b 500 519 471 553 488 541 b 363 488 474 498 427 489 z m 924 136 l 915 136 b 798 224 848 136 798 163 b 804 284 798 240 800 262 l 796 290 b 748 253 782 280 766 268 l 730 165 b 437 111 650 132 531 111 b 103 328 210 111 103 203 b 108 380 103 344 105 361 l 64 395 b 47 278 52 355 47 316 b 179 27 47 174 93 75 b 427 -30 237 -5 313 -30 b 782 55 551 -30 674 4 l 784 55 b 937 0 819 16 871 0 l 946 0 z "},"ٺ":{"ha":883,"x_min":0,"x_max":0,"o":"m 292 492 b 402 416 332 467 371 441 b 450 500 425 439 440 467 b 340 580 417 528 380 555 z m 244 659 b 355 584 284 634 322 608 b 403 667 377 606 392 635 b 292 747 369 695 333 723 z m 703 411 b 653 305 684 379 668 342 b 743 165 694 248 725 200 b 437 112 705 144 553 112 b 103 328 210 112 103 203 b 108 380 103 344 105 361 l 64 395 b 47 278 52 355 47 316 b 179 27 47 174 93 75 b 427 -29 237 -5 313 -29 b 782 54 554 -29 695 2 b 814 190 804 87 814 145 b 812 222 814 201 813 212 b 709 412 806 258 766 338 z "},"ﭠ":{"ha":306,"x_min":0,"x_max":0,"o":"m -24 511 b 81 439 15 487 50 463 b 125 519 102 460 117 488 b 22 594 94 545 60 571 z m -68 667 b 35 595 -31 643 6 618 b 81 675 57 616 71 644 b -23 750 50 701 16 727 z m 119 406 b 66 300 101 376 83 340 b 155 161 106 247 155 176 b 12 136 155 151 90 136 l -3 136 b -43 85 -35 136 -43 115 b 18 0 -43 58 -33 0 l 28 0 b 161 23 90 0 132 9 b 216 92 182 33 201 53 b 228 170 224 119 228 144 b 126 405 228 254 200 293 z "},"ﭡ":{"ha":317,"x_min":0,"x_max":0,"o":"m 31 416 b 136 345 70 392 106 368 b 182 424 157 366 172 393 b 77 499 150 450 115 476 z m -13 572 b 92 500 25 548 61 524 b 136 580 113 522 127 549 b 33 655 105 606 71 632 z m 314 136 l 306 136 b 230 155 277 136 252 142 b 185 240 197 174 185 203 b 189 288 185 252 186 268 l 183 292 b 135 256 164 279 149 267 b 94 159 125 225 128 182 b 7 136 75 145 52 136 l -3 136 b -43 85 -35 136 -43 115 b 18 0 -43 58 -33 0 l 28 0 b 157 74 87 0 128 26 l 159 74 b 327 0 205 12 265 0 l 336 0 z "},"ﭟ":{"ha":928,"x_min":0,"x_max":0,"o":"m 327 485 b 437 410 367 460 406 434 b 485 493 460 432 475 460 b 375 573 452 522 415 549 z m 279 652 b 390 577 319 627 357 602 b 437 661 412 599 427 628 b 328 740 404 688 368 716 z m 924 136 l 915 136 b 798 224 848 136 798 163 b 804 284 798 240 800 262 l 796 290 b 748 253 782 280 766 268 l 730 165 b 437 111 650 132 531 111 b 103 328 210 111 103 203 b 108 380 103 344 105 361 l 64 395 b 47 278 52 355 47 316 b 179 27 47 174 93 75 b 427 -30 237 -5 313 -30 b 782 55 551 -30 674 4 l 784 55 b 937 0 819 16 871 0 l 946 0 z "},"ٻ":{"ha":883,"x_min":0,"x_max":0,"o":"m 450 -336 b 560 -411 490 -361 529 -387 b 608 -328 583 -389 599 -360 b 498 -248 575 -299 538 -272 z m 402 -168 b 513 -243 443 -193 481 -219 b 561 -160 535 -222 550 -193 b 450 -81 527 -132 491 -104 z m 703 411 b 653 305 684 379 668 342 b 743 165 694 248 725 200 b 437 112 705 144 553 112 b 103 328 210 112 103 203 b 108 380 103 344 105 361 l 64 395 b 47 278 52 355 47 316 b 179 27 47 174 93 75 b 427 -29 237 -5 313 -29 b 782 54 554 -29 695 2 b 814 190 804 87 814 145 b 812 222 814 201 813 212 b 709 412 806 258 766 338 z "},"ﭔ":{"ha":306,"x_min":0,"x_max":0,"o":"m 125 -303 b 230 -374 163 -327 200 -351 b 275 -295 251 -353 266 -326 b 171 -220 243 -269 209 -243 z m 80 -147 b 184 -218 118 -171 155 -195 b 230 -139 206 -197 220 -170 b 125 -64 199 -113 164 -87 z m 119 406 b 66 300 101 376 83 340 b 155 161 106 247 155 176 b 12 136 155 151 90 136 l -3 136 b -43 85 -35 136 -43 115 b 18 0 -43 58 -33 0 l 28 0 b 161 23 90 0 132 9 b 216 92 182 33 201 53 b 228 170 224 119 228 144 b 126 405 228 254 200 293 z "},"ﭕ":{"ha":317,"x_min":0,"x_max":0,"o":"m 160 -310 b 265 -381 198 -334 235 -358 b 310 -302 286 -360 300 -333 b 205 -227 279 -275 244 -250 z m 115 -154 b 220 -225 153 -178 190 -202 b 265 -146 241 -204 256 -177 b 161 -71 233 -119 199 -94 z m 314 136 l 306 136 b 230 155 277 136 252 142 b 185 240 197 174 185 203 b 189 288 185 252 186 268 l 183 292 b 135 256 164 279 149 267 b 94 159 125 225 128 182 b 7 136 75 145 52 136 l -3 136 b -43 85 -35 136 -43 115 b 18 0 -43 58 -33 0 l 28 0 b 157 74 87 0 128 26 l 159 74 b 327 0 205 12 265 0 l 336 0 z "},"ﭓ":{"ha":928,"x_min":0,"x_max":0,"o":"m 450 -336 b 560 -411 490 -361 529 -387 b 608 -328 583 -389 599 -360 b 498 -248 575 -299 538 -272 z m 402 -168 b 513 -243 443 -193 481 -219 b 561 -160 535 -222 550 -193 b 450 -81 527 -132 491 -104 z m 924 136 l 915 136 b 798 224 848 136 798 163 b 804 284 798 240 800 262 l 796 290 b 748 253 782 280 766 268 l 730 165 b 437 111 650 132 531 111 b 103 328 210 111 103 203 b 108 380 103 344 105 361 l 64 395 b 47 278 52 355 47 316 b 179 27 47 174 93 75 b 427 -30 237 -5 313 -30 b 782 55 551 -30 674 4 l 784 55 b 937 0 819 16 871 0 l 946 0 z "},"ټ":{"ha":883,"x_min":0,"x_max":0,"o":"m 703 411 b 653 305 684 379 668 342 b 743 165 694 248 725 200 b 437 112 705 144 553 112 b 103 328 210 112 103 203 b 108 380 103 344 105 361 l 64 395 b 47 278 52 355 47 316 b 179 27 47 174 93 75 b 380 -28 229 -1 292 -22 b 365 -82 370 -43 365 -62 b 467 -184 365 -138 410 -184 b 568 -82 523 -184 568 -138 b 547 -20 568 -61 560 -37 b 782 54 637 -7 722 18 b 814 190 804 87 814 145 b 812 222 814 201 813 212 b 709 412 806 258 766 338 z m 377 515 b 490 428 414 489 452 460 b 543 513 509 456 528 484 b 433 600 509 543 472 572 z m 214 507 b 327 419 251 480 289 451 b 380 504 347 447 365 475 b 271 591 346 534 309 563 z m 412 -82 b 466 -27 412 -52 436 -27 b 521 -82 496 -27 521 -52 b 467 -136 521 -112 496 -136 b 412 -82 437 -136 412 -112 z "},"ٽ":{"ha":883,"x_min":0,"x_max":0,"o":"m 183 621 b 291 536 218 595 255 566 b 342 618 311 563 328 589 b 237 702 310 646 275 675 z m 340 629 b 448 545 376 604 412 575 b 500 626 467 571 485 598 b 395 711 467 655 431 683 z m 311 469 b 420 385 347 444 384 415 b 472 467 439 412 456 438 b 366 551 438 495 403 524 z m 703 411 b 653 305 684 379 668 342 b 743 165 694 248 725 200 b 437 112 705 144 553 112 b 103 328 210 112 103 203 b 108 380 103 344 105 361 l 64 395 b 47 278 52 355 47 316 b 179 27 47 174 93 75 b 427 -29 237 -5 313 -29 b 782 54 554 -29 695 2 b 814 190 804 87 814 145 b 812 222 814 201 813 212 b 709 412 806 258 766 338 z "},"پ":{"ha":883,"x_min":0,"x_max":0,"o":"m 343 -180 b 452 -264 378 -205 416 -234 b 503 -182 471 -237 489 -211 b 397 -98 470 -154 435 -125 z m 501 -172 b 608 -256 536 -197 572 -225 b 661 -174 628 -229 646 -202 b 555 -90 627 -145 592 -117 z m 472 -332 b 581 -416 508 -357 544 -385 b 632 -334 600 -389 617 -362 b 527 -250 599 -305 564 -277 z m 703 411 b 653 305 684 379 668 342 b 743 165 694 248 725 200 b 437 112 705 144 553 112 b 103 328 210 112 103 203 b 108 380 103 344 105 361 l 64 395 b 47 278 52 355 47 316 b 179 27 47 174 93 75 b 427 -29 237 -5 313 -29 b 782 54 554 -29 695 2 b 814 190 804 87 814 145 b 812 222 814 201 813 212 b 709 412 806 258 766 338 z "},"ﭘ":{"ha":321,"x_min":0,"x_max":0,"o":"m 183 -184 b 275 -264 215 -210 245 -237 b 331 -195 299 -244 317 -221 b 240 -111 307 -168 276 -139 z m 41 -190 b 134 -271 73 -216 103 -243 b 189 -201 157 -250 176 -227 b 98 -117 164 -174 134 -145 z m 153 -333 b 245 -414 184 -359 215 -386 b 300 -345 268 -393 287 -370 b 210 -260 275 -317 245 -288 z m 119 406 b 66 300 101 376 83 340 b 155 161 106 247 155 176 b 12 136 155 151 90 136 l -3 136 b -43 85 -35 136 -43 115 b 18 0 -43 58 -33 0 l 28 0 b 161 23 90 0 132 9 b 216 92 182 33 201 53 b 228 170 224 119 228 144 b 126 405 228 254 200 293 z "},"ﭙ":{"ha":317,"x_min":0,"x_max":0,"o":"m 195 -193 b 286 -274 226 -220 256 -246 b 342 -205 310 -254 328 -231 b 252 -121 317 -177 287 -149 z m 52 -199 b 144 -280 83 -226 114 -252 b 200 -211 168 -260 186 -237 b 109 -127 175 -183 145 -155 z m 163 -342 b 256 -423 195 -369 226 -395 b 311 -354 279 -403 298 -380 b 221 -270 287 -326 256 -298 z m 314 136 l 306 136 b 230 155 277 136 252 142 b 185 240 197 174 185 203 b 189 288 185 252 186 268 l 183 292 b 135 256 164 279 149 267 b 94 159 125 225 128 182 b 7 136 75 145 52 136 l -3 136 b -43 85 -35 136 -43 115 b 18 0 -43 58 -33 0 l 28 0 b 157 74 87 0 128 26 l 159 74 b 327 0 205 12 265 0 l 336 0 z "},"ﭗ":{"ha":928,"x_min":0,"x_max":0,"o":"m 343 -180 b 452 -264 378 -205 416 -234 b 503 -182 471 -237 489 -211 b 397 -98 470 -154 435 -125 z m 501 -172 b 608 -256 536 -197 572 -225 b 661 -174 628 -229 646 -202 b 555 -90 627 -145 592 -117 z m 472 -332 b 581 -416 508 -357 544 -385 b 632 -334 600 -389 617 -362 b 527 -250 599 -305 564 -277 z m 924 136 l 915 136 b 798 224 848 136 798 163 b 804 284 798 240 800 262 l 796 290 b 748 253 782 280 766 268 l 730 165 b 437 111 650 132 531 111 b 103 328 210 111 103 203 b 108 380 103 344 105 361 l 64 395 b 47 278 52 355 47 316 b 179 27 47 174 93 75 b 427 -30 237 -5 313 -30 b 782 55 551 -30 674 4 l 784 55 b 937 0 819 16 871 0 l 946 0 z "},"ٿ":{"ha":883,"x_min":0,"x_max":0,"o":"m 382 499 b 476 417 414 473 445 446 b 533 488 500 438 519 461 b 441 574 507 516 477 545 z m 235 493 b 330 411 267 467 298 439 b 386 481 353 432 372 455 b 294 567 360 510 330 539 z m 333 657 b 427 575 365 630 397 603 b 484 646 450 595 470 619 b 391 731 458 673 427 703 z m 186 651 b 280 568 218 624 250 597 b 336 639 304 589 323 613 b 244 725 312 667 281 696 z m 703 411 b 653 305 684 379 668 342 b 743 165 694 248 725 200 b 437 112 705 144 553 112 b 103 328 210 112 103 203 b 108 380 103 344 105 361 l 64 395 b 47 278 52 355 47 316 b 179 27 47 174 93 75 b 427 -29 237 -5 313 -29 b 782 54 554 -29 695 2 b 814 190 804 87 814 145 b 812 222 814 201 813 212 b 709 412 806 258 766 338 z "},"ﭤ":{"ha":306,"x_min":0,"x_max":0,"o":"m 65 511 b 157 431 96 485 127 458 b 213 500 180 451 199 474 b 122 584 188 528 158 556 z m -78 505 b 14 425 -47 479 -16 452 b 68 494 37 445 55 468 b -21 578 44 522 14 550 z m 18 666 b 109 585 48 640 79 613 b 165 654 132 606 151 629 b 74 739 140 682 110 711 z m -127 660 b -35 579 -95 633 -64 607 b 20 648 -12 600 7 623 b -70 732 -3 676 -34 705 z m 119 406 b 66 300 101 376 83 340 b 155 161 106 247 155 176 b 12 136 155 151 90 136 l -3 136 b -43 85 -35 136 -43 115 b 18 0 -43 58 -33 0 l 28 0 b 161 23 90 0 132 9 b 216 92 182 33 201 53 b 228 170 224 119 228 144 b 126 405 228 254 200 293 z "},"ﭥ":{"ha":317,"x_min":0,"x_max":0,"o":"m 98 430 b 191 349 130 404 160 377 b 246 418 214 370 233 393 b 155 503 221 446 191 475 z m -45 424 b 46 343 -14 397 17 371 b 102 412 70 363 88 387 b 12 496 77 440 47 469 z m 50 585 b 142 504 81 558 112 532 b 198 573 165 524 184 547 b 107 657 173 601 143 629 z m -94 578 b -1 498 -62 552 -31 526 b 54 567 21 518 40 541 b -37 651 29 595 -1 623 z m 314 136 l 306 136 b 230 155 277 136 252 142 b 185 240 197 174 185 203 b 189 288 185 252 186 268 l 183 292 b 135 256 164 279 149 267 b 94 159 125 225 128 182 b 7 136 75 145 52 136 l -3 136 b -43 85 -35 136 -43 115 b 18 0 -43 58 -33 0 l 28 0 b 157 74 87 0 128 26 l 159 74 b 327 0 205 12 265 0 l 336 0 z "},"ﭣ":{"ha":928,"x_min":0,"x_max":0,"o":"m 418 486 b 512 404 450 459 481 432 b 569 474 536 425 555 448 b 477 560 543 503 513 532 z m 272 479 b 366 397 303 453 334 426 b 422 468 389 418 408 441 b 330 553 397 496 366 526 z m 369 644 b 463 562 401 616 433 589 b 519 632 487 582 506 606 b 427 718 494 660 464 689 z m 222 637 b 316 555 254 610 286 583 b 372 625 340 576 359 600 b 280 711 348 654 317 683 z m 924 136 l 915 136 b 798 224 848 136 798 163 b 804 284 798 240 800 262 l 796 290 b 748 253 782 280 766 268 l 730 165 b 437 111 650 132 531 111 b 103 328 210 111 103 203 b 108 380 103 344 105 361 l 64 395 b 47 278 52 355 47 316 b 179 27 47 174 93 75 b 427 -30 237 -5 313 -30 b 782 55 551 -30 674 4 l 784 55 b 937 0 819 16 871 0 l 946 0 z "},"ڀ":{"ha":883,"x_min":0,"x_max":0,"o":"m 530 -308 b 625 -390 563 -334 593 -361 b 681 -319 648 -369 667 -346 b 589 -233 655 -291 625 -262 z m 384 -314 b 477 -396 415 -340 446 -368 b 534 -326 501 -375 520 -352 b 442 -240 509 -297 478 -268 z m 481 -150 b 575 -232 513 -177 545 -204 b 631 -161 599 -212 618 -188 b 539 -76 607 -134 576 -104 z m 334 -156 b 428 -239 366 -183 398 -210 b 485 -168 452 -218 471 -194 b 393 -82 460 -140 429 -111 z m 703 411 b 653 305 684 379 668 342 b 743 165 694 248 725 200 b 437 112 705 144 553 112 b 103 328 210 112 103 203 b 108 380 103 344 105 361 l 64 395 b 47 278 52 355 47 316 b 179 27 47 174 93 75 b 427 -29 237 -5 313 -29 b 782 54 554 -29 695 2 b 814 190 804 87 814 145 b 812 222 814 201 813 212 b 709 412 806 258 766 338 z "},"ﭜ":{"ha":324,"x_min":0,"x_max":0,"o":"m 225 -330 b 317 -410 257 -356 288 -382 b 373 -341 341 -390 359 -367 b 283 -257 349 -313 318 -285 z m 81 -336 b 174 -416 113 -362 143 -389 b 229 -347 197 -396 216 -373 b 138 -263 204 -319 174 -291 z m 177 -175 b 269 -256 209 -201 239 -228 b 325 -186 292 -235 311 -212 b 234 -102 300 -159 270 -130 z m 33 -181 b 125 -262 64 -208 95 -234 b 180 -193 149 -241 167 -218 b 90 -109 156 -165 125 -136 z m 119 406 b 66 300 101 376 83 340 b 155 161 106 247 155 176 b 12 136 155 151 90 136 l -3 136 b -43 85 -35 136 -43 115 b 18 0 -43 58 -33 0 l 28 0 b 161 23 90 0 132 9 b 216 92 182 33 201 53 b 228 170 224 119 228 144 b 126 405 228 254 200 293 z "},"ﭝ":{"ha":317,"x_min":0,"x_max":0,"o":"m 244 -348 b 336 -429 275 -374 306 -401 b 391 -359 359 -408 378 -385 b 301 -275 367 -332 336 -303 z m 100 -354 b 192 -435 131 -380 162 -407 b 248 -366 215 -414 234 -391 b 157 -281 222 -338 193 -309 z m 196 -193 b 288 -274 227 -220 258 -246 b 343 -205 311 -254 330 -231 b 253 -121 319 -177 288 -149 z m 52 -199 b 144 -280 83 -226 113 -252 b 199 -211 167 -260 186 -237 b 109 -127 174 -183 144 -155 z m 314 136 l 306 136 b 230 155 277 136 252 142 b 185 240 197 174 185 203 b 189 288 185 252 186 268 l 183 292 b 135 256 164 279 149 267 b 94 159 125 225 128 182 b 7 136 75 145 52 136 l -3 136 b -43 85 -35 136 -43 115 b 18 0 -43 58 -33 0 l 28 0 b 157 74 87 0 128 26 l 159 74 b 327 0 205 12 265 0 l 336 0 z "},"ﭛ":{"ha":928,"x_min":0,"x_max":0,"o":"m 530 -308 b 625 -390 563 -334 593 -361 b 681 -319 648 -369 667 -346 b 589 -233 655 -291 625 -262 z m 384 -314 b 477 -396 415 -340 446 -368 b 534 -326 501 -375 520 -352 b 442 -240 509 -297 478 -268 z m 481 -150 b 575 -232 513 -177 545 -204 b 631 -161 599 -212 618 -188 b 539 -76 607 -134 576 -104 z m 334 -156 b 428 -239 366 -183 398 -210 b 485 -168 452 -218 471 -194 b 393 -82 460 -140 429 -111 z m 924 136 l 915 136 b 798 224 848 136 798 163 b 804 284 798 240 800 262 l 796 290 b 748 253 782 280 766 268 l 730 165 b 437 111 650 132 531 111 b 103 328 210 111 103 203 b 108 380 103 344 105 361 l 64 395 b 47 278 52 355 47 316 b 179 27 47 174 93 75 b 427 -30 237 -5 313 -30 b 782 55 551 -30 674 4 l 784 55 b 937 0 819 16 871 0 l 946 0 z "},"ݐ":{"ha":883,"x_min":0,"x_max":0,"o":"m 421 -215 b 528 -302 457 -241 492 -270 b 582 -222 546 -279 566 -254 b 477 -134 549 -189 514 -160 z m 263 -222 b 370 -309 299 -248 334 -277 b 425 -229 388 -286 408 -261 b 319 -141 391 -196 356 -167 z m 577 -208 b 684 -295 613 -234 648 -263 b 739 -215 702 -273 722 -248 b 633 -127 705 -182 670 -153 z m 703 411 b 653 305 684 379 668 342 b 743 165 694 248 725 200 b 437 112 705 144 553 112 b 103 328 210 112 103 203 b 108 380 103 344 105 361 l 64 395 b 47 278 52 355 47 316 b 179 27 47 174 93 75 b 427 -29 237 -5 313 -29 b 782 54 554 -29 695 2 b 814 190 804 87 814 145 b 812 222 814 201 813 212 b 709 412 806 258 766 338 z "},"ݑ":{"ha":883,"x_min":0,"x_max":0,"o":"m 210 493 b 322 406 247 467 284 437 b 376 490 342 433 360 461 b 267 578 341 520 304 549 z m 372 502 b 485 414 409 475 447 446 b 538 499 505 442 523 470 b 429 587 504 529 467 558 z m 237 666 b 349 578 273 640 311 610 b 403 663 369 606 387 634 b 293 751 368 693 332 722 z m 410 -216 b 535 -302 452 -242 494 -271 b 589 -205 559 -271 576 -238 b 463 -117 552 -174 511 -144 z m 703 411 b 653 305 684 379 668 342 b 743 165 694 248 725 200 b 437 112 705 144 553 112 b 103 328 210 112 103 203 b 108 380 103 344 105 361 l 64 395 b 47 278 52 355 47 316 b 179 27 47 174 93 75 b 427 -29 237 -5 313 -29 b 782 54 554 -29 695 2 b 814 190 804 87 814 145 b 812 222 814 201 813 212 b 709 412 806 258 766 338 z "},"ݒ":{"ha":883,"x_min":0,"x_max":0,"o":"m 377 -348 b 489 -435 414 -374 452 -404 b 543 -351 509 -408 527 -380 b 433 -263 508 -321 472 -292 z m 540 -339 b 652 -427 576 -366 614 -395 b 705 -342 672 -399 690 -371 b 596 -254 671 -312 635 -283 z m 404 -175 b 516 -262 441 -201 478 -231 b 570 -178 536 -235 554 -207 b 460 -90 535 -148 498 -119 z m 703 411 b 653 305 684 379 668 342 b 743 165 694 248 725 200 b 437 112 705 144 553 112 b 103 328 210 112 103 203 b 108 380 103 344 105 361 l 64 395 b 47 278 52 355 47 316 b 179 27 47 174 93 75 b 427 -29 237 -5 313 -29 b 782 54 554 -29 695 2 b 814 190 804 87 814 145 b 812 222 814 201 813 212 b 709 412 806 258 766 338 z "},"ݓ":{"ha":883,"x_min":0,"x_max":0,"o":"m 214 507 b 327 419 251 480 289 451 b 380 504 347 447 365 475 b 271 591 346 534 309 563 z m 377 515 b 490 428 414 489 452 460 b 543 513 509 456 528 484 b 433 600 509 543 472 572 z m 377 -348 b 489 -435 414 -374 452 -404 b 543 -351 509 -408 527 -380 b 433 -263 508 -321 472 -292 z m 540 -339 b 652 -427 576 -366 614 -395 b 705 -342 672 -399 690 -371 b 596 -254 671 -312 635 -283 z m 404 -175 b 516 -262 441 -201 478 -231 b 570 -178 536 -235 554 -207 b 460 -90 535 -148 498 -119 z m 703 411 b 653 305 684 379 668 342 b 743 165 694 248 725 200 b 437 112 705 144 553 112 b 103 328 210 112 103 203 b 108 380 103 344 105 361 l 64 395 b 47 278 52 355 47 316 b 179 27 47 174 93 75 b 427 -29 237 -5 313 -29 b 782 54 554 -29 695 2 b 814 190 804 87 814 145 b 812 222 814 201 813 212 b 709 412 806 258 766 338 z "},"ݔ":{"ha":883,"x_min":0,"x_max":0,"o":"m 345 -233 b 457 -320 382 -259 420 -288 b 511 -235 477 -292 495 -264 b 401 -148 476 -205 440 -176 z m 508 -224 b 620 -311 545 -250 583 -279 b 673 -227 640 -283 658 -256 b 564 -139 639 -197 603 -168 z m 272 544 b 398 457 315 517 357 489 b 452 555 421 489 439 522 b 326 643 415 586 374 616 z m 703 411 b 653 305 684 379 668 342 b 743 165 694 248 725 200 b 437 112 705 144 553 112 b 103 328 210 112 103 203 b 108 380 103 344 105 361 l 64 395 b 47 278 52 355 47 316 b 179 27 47 174 93 75 b 427 -29 237 -5 313 -29 b 782 54 554 -29 695 2 b 814 190 804 87 814 145 b 812 222 814 201 813 212 b 709 412 806 258 766 338 z "},"ݕ":{"ha":883,"x_min":0,"x_max":0,"o":"m 414 -338 b 486 -212 463 -279 482 -239 l 488 -212 b 610 -335 498 -230 538 -272 l 621 -335 l 634 -262 b 487 -116 561 -205 504 -149 l 467 -124 b 380 -277 459 -157 435 -213 b 410 -338 390 -300 398 -318 z m 703 411 b 653 305 684 379 668 342 b 743 165 694 248 725 200 b 437 112 705 144 553 112 b 103 328 210 112 103 203 b 108 380 103 344 105 361 l 64 395 b 47 278 52 355 47 316 b 179 27 47 174 93 75 b 427 -29 237 -5 313 -29 b 782 54 554 -29 695 2 b 814 190 804 87 814 145 b 812 222 814 201 813 212 b 709 412 806 258 766 338 z "},"ݖ":{"ha":883,"x_min":0,"x_max":0,"o":"m 450 681 b 378 554 401 622 382 581 l 376 554 b 254 677 366 572 326 614 l 243 677 l 230 604 b 377 458 303 547 360 492 l 397 467 b 484 620 405 500 429 555 b 454 681 474 643 466 661 z m 703 411 b 653 305 684 379 668 342 b 743 165 694 248 725 200 b 437 112 705 144 553 112 b 103 328 210 112 103 203 b 108 380 103 344 105 361 l 64 395 b 47 278 52 355 47 316 b 179 27 47 174 93 75 b 427 -29 237 -5 313 -29 b 782 54 554 -29 695 2 b 814 190 804 87 814 145 b 812 222 814 201 813 212 b 709 412 806 258 766 338 z "},"ځ":{"ha":667,"x_min":0,"x_max":0,"o":"m 267 608 b 279 651 275 624 279 638 b 224 696 279 678 256 696 b 146 661 195 696 168 683 b 114 592 124 637 114 612 b 165 530 114 562 134 543 b 146 479 158 513 152 496 l 156 471 b 317 519 189 494 245 510 b 336 574 325 538 332 556 l 332 581 b 264 578 309 579 290 578 b 170 616 208 578 170 598 b 212 638 170 626 188 638 b 236 629 221 638 229 635 l 258 608 z m 310 239 b 107 -38 194 195 107 94 b 475 -366 107 -237 248 -366 b 592 -345 531 -366 572 -359 b 716 -233 629 -319 670 -281 l 706 -216 b 539 -235 652 -229 596 -235 b 174 -31 333 -235 174 -147 b 550 211 174 71 324 167 l 585 300 l 578 309 l 501 309 b 157 391 386 309 275 391 b 30 255 72 391 34 340 l 89 162 l 102 162 l 121 255 b 177 267 135 263 154 267 b 309 241 205 267 251 258 z "},"ڂ":{"ha":667,"x_min":0,"x_max":0,"o":"m 165 517 b 269 446 203 494 239 469 b 315 526 290 467 305 494 b 210 601 283 552 249 578 z m 119 673 b 224 602 158 650 194 625 b 269 682 245 623 260 650 b 165 757 238 708 203 734 z m 310 239 b 107 -38 194 195 107 94 b 475 -366 107 -237 248 -366 b 592 -345 531 -366 572 -359 b 716 -233 629 -319 670 -281 l 706 -216 b 539 -235 652 -229 596 -235 b 174 -31 333 -235 174 -147 b 550 211 174 71 324 167 l 585 300 l 578 309 l 501 309 b 157 391 386 309 275 391 b 30 255 72 391 34 340 l 89 162 l 102 162 l 121 255 b 177 267 135 263 154 267 b 309 241 205 267 251 258 z "},"ڃ":{"ha":667,"x_min":0,"x_max":0,"o":"m 288 -41 b 399 -128 324 -67 362 -96 b 454 -43 420 -100 437 -73 b 344 44 419 -14 382 16 z m 450 -32 b 562 -119 487 -58 525 -87 b 616 -35 583 -92 600 -64 b 507 53 582 -5 545 24 z m 310 239 b 107 -38 194 195 107 94 b 475 -366 107 -237 248 -366 b 592 -345 531 -366 572 -359 b 716 -233 629 -319 670 -281 l 706 -216 b 539 -235 652 -229 596 -235 b 174 -31 333 -235 174 -147 b 550 211 174 71 324 167 l 585 300 l 578 309 l 501 309 b 157 391 386 309 275 391 b 30 255 72 391 34 340 l 89 162 l 102 162 l 121 255 b 177 267 135 263 154 267 b 309 241 205 267 251 258 z "},"ﭸ":{"ha":629,"x_min":0,"x_max":0,"o":"m 335 224 b 7 136 239 157 150 136 l -3 136 b -43 85 -35 136 -43 115 b 18 0 -43 58 -33 0 l 28 0 b 409 169 226 0 306 60 b 519 210 440 201 471 210 b 560 304 536 244 550 276 l 557 309 l 507 309 b 335 341 451 309 405 317 b 140 388 252 371 186 388 b 12 267 69 388 15 351 l 68 180 l 82 180 l 102 252 b 157 264 113 260 131 264 b 334 228 195 264 256 253 z m 290 -153 b 382 -233 321 -179 351 -205 b 437 -164 405 -213 424 -190 b 347 -80 412 -136 382 -108 z m 148 -159 b 239 -239 179 -185 210 -212 b 295 -170 263 -219 281 -196 b 205 -86 271 -142 240 -114 z "},"ﭹ":{"ha":612,"x_min":0,"x_max":0,"o":"m 335 224 b 7 136 239 157 150 136 l -3 136 b -43 85 -35 136 -43 115 b 18 0 -43 58 -33 0 l 28 0 b 408 169 226 0 305 60 b 519 210 439 201 471 210 b 560 304 536 244 550 276 l 557 309 l 507 309 b 335 341 451 309 405 317 b 140 388 252 371 186 388 b 12 267 69 388 15 351 l 68 180 l 82 180 l 102 252 b 157 264 113 260 131 264 b 334 228 195 264 256 253 z m 435 163 b 441 123 436 150 439 137 b 492 28 448 81 465 51 b 621 0 515 9 555 0 l 630 0 l 608 136 l 599 136 b 472 190 540 136 485 139 l 468 193 z m 290 -153 b 382 -233 321 -179 351 -205 b 437 -164 405 -213 424 -190 b 347 -80 412 -136 382 -108 z m 148 -159 b 239 -239 179 -185 210 -212 b 295 -170 263 -219 281 -196 b 205 -86 271 -142 240 -114 z "},"ﭷ":{"ha":660,"x_min":0,"x_max":0,"o":"m 395 -51 b 488 -132 427 -77 458 -104 b 543 -62 511 -111 530 -88 b 452 22 519 -35 488 -6 z m 254 -57 b 346 -138 285 -83 315 -110 b 401 -68 369 -117 388 -94 b 311 16 376 -41 346 -12 z m 454 157 b 669 0 479 7 542 0 l 678 0 l 656 136 l 631 136 b 490 185 564 136 507 138 z m 310 239 b 102 -40 194 195 102 93 b 470 -366 102 -238 245 -366 b 587 -345 526 -366 568 -359 b 711 -233 625 -319 665 -281 l 701 -216 b 534 -235 648 -229 591 -235 b 169 -31 329 -235 169 -147 b 550 211 169 71 324 166 l 585 300 l 578 309 l 501 309 b 157 391 386 309 275 391 b 30 255 72 391 34 340 l 89 162 l 102 162 l 121 255 b 177 267 135 263 154 267 b 309 241 205 267 251 258 z "},"ڄ":{"ha":667,"x_min":0,"x_max":0,"o":"m 374 -124 b 479 -195 413 -148 450 -172 b 525 -116 500 -174 515 -147 b 420 -41 493 -90 458 -64 z m 330 32 b 435 -39 368 8 404 -16 b 479 40 456 -18 470 9 b 376 115 448 66 414 92 z m 310 239 b 107 -38 194 195 107 94 b 475 -366 107 -237 248 -366 b 592 -345 531 -366 572 -359 b 716 -233 629 -319 670 -281 l 706 -216 b 539 -235 652 -229 596 -235 b 174 -31 333 -235 174 -147 b 550 211 174 71 324 167 l 585 300 l 578 309 l 501 309 b 157 391 386 309 275 391 b 30 255 72 391 34 340 l 89 162 l 102 162 l 121 255 b 177 267 135 263 154 267 b 309 241 205 267 251 258 z "},"ﭴ":{"ha":629,"x_min":0,"x_max":0,"o":"m 335 224 b 7 136 239 157 150 136 l -3 136 b -43 85 -35 136 -43 115 b 18 0 -43 58 -33 0 l 28 0 b 409 169 226 0 306 60 b 519 210 440 201 471 210 b 560 304 536 244 550 276 l 557 309 l 507 309 b 335 341 451 309 405 317 b 140 388 252 371 186 388 b 12 267 69 388 15 351 l 68 180 l 82 180 l 102 252 b 157 264 113 260 131 264 b 334 228 195 264 256 253 z m 258 -283 b 362 -354 296 -307 332 -331 b 408 -275 383 -333 398 -306 b 303 -199 376 -248 341 -222 z m 212 -127 b 317 -198 251 -151 287 -175 b 362 -119 338 -177 353 -150 b 258 -43 331 -92 296 -66 z "},"ﭵ":{"ha":612,"x_min":0,"x_max":0,"o":"m 335 224 b 7 136 239 157 150 136 l -3 136 b -43 85 -35 136 -43 115 b 18 0 -43 58 -33 0 l 28 0 b 408 169 226 0 305 60 b 519 210 439 201 471 210 b 560 304 536 244 550 276 l 557 309 l 507 309 b 335 341 451 309 405 317 b 140 388 252 371 186 388 b 12 267 69 388 15 351 l 68 180 l 82 180 l 102 252 b 157 264 113 260 131 264 b 334 228 195 264 256 253 z m 435 163 b 441 123 436 150 439 137 b 492 28 448 81 465 51 b 621 0 515 9 555 0 l 630 0 l 608 136 l 599 136 b 472 190 540 136 485 139 l 468 193 z m 258 -283 b 362 -354 296 -307 332 -331 b 408 -275 383 -333 398 -306 b 303 -199 376 -248 341 -222 z m 212 -127 b 317 -198 251 -151 287 -175 b 362 -119 338 -177 353 -150 b 258 -43 331 -92 296 -66 z "},"ﭳ":{"ha":660,"x_min":0,"x_max":0,"o":"m 344 -127 b 444 -195 380 -149 415 -173 b 486 -119 464 -174 477 -149 b 387 -47 456 -94 424 -69 z m 300 22 b 401 -46 338 -1 372 -24 b 444 30 421 -26 435 0 b 345 102 414 55 381 80 z m 454 157 b 669 0 479 7 542 0 l 678 0 l 656 136 l 631 136 b 490 185 564 136 507 138 z m 310 239 b 102 -40 194 195 102 93 b 470 -366 102 -238 245 -366 b 587 -345 526 -366 568 -359 b 711 -233 625 -319 665 -281 l 701 -216 b 534 -235 648 -229 591 -235 b 169 -31 329 -235 169 -147 b 550 211 169 71 324 166 l 585 300 l 578 309 l 501 309 b 157 391 386 309 275 391 b 30 255 72 391 34 340 l 89 162 l 102 162 l 121 255 b 177 267 135 263 154 267 b 309 241 205 267 251 258 z "},"څ":{"ha":667,"x_min":0,"x_max":0,"o":"m 236 548 b 331 472 268 523 300 498 b 382 545 353 494 371 517 b 288 625 356 571 325 598 z m 88 541 b 184 465 121 516 153 492 b 235 538 205 487 223 511 b 140 618 209 564 177 591 z m 122 690 b 218 614 155 665 186 641 b 269 687 239 636 257 660 b 174 767 243 713 212 741 z m 310 239 b 107 -38 194 195 107 94 b 475 -366 107 -237 248 -366 b 592 -345 531 -366 572 -359 b 716 -233 629 -319 670 -281 l 706 -216 b 539 -235 652 -229 596 -235 b 174 -31 333 -235 174 -147 b 550 211 174 71 324 167 l 585 300 l 578 309 l 501 309 b 157 391 386 309 275 391 b 30 255 72 391 34 340 l 89 162 l 102 162 l 121 255 b 177 267 135 263 154 267 b 309 241 205 267 251 258 z "},"چ":{"ha":667,"x_min":0,"x_max":0,"o":"m 407 31 b 499 -50 439 4 469 -22 b 555 19 522 -30 541 -7 b 464 103 530 47 500 75 z m 265 24 b 357 -56 296 -2 327 -28 b 412 13 380 -36 399 -13 b 322 97 388 41 357 69 z m 376 -119 b 469 -199 408 -145 439 -172 b 524 -130 492 -179 511 -156 b 433 -46 499 -102 469 -74 z m 310 239 b 107 -38 194 195 107 94 b 475 -366 107 -237 248 -366 b 592 -345 531 -366 572 -359 b 716 -233 629 -319 670 -281 l 706 -216 b 539 -235 652 -229 596 -235 b 174 -31 333 -235 174 -147 b 550 211 174 71 324 167 l 585 300 l 578 309 l 501 309 b 157 391 386 309 275 391 b 30 255 72 391 34 340 l 89 162 l 102 162 l 121 255 b 177 267 135 263 154 267 b 309 241 205 267 251 258 z "},"ﭼ":{"ha":629,"x_min":0,"x_max":0,"o":"m 335 224 b 7 136 239 157 150 136 l -3 136 b -43 85 -35 136 -43 115 b 18 0 -43 58 -33 0 l 28 0 b 409 169 226 0 306 60 b 519 210 440 201 471 210 b 560 304 536 244 550 276 l 557 309 l 507 309 b 335 341 451 309 405 317 b 140 388 252 371 186 388 b 12 267 69 388 15 351 l 68 180 l 82 180 l 102 252 b 157 264 113 260 131 264 b 334 228 195 264 256 253 z m 298 -136 b 390 -217 330 -163 360 -189 b 446 -148 413 -197 432 -174 b 355 -64 421 -120 391 -92 z m 156 -142 b 248 -223 187 -169 218 -195 b 303 -154 271 -203 290 -180 b 213 -70 279 -126 248 -98 z m 267 -286 b 359 -366 298 -312 330 -338 b 415 -297 382 -346 401 -323 b 324 -213 390 -269 360 -241 z "},"ﭽ":{"ha":612,"x_min":0,"x_max":0,"o":"m 335 224 b 7 136 239 157 150 136 l -3 136 b -43 85 -35 136 -43 115 b 18 0 -43 58 -33 0 l 28 0 b 408 169 226 0 305 60 b 519 210 439 201 471 210 b 560 304 536 244 550 276 l 557 309 l 507 309 b 335 341 451 309 405 317 b 140 388 252 371 186 388 b 12 267 69 388 15 351 l 68 180 l 82 180 l 102 252 b 157 264 113 260 131 264 b 334 228 195 264 256 253 z m 435 163 b 441 123 436 150 439 137 b 492 28 448 81 465 51 b 621 0 515 9 555 0 l 630 0 l 608 136 l 599 136 b 472 190 540 136 485 139 l 468 193 z m 298 -136 b 390 -217 330 -163 360 -189 b 446 -148 413 -197 432 -174 b 355 -64 421 -120 391 -92 z m 156 -142 b 248 -223 187 -169 218 -195 b 303 -154 271 -203 290 -180 b 213 -70 279 -126 248 -98 z m 267 -286 b 359 -366 298 -312 330 -338 b 415 -297 382 -346 401 -323 b 324 -213 390 -269 360 -241 z "},"ﭻ":{"ha":660,"x_min":0,"x_max":0,"o":"m 481 157 b 669 0 509 7 583 0 l 678 0 l 656 136 l 645 136 b 517 185 591 136 534 138 z m 376 14 b 463 -58 407 -9 435 -34 b 511 8 483 -37 500 -16 b 427 81 485 35 458 58 z m 242 5 b 329 -67 273 -18 302 -43 b 378 -1 349 -46 366 -25 b 294 72 351 26 324 50 z m 344 -124 b 431 -196 375 -147 404 -172 b 479 -130 451 -175 468 -154 b 395 -57 454 -103 426 -79 z m 310 239 b 102 -40 194 195 102 93 b 470 -366 102 -238 245 -366 b 587 -345 526 -366 568 -359 b 711 -233 625 -319 665 -281 l 701 -216 b 534 -235 648 -229 591 -235 b 169 -31 329 -235 169 -147 b 550 211 169 71 324 166 l 585 300 l 578 309 l 501 309 b 157 391 386 309 275 391 b 30 255 72 391 34 340 l 89 162 l 102 162 l 121 255 b 177 267 135 263 154 267 b 309 241 205 267 251 258 z "},"ڿ":{"ha":667,"x_min":0,"x_max":0,"o":"m 407 31 b 499 -50 439 4 469 -22 b 555 19 522 -30 541 -7 b 464 103 530 47 500 75 z m 265 24 b 357 -56 296 -2 327 -28 b 412 13 380 -36 399 -13 b 322 97 388 41 357 69 z m 376 -119 b 469 -199 408 -145 439 -172 b 524 -130 492 -179 511 -156 b 433 -46 499 -102 469 -74 z m 136 545 b 260 458 178 518 220 490 b 313 555 283 490 301 522 b 189 642 277 586 236 615 z m 310 239 b 107 -38 194 195 107 94 b 475 -366 107 -237 248 -366 b 592 -345 531 -366 572 -359 b 716 -233 629 -319 670 -281 l 706 -216 b 539 -235 652 -229 596 -235 b 174 -31 333 -235 174 -147 b 550 211 174 71 324 167 l 585 300 l 578 309 l 501 309 b 157 391 386 309 275 391 b 30 255 72 391 34 340 l 89 162 l 102 162 l 121 255 b 177 267 135 263 154 267 b 309 241 205 267 251 258 z "},"ڇ":{"ha":667,"x_min":0,"x_max":0,"o":"m 408 39 b 494 -35 439 15 467 -10 b 545 29 515 -15 532 5 b 462 104 519 56 492 81 z m 275 35 b 360 -39 305 12 334 -14 b 410 26 381 -18 399 2 b 328 100 385 53 358 77 z m 435 -106 b 520 -180 466 -130 494 -155 b 571 -115 542 -159 559 -139 b 489 -41 546 -88 519 -64 z m 302 -109 b 387 -183 332 -133 360 -158 b 437 -119 408 -163 426 -142 b 355 -44 412 -92 385 -67 z m 310 239 b 107 -38 194 195 107 94 b 475 -366 107 -237 248 -366 b 592 -345 531 -366 572 -359 b 716 -233 629 -319 670 -281 l 706 -216 b 539 -235 652 -229 596 -235 b 174 -31 333 -235 174 -147 b 550 211 174 71 324 167 l 585 300 l 578 309 l 501 309 b 157 391 386 309 275 391 b 30 255 72 391 34 340 l 89 162 l 102 162 l 121 255 b 177 267 135 263 154 267 b 309 241 205 267 251 258 z "},"ﮀ":{"ha":629,"x_min":0,"x_max":0,"o":"m 335 224 b 7 136 239 157 150 136 l -3 136 b -43 85 -35 136 -43 115 b 18 0 -43 58 -33 0 l 28 0 b 409 169 226 0 306 60 b 519 210 440 201 471 210 b 560 304 536 244 550 276 l 557 309 l 507 309 b 335 341 451 309 405 317 b 140 388 252 371 186 388 b 12 267 69 388 15 351 l 68 180 l 82 180 l 102 252 b 157 264 113 260 131 264 b 334 228 195 264 256 253 z m 342 -287 b 435 -368 374 -313 405 -340 b 490 -298 458 -347 477 -324 b 400 -214 466 -271 435 -242 z m 199 -293 b 291 -374 230 -319 260 -346 b 347 -304 314 -353 333 -330 b 256 -220 321 -277 291 -248 z m 294 -132 b 387 -213 326 -159 357 -185 b 442 -144 410 -193 429 -170 b 351 -60 418 -116 387 -87 z m 151 -138 b 243 -219 182 -165 212 -191 b 298 -150 266 -199 285 -176 b 208 -66 273 -122 243 -94 z "},"ﮁ":{"ha":612,"x_min":0,"x_max":0,"o":"m 335 224 b 7 136 239 157 150 136 l -3 136 b -43 85 -35 136 -43 115 b 18 0 -43 58 -33 0 l 28 0 b 408 169 226 0 305 60 b 519 210 439 201 471 210 b 560 304 536 244 550 276 l 557 309 l 507 309 b 335 341 451 309 405 317 b 140 388 252 371 186 388 b 12 267 69 388 15 351 l 68 180 l 82 180 l 102 252 b 157 264 113 260 131 264 b 334 228 195 264 256 253 z m 435 163 b 441 123 436 150 439 137 b 492 28 448 81 465 51 b 621 0 515 9 555 0 l 630 0 l 608 136 l 599 136 b 472 190 540 136 485 139 l 468 193 z m 342 -287 b 435 -368 374 -313 405 -340 b 490 -298 458 -347 477 -324 b 400 -214 466 -271 435 -242 z m 199 -293 b 291 -374 230 -319 260 -346 b 347 -304 314 -353 333 -330 b 256 -220 321 -277 291 -248 z m 294 -132 b 387 -213 326 -159 357 -185 b 442 -144 410 -193 429 -170 b 351 -60 418 -116 387 -87 z m 151 -138 b 243 -219 182 -165 212 -191 b 298 -150 266 -199 285 -176 b 208 -66 273 -122 243 -94 z "},"ﭿ":{"ha":654,"x_min":0,"x_max":0,"o":"m 303 239 b 100 -38 187 195 100 94 b 468 -366 100 -237 241 -366 b 585 -345 524 -366 566 -359 b 709 -233 623 -319 663 -281 l 699 -216 b 497 -240 646 -229 554 -240 b 165 -27 294 -240 165 -145 b 543 212 165 85 317 177 l 578 300 l 572 309 l 494 309 b 150 391 379 309 268 391 b 23 255 65 391 27 340 l 82 162 l 95 162 l 115 255 b 170 267 128 263 147 267 b 302 241 199 267 244 258 z m 480 161 b 655 0 512 45 574 0 l 673 0 l 651 136 l 617 136 b 518 192 568 136 534 155 z m 376 33 b 460 -41 406 9 434 -16 b 511 24 481 -20 500 0 b 429 98 486 51 459 75 z m 242 30 b 327 -44 272 6 300 -19 b 378 20 348 -24 366 -3 b 295 95 352 47 326 72 z m 402 -111 b 488 -185 433 -135 461 -160 b 538 -121 509 -165 526 -144 b 456 -46 513 -94 486 -69 z m 269 -115 b 354 -189 299 -138 328 -163 b 404 -124 375 -168 393 -148 b 322 -50 379 -97 352 -73 z "},"ݗ":{"ha":667,"x_min":0,"x_max":0,"o":"m 236 548 b 331 472 268 523 300 498 b 382 545 353 494 371 517 b 288 625 356 571 325 598 z m 88 541 b 184 465 121 516 153 492 b 235 538 205 487 223 511 b 140 618 209 564 177 591 z m 310 239 b 107 -38 194 195 107 94 b 475 -366 107 -237 248 -366 b 592 -345 531 -366 572 -359 b 716 -233 629 -319 670 -281 l 706 -216 b 539 -235 652 -229 596 -235 b 174 -31 333 -235 174 -147 b 550 211 174 71 324 167 l 585 300 l 578 309 l 501 309 b 157 391 386 309 275 391 b 30 255 72 391 34 340 l 89 162 l 102 162 l 121 255 b 177 267 135 263 154 267 b 309 241 205 267 251 258 z "},"ݘ":{"ha":667,"x_min":0,"x_max":0,"o":"m 452 -93 b 548 -169 485 -118 517 -142 b 599 -96 570 -147 587 -123 b 505 -16 573 -70 541 -43 z m 305 -100 b 401 -176 338 -125 369 -149 b 452 -103 422 -154 440 -130 b 357 -23 425 -77 394 -50 z m 339 50 b 435 -26 372 24 404 0 b 486 46 456 -5 474 19 b 391 126 460 73 428 100 z m 310 239 b 107 -38 194 195 107 94 b 475 -366 107 -237 248 -366 b 592 -345 531 -366 572 -359 b 716 -233 629 -319 670 -281 l 706 -216 b 539 -235 652 -229 596 -235 b 174 -31 333 -235 174 -147 b 550 211 174 71 324 167 l 585 300 l 578 309 l 501 309 b 157 391 386 309 275 391 b 30 255 72 391 34 340 l 89 162 l 102 162 l 121 255 b 177 267 135 263 154 267 b 309 241 205 267 251 258 z "},"ڈ":{"ha":469,"x_min":0,"x_max":0,"o":"m 43 553 l 81 553 b 236 664 186 553 236 583 b 155 761 236 711 202 761 b 64 693 117 761 87 736 l 62 695 b 63 707 63 698 63 702 b 58 764 63 719 62 739 l 83 793 b 38 870 61 822 43 850 l 33 872 b -4 817 8 852 -4 835 b -3 810 -4 814 -4 812 b 10 762 -1 795 5 781 b 27 680 18 735 23 707 b 31 648 29 667 31 657 b 28 627 31 640 30 633 b -41 631 2 627 -20 629 l -45 617 z m 63 626 b 144 691 85 664 110 691 b 200 657 170 691 188 679 b 63 626 174 636 127 627 z m 51 212 b 58 138 52 182 56 157 b 216 -9 75 37 133 -9 b 395 58 290 -9 349 16 b 412 146 406 85 412 115 b 409 186 412 159 411 172 b 320 355 399 249 369 306 b 125 501 259 417 193 463 l 121 501 b 94 405 105 462 94 428 b 138 357 94 382 109 372 b 347 164 240 304 315 241 b 206 126 296 136 249 126 b 94 212 142 126 104 149 z "},"ﮉ":{"ha":525,"x_min":0,"x_max":0,"o":"m 143 559 l 182 559 b 336 671 286 559 336 590 b 256 768 336 718 302 768 b 164 700 218 768 188 743 l 163 702 b 163 713 163 705 163 709 b 158 771 163 726 162 745 l 183 800 b 138 877 161 829 143 857 l 134 879 b 96 824 109 859 96 842 b 97 817 96 821 96 819 b 111 769 99 802 106 787 b 127 687 119 742 123 714 b 131 654 130 674 131 664 b 129 634 131 647 130 640 b 60 637 102 634 81 635 l 55 624 z m 163 633 b 244 698 185 671 210 698 b 300 664 271 698 288 686 b 163 633 274 643 227 634 z m 522 136 l 512 136 b 391 248 458 136 416 171 b 289 520 346 380 315 458 l 277 524 b 229 431 258 493 242 463 b 324 199 277 337 324 224 b 288 159 324 181 309 170 b 192 136 255 144 223 136 b 92 220 135 136 104 167 l 49 216 b 57 158 52 191 54 172 b 202 0 75 42 131 0 b 340 48 261 0 306 17 b 367 114 353 60 362 79 l 369 114 b 534 0 408 27 465 0 l 543 0 z "},"ډ":{"ha":469,"x_min":0,"x_max":0,"o":"m 51 212 b 58 138 52 182 56 157 b 211 -9 74 39 130 -7 b 201 -52 204 -22 201 -36 b 296 -146 201 -104 243 -146 b 391 -52 348 -146 391 -104 b 350 25 391 -23 376 8 b 395 58 366 35 381 45 b 412 146 406 85 412 115 b 409 186 412 159 411 172 b 320 355 399 249 369 306 b 125 501 259 417 193 463 l 121 501 b 94 405 105 462 94 428 b 138 357 94 382 109 372 b 347 164 240 304 315 241 b 206 126 296 136 249 126 b 94 212 142 126 104 149 z m 245 -51 b 296 0 245 -23 268 0 b 347 -51 323 0 347 -23 b 296 -102 347 -79 323 -102 b 245 -51 268 -102 245 -79 z "},"ڊ":{"ha":469,"x_min":0,"x_max":0,"o":"m 213 -198 b 326 -275 254 -224 293 -250 b 374 -189 348 -252 365 -223 b 262 -109 340 -161 303 -133 z m 51 212 b 58 138 52 182 56 157 b 216 -9 75 37 133 -9 b 395 58 290 -9 349 16 b 412 146 406 85 412 115 b 409 186 412 159 411 172 b 320 355 399 249 369 306 b 125 501 259 417 193 463 l 121 501 b 94 405 105 462 94 428 b 138 357 94 382 109 372 b 347 164 240 304 315 241 b 206 126 296 136 249 126 b 94 212 142 126 104 149 z "},"ڋ":{"ha":469,"x_min":0,"x_max":0,"o":"m 213 -198 b 326 -275 254 -224 293 -250 b 374 -189 348 -252 365 -223 b 262 -109 340 -161 303 -133 z m 43 553 l 81 553 b 236 664 186 553 236 583 b 155 761 236 711 202 761 b 64 693 117 761 87 736 l 62 695 b 63 707 63 698 63 702 b 58 764 63 719 62 739 l 83 793 b 38 870 61 822 43 850 l 33 872 b -4 817 8 852 -4 835 b -3 810 -4 814 -4 812 b 10 762 -1 795 5 781 b 27 680 18 735 23 707 b 31 648 29 667 31 657 b 28 627 31 640 30 633 b -41 631 2 627 -20 629 l -45 617 z m 63 626 b 144 691 85 664 110 691 b 200 657 170 691 188 679 b 63 626 174 636 127 627 z m 51 212 b 58 138 52 182 56 157 b 216 -9 75 37 133 -9 b 395 58 290 -9 349 16 b 412 146 406 85 412 115 b 409 186 412 159 411 172 b 320 355 399 249 369 306 b 125 501 259 417 193 463 l 121 501 b 94 405 105 462 94 428 b 138 357 94 382 109 372 b 347 164 240 304 315 241 b 206 126 296 136 249 126 b 94 212 142 126 104 149 z "},"ڌ":{"ha":469,"x_min":0,"x_max":0,"o":"m 106 644 b 199 563 138 617 169 591 b 254 632 222 583 241 606 b 163 716 229 660 199 688 z m -35 637 b 56 557 -3 611 26 585 b 112 626 80 577 98 600 b 22 710 87 654 57 682 z m 51 212 b 58 138 52 182 56 157 b 216 -9 75 37 133 -9 b 395 58 290 -9 349 16 b 412 146 406 85 412 115 b 409 186 412 159 411 172 b 320 355 399 249 369 306 b 125 501 259 417 193 463 l 121 501 b 94 405 105 462 94 428 b 138 357 94 382 109 372 b 347 164 240 304 315 241 b 206 126 296 136 249 126 b 94 212 142 126 104 149 z "},"ﮅ":{"ha":525,"x_min":0,"x_max":0,"o":"m 213 657 b 305 576 244 631 275 604 b 361 646 328 597 347 620 b 270 730 336 673 306 702 z m 71 651 b 163 570 102 625 133 598 b 218 640 186 591 205 614 b 128 724 194 667 163 696 z m 522 136 l 512 136 b 391 248 458 136 416 171 b 289 520 346 380 315 458 l 277 524 b 229 431 258 493 242 463 b 324 199 277 337 324 224 b 288 159 324 181 309 170 b 192 136 255 144 223 136 b 92 220 135 136 104 167 l 49 216 b 57 158 52 191 54 172 b 202 0 75 42 131 0 b 340 48 261 0 306 17 b 367 114 353 60 362 79 l 369 114 b 534 0 408 27 465 0 l 543 0 z "},"ڍ":{"ha":469,"x_min":0,"x_max":0,"o":"m 292 -191 b 387 -267 324 -216 356 -241 b 438 -195 409 -245 427 -222 b 344 -115 412 -168 380 -141 z m 144 -198 b 239 -274 177 -223 208 -248 b 291 -201 261 -252 279 -229 b 197 -121 264 -175 233 -148 z m 51 212 b 58 138 52 182 56 157 b 216 -9 75 37 133 -9 b 395 58 290 -9 349 16 b 412 146 406 85 412 115 b 409 186 412 159 411 172 b 320 355 399 249 369 306 b 125 501 259 417 193 463 l 121 501 b 94 405 105 462 94 428 b 138 357 94 382 109 372 b 347 164 240 304 315 241 b 206 126 296 136 249 126 b 94 212 142 126 104 149 z "},"ﮃ":{"ha":525,"x_min":0,"x_max":0,"o":"m 292 -191 b 387 -267 324 -216 356 -241 b 438 -195 409 -245 427 -222 b 344 -115 412 -168 380 -141 z m 144 -198 b 239 -274 177 -223 208 -248 b 291 -201 261 -252 279 -229 b 197 -121 264 -175 233 -148 z m 522 136 l 512 136 b 391 248 458 136 416 171 b 289 520 346 380 315 458 l 277 524 b 229 431 258 493 242 463 b 324 199 277 337 324 224 b 288 159 324 181 309 170 b 192 136 255 144 223 136 b 92 220 135 136 104 167 l 49 216 b 57 158 52 191 54 172 b 202 0 75 42 131 0 b 340 48 261 0 306 17 b 367 114 353 60 362 79 l 369 114 b 534 0 408 27 465 0 l 543 0 z "},"ڎ":{"ha":469,"x_min":0,"x_max":0,"o":"m 108 627 b 200 546 139 600 170 574 b 256 615 223 566 242 589 b 165 699 231 643 201 671 z m -33 621 b 58 540 -2 594 28 568 b 113 609 81 560 100 583 b 23 693 89 637 58 665 z m 0 767 b 92 686 31 741 62 714 b 147 755 115 707 134 730 b 56 840 123 783 92 812 z m 51 212 b 58 138 52 182 56 157 b 216 -9 75 37 133 -9 b 395 58 290 -9 349 16 b 412 146 406 85 412 115 b 409 186 412 159 411 172 b 320 355 399 249 369 306 b 125 501 259 417 193 463 l 121 501 b 94 405 105 462 94 428 b 138 357 94 382 109 372 b 347 164 240 304 315 241 b 206 126 296 136 249 126 b 94 212 142 126 104 149 z "},"ﮇ":{"ha":525,"x_min":0,"x_max":0,"o":"m 221 640 b 313 559 252 614 283 587 b 369 629 336 580 355 603 b 278 713 344 656 314 685 z m 79 634 b 171 553 111 608 141 581 b 227 623 195 574 213 597 b 136 707 202 650 172 679 z m 113 781 b 205 700 144 754 175 728 b 260 769 228 720 247 743 b 170 853 235 797 205 825 z m 522 136 l 512 136 b 391 248 458 136 416 171 b 289 520 346 380 315 458 l 277 524 b 229 431 258 493 242 463 b 324 199 277 337 324 224 b 288 159 324 181 309 170 b 192 136 255 144 223 136 b 92 220 135 136 104 167 l 49 216 b 57 158 52 191 54 172 b 202 0 75 42 131 0 b 340 48 261 0 306 17 b 367 114 353 60 362 79 l 369 114 b 534 0 408 27 465 0 l 543 0 z "},"ڏ":{"ha":469,"x_min":0,"x_max":0,"o":"m 52 772 b 144 692 83 746 114 720 b 200 761 168 712 186 735 b 109 845 175 789 145 817 z m -89 766 b 3 686 -58 740 -27 713 b 58 755 26 706 44 729 b -32 839 33 783 3 811 z m 22 623 b 114 543 53 597 83 570 b 170 612 137 563 156 586 b 79 696 144 640 114 668 z m 51 212 b 58 138 52 182 56 157 b 216 -9 75 37 133 -9 b 395 58 290 -9 349 16 b 412 146 406 85 412 115 b 409 186 412 159 411 172 b 320 355 399 249 369 306 b 125 501 259 417 193 463 l 121 501 b 94 405 105 462 94 428 b 138 357 94 382 109 372 b 347 164 240 304 315 241 b 206 126 296 136 249 126 b 94 212 142 126 104 149 z "},"ڐ":{"ha":469,"x_min":0,"x_max":0,"o":"m 110 613 b 202 532 141 587 172 560 b 258 602 225 553 244 576 b 167 686 233 629 203 658 z m -33 607 b 58 526 -2 581 28 554 b 113 595 81 547 100 570 b 23 680 89 623 58 652 z m 62 768 b 154 687 93 741 124 715 b 210 756 177 707 196 730 b 119 840 184 784 155 812 z m -81 762 b 10 681 -50 735 -20 709 b 65 750 33 701 52 724 b -24 834 41 778 11 806 z m 51 212 b 58 138 52 182 56 157 b 216 -9 75 37 133 -9 b 395 58 290 -9 349 16 b 412 146 406 85 412 115 b 409 186 412 159 411 172 b 320 355 399 249 369 306 b 125 501 259 417 193 463 l 121 501 b 94 405 105 462 94 428 b 138 357 94 382 109 372 b 347 164 240 304 315 241 b 206 126 296 136 249 126 b 94 212 142 126 104 149 z "},"ۮ":{"ha":469,"x_min":0,"x_max":0,"o":"m 25 564 b 92 682 71 618 89 656 l 94 682 b 208 567 104 665 140 625 l 217 567 l 230 635 b 93 770 162 688 109 739 l 75 763 b -5 621 68 732 45 680 b 21 564 3 599 11 583 z m 51 212 b 58 138 52 182 56 157 b 216 -9 75 37 133 -9 b 395 58 290 -9 349 16 b 412 146 406 85 412 115 b 409 186 412 159 411 172 b 320 355 399 249 369 306 b 125 501 259 417 193 463 l 121 501 b 94 405 105 462 94 428 b 138 357 94 382 109 372 b 347 164 240 304 315 241 b 206 126 296 136 249 126 b 94 212 142 126 104 149 z "},"ݙ":{"ha":469,"x_min":0,"x_max":0,"o":"m 241 -310 b 347 -381 279 -334 316 -358 b 391 -302 368 -360 382 -333 b 287 -227 360 -275 326 -250 z m 196 -154 b 301 -225 235 -178 271 -202 b 347 -146 322 -204 337 -177 b 242 -71 315 -119 280 -94 z m 43 553 l 81 553 b 236 664 186 553 236 583 b 155 761 236 711 202 761 b 64 693 117 761 87 736 l 62 695 b 63 707 63 698 63 702 b 58 764 63 719 62 739 l 83 793 b 38 870 61 822 43 850 l 33 872 b -4 817 8 852 -4 835 b -3 810 -4 814 -4 812 b 10 762 -1 795 5 781 b 27 680 18 735 23 707 b 31 648 29 667 31 657 b 28 627 31 640 30 633 b -41 631 2 627 -20 629 l -45 617 z m 63 626 b 144 691 85 664 110 691 b 200 657 170 691 188 679 b 63 626 174 636 127 627 z m 51 212 b 58 138 52 182 56 157 b 216 -9 75 37 133 -9 b 395 58 290 -9 349 16 b 412 146 406 85 412 115 b 409 186 412 159 411 172 b 320 355 399 249 369 306 b 125 501 259 417 193 463 l 121 501 b 94 405 105 462 94 428 b 138 357 94 382 109 372 b 347 164 240 304 315 241 b 206 126 296 136 249 126 b 94 212 142 126 104 149 z "},"ݚ":{"ha":469,"x_min":0,"x_max":0,"o":"m 210 -304 b 277 -186 256 -250 274 -212 l 279 -186 b 393 -301 289 -203 326 -243 l 402 -301 l 415 -233 b 277 -98 347 -180 294 -129 l 260 -105 b 179 -248 252 -136 229 -188 b 206 -304 187 -269 195 -286 z m 51 212 b 58 138 52 182 56 157 b 216 -9 75 37 133 -9 b 395 58 290 -9 349 16 b 412 146 406 85 412 115 b 409 186 412 159 411 172 b 320 355 399 249 369 306 b 125 501 259 417 193 463 l 121 501 b 94 405 105 462 94 428 b 138 357 94 382 109 372 b 347 164 240 304 315 241 b 206 126 296 136 249 126 b 94 212 142 126 104 149 z "},"ڑ":{"ha":441,"x_min":0,"x_max":0,"o":"m 118 417 l 157 417 b 311 528 261 417 311 448 b 231 625 311 575 277 625 b 139 557 193 625 163 600 l 138 559 b 138 571 138 562 138 566 b 133 629 138 583 137 603 l 158 657 b 113 734 136 686 118 714 l 109 736 b 71 682 83 717 71 699 b 72 675 71 679 71 677 b 85 627 74 660 81 645 b 102 545 94 600 98 572 b 106 512 104 532 106 522 b 104 492 106 505 105 498 b 35 495 77 492 56 493 l 30 481 z m 138 490 b 219 555 160 528 185 555 b 275 522 245 555 263 543 b 138 490 249 500 202 492 z m 253 359 b 210 244 238 324 222 285 b 328 70 290 145 328 97 b 271 -40 328 46 307 3 b 119 -122 228 -90 175 -122 b 50 -114 94 -122 71 -119 l 43 -150 b 238 -209 111 -187 186 -209 b 374 -94 297 -209 342 -167 b 395 17 389 -60 395 -22 b 389 85 395 39 393 62 b 382 148 387 98 387 116 b 266 359 373 203 340 262 z "},"ﮍ":{"ha":445,"x_min":0,"x_max":0,"o":"m 124 336 l 163 336 b 317 447 267 336 317 366 b 237 544 317 494 283 544 b 145 476 199 544 169 519 l 144 478 b 144 490 144 481 144 485 b 139 547 144 502 143 522 l 164 576 b 119 653 142 605 124 633 l 115 655 b 77 600 90 635 77 618 b 78 593 77 597 77 595 b 92 545 80 578 87 564 b 109 463 100 518 104 490 b 112 431 111 450 112 440 b 110 410 112 423 111 416 b 41 414 83 410 62 412 l 36 400 z m 144 409 b 225 474 166 447 191 474 b 281 440 252 474 269 462 b 144 409 255 419 208 410 z m 441 136 l 432 136 b 263 269 356 136 311 190 l 253 269 b 220 168 241 239 231 205 b 316 43 252 118 284 77 b 257 -87 314 1 295 -46 b 119 -149 221 -126 176 -149 b 56 -138 104 -149 83 -146 l 47 -172 b 237 -239 126 -219 187 -239 b 359 -140 293 -239 331 -199 b 382 -37 372 -112 382 -79 b 378 13 382 -22 381 -5 b 452 0 401 6 424 0 l 463 0 z "},"ڒ":{"ha":441,"x_min":0,"x_max":0,"o":"m 277 630 b 210 512 231 575 213 537 l 208 512 b 94 627 198 529 161 568 l 85 627 l 72 559 b 210 423 140 506 193 454 l 227 431 b 308 573 235 462 258 513 b 281 630 300 595 292 611 z m 253 359 b 210 244 238 324 222 285 b 328 70 290 145 328 97 b 271 -40 328 46 307 3 b 119 -122 228 -90 175 -122 b 50 -114 94 -122 71 -119 l 43 -150 b 238 -209 111 -187 186 -209 b 374 -94 297 -209 342 -167 b 395 17 389 -60 395 -22 b 389 85 395 39 393 62 b 382 148 387 98 387 116 b 266 359 373 203 340 262 z "},"ړ":{"ha":486,"x_min":0,"x_max":0,"o":"m 253 359 b 211 245 238 324 224 286 b 328 70 292 146 328 97 b 271 -40 328 46 307 3 b 119 -122 228 -90 175 -122 b 50 -114 94 -122 71 -119 l 43 -150 b 237 -206 111 -187 185 -206 b 311 -178 265 -206 290 -195 b 401 -243 324 -215 359 -243 b 496 -148 454 -243 496 -200 b 399 -53 496 -100 459 -53 b 384 -54 394 -53 389 -53 b 394 17 391 -28 394 -4 b 389 85 394 39 393 62 b 382 148 387 98 387 116 b 266 357 373 203 338 260 z m 351 -148 b 401 -97 351 -120 374 -97 b 452 -148 429 -97 452 -120 b 401 -199 452 -176 429 -199 b 351 -148 374 -199 351 -176 z "},"ڔ":{"ha":450,"x_min":0,"x_max":0,"o":"m 334 -297 b 444 -372 375 -323 413 -348 b 492 -289 467 -350 483 -322 b 382 -210 458 -260 422 -234 z m 253 359 b 210 244 238 324 222 285 b 328 70 290 145 328 97 b 271 -40 328 46 307 3 b 119 -122 228 -90 175 -122 b 50 -114 94 -122 71 -119 l 43 -150 b 238 -209 111 -187 186 -209 b 374 -94 297 -209 342 -167 b 395 17 389 -60 395 -22 b 389 85 395 39 393 62 b 382 148 387 98 387 116 b 266 359 373 203 340 262 z "},"ڕ":{"ha":441,"x_min":0,"x_max":0,"o":"m 408 -245 b 340 -363 362 -300 343 -338 l 338 -363 b 224 -248 328 -346 292 -307 l 215 -248 l 202 -316 b 340 -452 271 -369 323 -420 l 357 -444 b 438 -302 365 -413 388 -361 b 412 -245 430 -280 422 -264 z m 253 359 b 210 244 238 324 222 285 b 328 70 290 145 328 97 b 271 -40 328 46 307 3 b 119 -122 228 -90 175 -122 b 50 -114 94 -122 71 -119 l 43 -150 b 238 -209 111 -187 186 -209 b 374 -94 297 -209 342 -167 b 395 17 389 -60 395 -22 b 389 85 395 39 393 62 b 382 148 387 98 387 116 b 266 359 373 203 340 262 z "},"ږ":{"ha":450,"x_min":0,"x_max":0,"o":"m 334 -297 b 444 -372 375 -323 413 -348 b 492 -289 467 -350 483 -322 b 382 -210 458 -260 422 -234 z m 65 53 b 172 -20 104 28 141 4 b 218 61 193 2 209 28 b 112 138 185 88 151 114 z m 253 359 b 210 244 238 324 222 285 b 328 70 290 145 328 97 b 271 -40 328 46 307 3 b 119 -122 228 -90 175 -122 b 50 -114 94 -122 71 -119 l 43 -150 b 238 -209 111 -187 186 -209 b 374 -94 297 -209 342 -167 b 395 17 389 -60 395 -22 b 389 85 395 39 393 62 b 382 148 387 98 387 116 b 266 359 373 203 340 262 z "},"ڗ":{"ha":441,"x_min":0,"x_max":0,"o":"m 192 525 b 284 444 223 498 254 472 b 340 513 307 465 326 488 b 249 597 315 541 284 570 z m 50 519 b 142 438 81 492 112 466 b 197 507 165 458 184 481 b 106 591 173 535 142 564 z m 253 359 b 210 244 238 324 222 285 b 328 70 290 145 328 97 b 271 -40 328 46 307 3 b 119 -122 228 -90 175 -122 b 50 -114 94 -122 71 -119 l 43 -150 b 238 -209 111 -187 186 -209 b 374 -94 297 -209 342 -167 b 395 17 389 -60 395 -22 b 389 85 395 39 393 62 b 382 148 387 98 387 116 b 266 359 373 203 340 262 z "},"ژ":{"ha":441,"x_min":0,"x_max":0,"o":"m 195 505 b 288 424 227 478 257 452 b 342 493 311 444 329 467 b 252 577 318 521 288 549 z m 53 498 b 145 418 84 472 115 446 b 201 487 168 438 187 461 b 110 571 176 515 146 543 z m 87 645 b 179 564 118 618 149 592 b 235 633 202 585 221 608 b 144 718 210 661 179 690 z m 253 359 b 210 244 238 324 222 285 b 328 70 290 145 328 97 b 271 -40 328 46 307 3 b 119 -122 228 -90 175 -122 b 50 -114 94 -122 71 -119 l 43 -150 b 238 -209 111 -187 186 -209 b 374 -94 297 -209 342 -167 b 395 17 389 -60 395 -22 b 389 85 395 39 393 62 b 382 148 387 98 387 116 b 266 359 373 203 340 262 z "},"ﮋ":{"ha":445,"x_min":0,"x_max":0,"o":"m 190 410 b 282 329 221 383 252 357 b 338 398 305 349 324 372 b 247 482 313 426 282 454 z m 47 404 b 140 323 79 377 110 351 b 195 392 163 343 182 366 b 104 476 170 420 140 448 z m 81 550 b 174 469 113 524 143 497 b 229 538 197 490 216 513 b 138 623 204 566 174 595 z m 441 136 l 432 136 b 263 269 356 136 311 190 l 253 269 b 220 168 241 239 231 205 b 316 43 252 118 284 77 b 257 -87 314 1 295 -46 b 119 -149 221 -126 176 -149 b 56 -138 104 -149 83 -146 l 47 -172 b 237 -239 126 -219 187 -239 b 359 -140 293 -239 331 -199 b 382 -37 372 -112 382 -79 b 378 13 382 -22 381 -5 b 452 0 401 6 424 0 l 463 0 z "},"ڙ":{"ha":441,"x_min":0,"x_max":0,"o":"m 197 491 b 290 410 229 465 259 438 b 345 479 313 431 332 454 b 254 564 320 507 290 536 z m 53 485 b 145 404 84 458 115 432 b 201 473 168 425 187 448 b 110 557 176 501 146 530 z m 149 646 b 241 565 180 619 211 593 b 296 634 264 585 283 608 b 206 718 272 662 241 690 z m 5 640 b 97 559 36 613 66 587 b 153 628 120 579 139 602 b 62 712 127 656 98 684 z m 253 359 b 210 244 238 324 222 285 b 328 70 290 145 328 97 b 271 -40 328 46 307 3 b 119 -122 228 -90 175 -122 b 50 -114 94 -122 71 -119 l 43 -150 b 238 -209 111 -187 186 -209 b 374 -94 297 -209 342 -167 b 395 17 389 -60 395 -22 b 389 85 395 39 393 62 b 382 148 387 98 387 116 b 266 359 373 203 340 262 z "},"ۯ":{"ha":441,"x_min":0,"x_max":0,"o":"m 115 441 b 182 559 161 496 180 534 l 184 559 b 298 445 195 543 231 503 l 308 445 l 321 513 b 183 648 252 566 199 617 l 165 641 b 85 498 158 610 135 558 b 111 441 93 477 101 460 z m 253 359 b 210 244 238 324 222 285 b 328 70 290 145 328 97 b 271 -40 328 46 307 3 b 119 -122 228 -90 175 -122 b 50 -114 94 -122 71 -119 l 43 -150 b 238 -209 111 -187 186 -209 b 374 -94 297 -209 342 -167 b 395 17 389 -60 395 -22 b 389 85 395 39 393 62 b 382 148 387 98 387 116 b 266 359 373 203 340 262 z "},"ݛ":{"ha":441,"x_min":0,"x_max":0,"o":"m 253 358 b 211 245 238 323 224 286 b 328 68 292 146 328 94 b 313 22 328 56 323 41 l 104 22 l 81 -37 l 280 -37 l 281 -39 b 126 -134 235 -98 185 -134 b 53 -124 101 -134 76 -130 l 45 -160 b 239 -218 112 -197 186 -218 b 371 -94 298 -218 339 -166 b 394 22 387 -57 394 -19 b 389 84 394 42 393 63 b 382 146 387 97 387 115 b 266 356 373 202 338 259 z "},"ݫ":{"ha":441,"x_min":0,"x_max":0,"o":"m 110 493 b 215 422 149 469 185 445 b 260 501 236 443 251 470 b 156 576 229 528 194 553 z m 65 649 b 170 578 103 625 140 601 b 215 657 191 599 205 626 b 111 732 184 684 149 709 z m 253 359 b 210 244 238 324 222 285 b 328 70 290 145 328 97 b 271 -40 328 46 307 3 b 119 -122 228 -90 175 -122 b 50 -114 94 -122 71 -119 l 43 -150 b 238 -209 111 -187 186 -209 b 374 -94 297 -209 342 -167 b 395 17 389 -60 395 -22 b 389 85 395 39 393 62 b 382 148 387 98 387 116 b 266 359 373 203 340 262 z "},"ݬ":{"ha":441,"x_min":0,"x_max":0,"o":"m 227 545 b 239 588 235 561 239 575 b 184 633 239 615 216 633 b 106 597 156 633 129 620 b 75 529 85 574 75 549 b 125 467 75 499 95 479 b 107 416 119 450 113 433 l 117 408 b 277 456 150 431 205 447 b 297 511 286 475 292 493 l 293 517 b 225 515 269 516 250 515 b 131 553 168 515 131 535 b 173 575 131 563 149 575 b 197 566 182 575 190 572 l 218 545 z m 253 359 b 210 244 238 324 222 285 b 328 70 290 145 328 97 b 271 -40 328 46 307 3 b 119 -122 228 -90 175 -122 b 50 -114 94 -122 71 -119 l 43 -150 b 238 -209 111 -187 186 -209 b 374 -94 297 -209 342 -167 b 395 17 389 -60 395 -22 b 389 85 395 39 393 62 b 382 148 387 98 387 116 b 266 359 373 203 340 262 z "},"ښ":{"ha":927,"x_min":0,"x_max":0,"o":"m 654 57 b 751 8 694 19 725 8 b 840 81 790 8 817 37 b 863 170 854 108 863 137 b 859 207 863 181 861 194 b 821 355 851 257 838 306 l 812 357 b 749 279 790 334 770 308 b 791 155 772 222 787 179 b 765 145 786 148 777 145 b 705 170 745 145 724 153 b 676 254 684 186 676 224 b 678 280 676 262 677 271 l 673 284 b 625 252 657 275 641 265 b 599 151 619 216 622 170 b 560 136 587 141 573 136 b 505 175 534 136 518 153 b 441 286 482 216 461 252 l 433 288 b 382 178 416 257 399 219 b 484 6 433 113 477 51 b 435 -60 483 -16 463 -39 b 309 -103 401 -86 361 -103 b 190 -64 267 -103 225 -91 b 121 78 139 -26 121 23 b 136 168 121 101 125 131 l 97 186 b 68 44 77 141 68 91 b 315 -241 68 -99 155 -241 b 506 -144 397 -241 468 -203 b 536 -9 527 -111 536 -65 l 536 -3 b 650 57 602 -3 631 22 z m 491 469 b 601 394 532 444 570 418 b 649 477 623 416 640 444 b 539 557 615 506 579 532 z m 638 -202 b 748 -277 679 -228 717 -253 b 796 -194 770 -255 787 -227 b 686 -115 762 -165 726 -139 z "},"ڛ":{"ha":927,"x_min":0,"x_max":0,"o":"m 654 57 b 751 8 694 19 725 8 b 840 81 790 8 817 37 b 863 170 854 108 863 137 b 859 207 863 181 861 194 b 821 355 851 257 838 306 l 812 357 b 749 279 790 334 770 308 b 791 155 772 222 787 179 b 765 145 786 148 777 145 b 705 170 745 145 724 153 b 676 254 684 186 676 224 b 678 280 676 262 677 271 l 673 284 b 625 252 657 275 641 265 b 599 151 619 216 622 170 b 560 136 587 141 573 136 b 505 175 534 136 518 153 b 441 286 482 216 461 252 l 433 288 b 382 178 416 257 399 219 b 484 6 433 113 477 51 b 435 -60 483 -16 463 -39 b 309 -103 401 -86 361 -103 b 190 -64 267 -103 225 -91 b 121 78 139 -26 121 23 b 136 168 121 101 125 131 l 97 186 b 68 44 77 141 68 91 b 315 -241 68 -99 155 -241 b 506 -144 397 -241 468 -203 b 536 -9 527 -111 536 -65 l 536 -3 b 650 57 602 -3 631 22 z m 581 -199 b 673 -280 612 -226 643 -252 b 729 -211 696 -260 715 -237 b 638 -127 704 -183 674 -155 z m 692 -342 b 785 -423 724 -369 755 -395 b 840 -354 808 -403 827 -380 b 750 -270 816 -326 785 -298 z m 724 -193 b 815 -274 755 -220 785 -246 b 871 -205 839 -254 857 -231 b 781 -121 846 -177 816 -149 z "},"ڜ":{"ha":927,"x_min":0,"x_max":0,"o":"m 654 57 b 751 8 694 19 725 8 b 840 81 790 8 817 37 b 863 170 854 108 863 137 b 859 207 863 181 861 194 b 821 355 851 257 838 306 l 812 357 b 749 279 790 334 770 308 b 791 155 772 222 787 179 b 765 145 786 148 777 145 b 705 170 745 145 724 153 b 676 254 684 186 676 224 b 678 280 676 262 677 271 l 673 284 b 625 252 657 275 641 265 b 599 151 619 216 622 170 b 560 136 587 141 573 136 b 505 175 534 136 518 153 b 441 286 482 216 461 252 l 433 288 b 382 178 416 257 399 219 b 484 6 433 113 477 51 b 435 -60 483 -16 463 -39 b 309 -103 401 -86 361 -103 b 190 -64 267 -103 225 -91 b 121 78 139 -26 121 23 b 136 168 121 101 125 131 l 97 186 b 68 44 77 141 68 91 b 315 -241 68 -99 155 -241 b 506 -144 397 -241 468 -203 b 536 -9 527 -111 536 -65 l 536 -3 b 650 57 602 -3 631 22 z m 581 -199 b 673 -280 612 -226 643 -252 b 729 -211 696 -260 715 -237 b 638 -127 704 -183 674 -155 z m 692 -342 b 785 -423 724 -369 755 -395 b 840 -354 808 -403 827 -380 b 750 -270 816 -326 785 -298 z m 476 595 b 572 519 509 570 541 546 b 623 592 593 541 612 565 b 529 672 597 618 566 646 z m 442 446 b 538 370 475 421 507 397 b 589 443 559 392 577 416 b 494 523 563 469 532 496 z m 724 -193 b 815 -274 755 -220 785 -246 b 871 -205 839 -254 857 -231 b 781 -121 846 -177 816 -149 z m 590 453 b 685 377 623 428 654 404 b 736 450 707 399 725 422 b 642 530 710 476 679 503 z "},"ݜ":{"ha":927,"x_min":0,"x_max":0,"o":"m 654 57 b 751 8 694 19 725 8 b 840 81 790 8 817 37 b 863 170 854 108 863 137 b 859 207 863 181 861 194 b 821 355 851 257 838 306 l 812 357 b 749 279 790 334 770 308 b 791 155 772 222 787 179 b 765 145 786 148 777 145 b 705 170 745 145 724 153 b 676 254 684 186 676 224 b 678 280 676 262 677 271 l 673 284 b 625 252 657 275 641 265 b 599 151 619 216 622 170 b 560 136 587 141 573 136 b 505 175 534 136 518 153 b 441 286 482 216 461 252 l 433 288 b 382 178 416 257 399 219 b 484 6 433 113 477 51 b 435 -60 483 -16 463 -39 b 309 -103 401 -86 361 -103 b 190 -64 267 -103 225 -91 b 121 78 139 -26 121 23 b 136 168 121 101 125 131 l 97 186 b 68 44 77 141 68 91 b 315 -241 68 -99 155 -241 b 506 -144 397 -241 468 -203 b 536 -9 527 -111 536 -65 l 536 -3 b 650 57 602 -3 631 22 z m 390 606 b 482 525 421 579 452 553 b 538 594 505 545 524 568 b 447 678 513 622 483 650 z m 438 451 b 530 370 469 425 500 398 b 586 439 553 391 572 414 b 495 524 561 467 531 496 z m 583 457 b 675 376 614 431 644 404 b 730 446 698 397 716 420 b 640 530 705 473 675 502 z m 534 612 b 626 531 566 585 596 559 b 682 600 650 551 668 574 b 591 684 657 628 627 656 z "},"ݭ":{"ha":927,"x_min":0,"x_max":0,"o":"m 508 446 b 613 375 547 422 583 398 b 658 454 634 396 649 423 b 554 530 627 481 592 507 z m 463 602 b 568 531 501 578 538 554 b 613 610 589 552 604 579 b 509 686 582 637 547 663 z m 654 57 b 751 8 694 19 725 8 b 840 81 790 8 817 37 b 863 170 854 108 863 137 b 859 207 863 181 861 194 b 821 355 851 257 838 306 l 812 357 b 749 279 790 334 770 308 b 791 155 772 222 787 179 b 765 145 786 148 777 145 b 705 170 745 145 724 153 b 676 254 684 186 676 224 b 678 280 676 262 677 271 l 673 284 b 625 252 657 275 641 265 b 599 151 619 216 622 170 b 560 136 587 141 573 136 b 505 175 534 136 518 153 b 441 286 482 216 461 252 l 433 288 b 382 178 416 257 399 219 b 484 6 433 113 477 51 b 435 -60 483 -16 463 -39 b 309 -103 401 -86 361 -103 b 190 -64 267 -103 225 -91 b 121 78 139 -26 121 23 b 136 168 121 101 125 131 l 97 186 b 68 44 77 141 68 91 b 315 -241 68 -99 155 -241 b 506 -144 397 -241 468 -203 b 536 -9 527 -111 536 -65 l 536 -3 b 650 57 602 -3 631 22 z "},"ۺ":{"ha":927,"x_min":0,"x_max":0,"o":"m 654 57 b 751 8 694 19 725 8 b 840 81 790 8 817 37 b 863 170 854 108 863 137 b 859 207 863 181 861 194 b 821 355 851 257 838 306 l 812 357 b 749 279 790 334 770 308 b 791 155 772 222 787 179 b 765 145 786 148 777 145 b 705 170 745 145 724 153 b 676 254 684 186 676 224 b 678 280 676 262 677 271 l 673 284 b 625 252 657 275 641 265 b 599 151 619 216 622 170 b 560 136 587 141 573 136 b 505 175 534 136 518 153 b 441 286 482 216 461 252 l 433 288 b 382 178 416 257 399 219 b 484 6 433 113 477 51 b 435 -60 483 -16 463 -39 b 309 -103 401 -86 361 -103 b 190 -64 267 -103 225 -91 b 121 78 139 -26 121 23 b 136 168 121 101 125 131 l 97 186 b 68 44 77 141 68 91 b 315 -241 68 -99 155 -241 b 506 -144 397 -241 468 -203 b 536 -9 527 -111 536 -65 l 536 -3 b 650 57 602 -3 631 22 z m 638 -202 b 748 -277 679 -228 717 -253 b 796 -194 770 -255 787 -227 b 686 -115 762 -165 726 -139 z m 476 595 b 572 519 509 570 541 546 b 623 592 593 541 612 565 b 529 672 597 618 566 646 z m 442 446 b 538 370 475 421 507 397 b 589 443 559 392 577 416 b 494 523 563 469 532 496 z m 590 453 b 685 377 623 428 654 404 b 736 450 707 399 725 422 b 642 530 710 476 679 503 z "},"ڝ":{"ha":1016,"x_min":0,"x_max":0,"o":"m 572 142 b 766 285 627 233 694 285 b 879 194 812 285 856 254 b 667 136 834 153 748 136 b 572 142 633 136 601 138 z m 763 -186 b 855 -267 794 -213 825 -239 b 911 -198 878 -247 897 -224 b 820 -114 886 -170 856 -142 z m 621 -193 b 713 -273 652 -219 683 -245 b 768 -204 736 -253 755 -230 b 678 -120 744 -176 713 -148 z m 515 157 b 437 323 492 220 467 275 l 428 326 b 374 222 409 296 391 262 b 477 18 420 158 456 92 b 416 -52 469 -3 450 -28 b 301 -85 385 -75 345 -85 b 181 -35 260 -85 219 -71 b 125 103 140 3 125 52 b 139 193 125 132 130 162 l 99 210 b 71 68 83 168 71 121 b 311 -220 71 -104 185 -220 b 486 -143 382 -220 441 -194 b 537 8 514 -113 530 -64 b 657 0 577 3 618 0 b 916 94 791 0 872 33 b 947 207 936 121 947 165 b 945 239 947 218 946 229 b 772 403 928 338 855 403 b 518 157 671 403 583 303 z "},"ڞ":{"ha":1016,"x_min":0,"x_max":0,"o":"m 572 142 b 766 285 627 233 694 285 b 879 194 812 285 856 254 b 667 136 834 153 748 136 b 572 142 633 136 601 138 z m 677 548 b 772 472 709 523 741 498 b 823 545 793 494 812 517 b 729 625 797 571 766 598 z m 529 541 b 625 465 562 516 593 492 b 675 538 646 487 664 511 b 581 618 650 564 618 591 z m 563 690 b 659 614 595 665 627 641 b 709 687 680 636 698 660 b 615 767 684 713 652 741 z m 515 157 b 437 323 492 220 467 275 l 428 326 b 374 222 409 296 391 262 b 477 18 420 158 456 92 b 416 -52 469 -3 450 -28 b 301 -85 385 -75 345 -85 b 181 -35 260 -85 219 -71 b 125 103 140 3 125 52 b 139 193 125 132 130 162 l 99 210 b 71 68 83 168 71 121 b 311 -220 71 -104 185 -220 b 486 -143 382 -220 441 -194 b 537 8 514 -113 530 -64 b 657 0 577 3 618 0 b 916 94 791 0 872 33 b 947 207 936 121 947 165 b 945 239 947 218 946 229 b 772 403 928 338 855 403 b 518 157 671 403 583 303 z "},"ۻ":{"ha":1016,"x_min":0,"x_max":0,"o":"m 572 142 b 766 285 627 233 694 285 b 879 194 812 285 856 254 b 667 136 834 153 748 136 b 572 142 633 136 601 138 z m 502 544 b 612 469 543 518 581 493 b 661 552 635 491 650 519 b 551 631 627 581 591 607 z m 677 -195 b 788 -271 718 -221 756 -246 b 836 -187 810 -248 826 -220 b 726 -108 802 -159 766 -132 z m 515 157 b 437 323 492 220 467 275 l 428 326 b 374 222 409 296 391 262 b 477 18 420 158 456 92 b 416 -52 469 -3 450 -28 b 301 -85 385 -75 345 -85 b 181 -35 260 -85 219 -71 b 125 103 140 3 125 52 b 139 193 125 132 130 162 l 99 210 b 71 68 83 168 71 121 b 311 -220 71 -104 185 -220 b 486 -143 382 -220 441 -194 b 537 8 514 -113 530 -64 b 657 0 577 3 618 0 b 916 94 791 0 872 33 b 947 207 936 121 947 165 b 945 239 947 218 946 229 b 772 403 928 338 855 403 b 518 157 671 403 583 303 z "},"ڟ":{"ha":807,"x_min":0,"x_max":0,"o":"m 510 536 b 597 464 541 513 570 488 b 646 530 617 485 634 506 b 562 603 619 557 592 581 z m 376 527 b 463 455 408 504 437 479 b 512 522 484 476 500 497 b 428 594 486 548 458 572 z m 406 660 b 493 588 437 637 466 612 b 542 654 513 609 530 630 b 458 727 515 681 488 705 z m 304 229 b 313 302 311 252 313 277 b 307 372 313 325 311 348 b 283 509 302 402 293 454 l 334 554 b 230 737 260 648 237 694 l 221 742 b 167 654 182 705 167 681 b 193 548 167 621 186 583 b 237 330 211 467 227 398 b 256 165 248 264 255 210 l 239 136 b 28 159 174 141 104 149 l 26 151 b 168 15 71 105 119 60 l 202 11 l 201 -65 l 215 -79 b 265 4 231 -47 248 -20 b 363 0 296 1 330 0 b 705 85 514 0 649 28 b 737 209 726 117 737 170 b 554 401 737 309 659 401 b 308 228 463 401 382 332 z m 314 134 b 542 277 396 231 471 277 b 663 200 600 277 648 235 b 314 134 614 155 493 134 z "},"ڠ":{"ha":606,"x_min":0,"x_max":0,"o":"m 137 613 b 229 532 168 587 199 560 b 285 602 252 553 271 576 b 194 686 260 629 230 658 z m -4 607 b 87 526 26 581 57 554 b 142 595 111 547 129 570 b 52 680 118 623 87 652 z m 29 753 b 121 673 60 727 91 701 b 176 742 144 693 163 716 b 86 826 152 770 121 798 z m 352 388 b 188 492 300 456 245 492 b 58 396 130 492 81 452 b 39 307 44 362 39 333 b 149 142 39 235 83 184 b 85 -41 105 79 85 18 b 428 -332 85 -235 248 -332 b 508 -322 456 -332 484 -330 b 651 -202 555 -294 602 -252 l 638 -186 b 489 -199 591 -195 541 -199 b 149 -28 290 -199 149 -123 b 444 188 149 39 252 119 b 459 311 451 228 455 270 l 452 317 b 246 231 332 269 264 231 b 172 263 230 231 203 243 b 111 333 141 287 111 315 b 237 393 111 347 169 393 b 336 366 268 393 301 385 z "},"ݝ":{"ha":606,"x_min":0,"x_max":0,"o":"m 136 627 b 229 547 168 601 198 574 b 284 616 252 567 271 590 b 193 700 259 644 229 672 z m -5 621 b 86 541 26 595 56 568 b 142 610 110 561 128 584 b 51 694 117 637 87 666 z m 352 388 b 188 492 300 456 245 492 b 58 396 130 492 81 452 b 39 307 44 362 39 333 b 149 142 39 235 83 184 b 85 -41 105 79 85 18 b 428 -332 85 -235 248 -332 b 508 -322 456 -332 484 -330 b 651 -202 555 -294 602 -252 l 638 -186 b 489 -199 591 -195 541 -199 b 149 -28 290 -199 149 -123 b 444 188 149 39 252 119 b 459 311 451 228 455 270 l 452 317 b 246 231 332 269 264 231 b 172 263 230 231 203 243 b 111 333 141 287 111 315 b 237 393 111 347 169 393 b 336 366 268 393 301 385 z "},"ݞ":{"ha":606,"x_min":0,"x_max":0,"o":"m 94 766 b 186 685 125 739 156 713 b 241 754 210 705 228 728 b 151 838 217 782 186 810 z m -47 760 b 44 679 -16 733 14 707 b 100 748 67 699 86 722 b 9 832 75 776 45 804 z m 64 616 b 155 536 95 590 125 564 b 211 605 179 556 197 579 b 121 689 186 633 156 661 z m 352 388 b 188 492 300 456 245 492 b 58 396 130 492 81 452 b 39 307 44 362 39 333 b 149 142 39 235 83 184 b 85 -41 105 79 85 18 b 428 -332 85 -235 248 -332 b 508 -322 456 -332 484 -330 b 651 -202 555 -294 602 -252 l 638 -186 b 489 -199 591 -195 541 -199 b 149 -28 290 -199 149 -123 b 444 188 149 39 252 119 b 459 311 451 228 455 270 l 452 317 b 246 231 332 269 264 231 b 172 263 230 231 203 243 b 111 333 141 287 111 315 b 237 393 111 347 169 393 b 336 366 268 393 301 385 z "},"ݟ":{"ha":606,"x_min":0,"x_max":0,"o":"m 43 599 b 148 528 81 575 118 551 b 193 607 169 549 184 576 b 89 682 162 633 127 659 z m -1 755 b 103 684 37 731 73 707 b 148 763 124 705 139 732 b 44 838 117 789 82 815 z m 352 388 b 188 492 300 456 245 492 b 58 396 130 492 81 452 b 39 307 44 362 39 333 b 149 142 39 235 83 184 b 85 -41 105 79 85 18 b 428 -332 85 -235 248 -332 b 508 -322 456 -332 484 -330 b 651 -202 555 -294 602 -252 l 638 -186 b 489 -199 591 -195 541 -199 b 149 -28 290 -199 149 -123 b 444 188 149 39 252 119 b 459 311 451 228 455 270 l 452 317 b 246 231 332 269 264 231 b 172 263 230 231 203 243 b 111 333 141 287 111 315 b 237 393 111 347 169 393 b 336 366 268 393 301 385 z "},"ۼ":{"ha":606,"x_min":0,"x_max":0,"o":"m 23 625 b 134 550 64 600 102 574 b 182 633 156 572 172 600 b 72 713 148 662 112 688 z m 311 -31 b 421 -106 352 -56 390 -81 b 469 -22 444 -83 459 -56 b 359 57 435 6 399 33 z m 352 388 b 188 492 300 456 245 492 b 58 396 130 492 81 452 b 39 307 44 362 39 333 b 149 142 39 235 83 184 b 85 -41 105 79 85 18 b 428 -332 85 -235 248 -332 b 508 -322 456 -332 484 -330 b 651 -202 555 -294 602 -252 l 638 -186 b 489 -199 591 -195 541 -199 b 149 -28 290 -199 149 -123 b 444 188 149 39 252 119 b 459 311 451 228 455 270 l 452 317 b 246 231 332 269 264 231 b 172 263 230 231 203 243 b 111 333 141 287 111 315 b 237 393 111 347 169 393 b 336 366 268 393 301 385 z "},"ڡ":{"ha":907,"x_min":0,"x_max":0,"o":"m 776 187 b 777 182 777 185 777 183 b 743 151 777 167 766 158 b 438 112 648 126 547 112 b 104 332 219 112 104 199 b 110 384 104 348 106 365 l 64 400 b 47 283 54 365 47 328 b 419 -30 47 106 154 -30 b 730 11 540 -30 640 -14 b 823 52 774 24 808 38 b 839 156 833 86 839 122 b 835 208 839 174 838 192 b 635 509 812 353 728 509 b 536 452 597 509 564 487 b 502 347 514 422 502 387 b 704 185 502 239 574 185 b 776 187 728 185 752 185 z m 744 290 b 555 361 638 294 555 319 b 621 403 555 381 578 403 b 744 290 666 403 707 361 z "},"ڢ":{"ha":907,"x_min":0,"x_max":0,"o":"m 644 -212 b 757 -288 686 -237 724 -264 b 806 -203 780 -266 796 -237 b 694 -122 771 -174 734 -146 z m 776 187 b 777 182 777 185 777 183 b 743 151 777 167 766 158 b 438 112 648 126 547 112 b 104 332 219 112 104 199 b 110 384 104 348 106 365 l 64 400 b 47 283 54 365 47 328 b 419 -30 47 106 154 -30 b 730 11 540 -30 640 -14 b 823 52 774 24 808 38 b 839 156 833 86 839 122 b 835 208 839 174 838 192 b 635 509 812 353 728 509 b 536 452 597 509 564 487 b 502 347 514 422 502 387 b 704 185 502 239 574 185 b 776 187 728 185 752 185 z m 744 290 b 555 361 638 294 555 319 b 621 403 555 381 578 403 b 744 290 666 403 707 361 z "},"ڣ":{"ha":907,"x_min":0,"x_max":0,"o":"m 498 629 b 610 553 539 604 578 577 b 659 638 633 575 649 604 b 547 719 625 667 587 694 z m 429 -226 b 546 -305 472 -252 513 -280 b 597 -216 570 -282 587 -252 b 481 -133 561 -187 522 -158 z m 776 187 b 777 182 777 185 777 183 b 743 151 777 167 766 158 b 438 112 648 126 547 112 b 104 332 219 112 104 199 b 110 384 104 348 106 365 l 64 400 b 47 283 54 365 47 328 b 419 -30 47 106 154 -30 b 730 11 540 -30 640 -14 b 823 52 774 24 808 38 b 839 156 833 86 839 122 b 835 208 839 174 838 192 b 635 509 812 353 728 509 b 536 452 597 509 564 487 b 502 347 514 422 502 387 b 704 185 502 239 574 185 b 776 187 728 185 752 185 z m 744 290 b 555 361 638 294 555 319 b 621 403 555 381 578 403 b 744 290 666 403 707 361 z "},"ڤ":{"ha":907,"x_min":0,"x_max":0,"o":"m 583 627 b 675 546 614 600 645 574 b 730 615 698 566 717 589 b 640 699 705 643 675 671 z m 441 621 b 532 540 472 594 503 568 b 588 609 556 560 574 583 b 498 693 564 637 533 665 z m 474 767 b 566 686 506 741 536 714 b 622 755 589 707 608 730 b 531 840 597 783 567 812 z m 776 187 b 777 182 777 185 777 183 b 743 151 777 167 766 158 b 438 112 648 126 547 112 b 104 332 219 112 104 199 b 110 384 104 348 106 365 l 64 400 b 47 283 54 365 47 328 b 419 -30 47 106 154 -30 b 730 11 540 -30 640 -14 b 823 52 774 24 808 38 b 839 156 833 86 839 122 b 835 208 839 174 838 192 b 635 509 812 353 728 509 b 536 452 597 509 564 487 b 502 347 514 422 502 387 b 704 185 502 239 574 185 b 776 187 728 185 752 185 z m 744 290 b 555 361 638 294 555 319 b 621 403 555 381 578 403 b 744 290 666 403 707 361 z "},"ﭬ":{"ha":395,"x_min":0,"x_max":0,"o":"m 74 627 b 166 546 105 600 136 574 b 222 615 189 566 208 589 b 131 699 197 643 167 671 z m -67 621 b 24 540 -36 594 -5 568 b 79 609 47 560 66 583 b -10 693 55 637 24 665 z m -34 767 b 58 686 -2 741 28 714 b 113 755 81 707 100 730 b 22 840 89 783 58 812 z m -3 136 b -43 85 -35 136 -43 115 b 18 0 -43 58 -33 0 l 28 0 b 333 138 226 0 333 9 b 329 187 333 153 332 169 b 124 509 304 343 216 509 b 25 452 85 509 52 487 b -9 347 3 422 -9 387 b 192 185 -9 239 62 185 b 265 189 217 185 242 186 b 269 176 268 185 269 180 b 33 136 269 139 175 136 z m 233 290 b 43 361 127 294 43 319 b 110 403 43 381 66 403 b 233 290 155 403 196 361 z "},"ﭭ":{"ha":444,"x_min":0,"x_max":0,"o":"m 162 586 b 254 505 193 559 224 533 b 309 574 277 526 296 549 b 219 659 285 602 254 631 z m 20 580 b 112 499 51 553 81 527 b 168 568 135 519 154 543 b 77 652 142 596 113 625 z m 54 726 b 146 646 85 700 115 673 b 201 715 169 666 188 689 b 111 799 176 743 146 771 z m -3 136 b -43 85 -35 136 -43 115 b 18 0 -43 58 -33 0 l 28 0 b 211 42 102 0 162 16 b 453 0 311 9 353 0 l 463 0 l 441 136 l 431 136 b 332 144 401 136 368 139 b 348 242 341 176 348 208 b 283 422 348 307 329 368 b 210 465 261 448 237 465 b 115 412 175 465 143 444 b 62 273 82 374 62 329 b 91 144 62 230 76 181 b 7 136 67 138 38 136 z m 109 248 b 203 337 121 294 159 337 b 297 236 248 337 297 270 b 213 167 297 214 266 183 b 109 248 159 185 122 212 z "},"ﭫ":{"ha":999,"x_min":0,"x_max":0,"o":"m 711 586 b 804 505 743 559 773 533 b 859 574 827 526 845 549 b 768 659 834 602 804 631 z m 569 580 b 661 499 600 553 631 527 b 717 568 684 519 703 543 b 626 652 692 596 662 625 z m 603 726 b 695 646 634 700 665 673 b 751 715 718 666 737 689 b 660 799 726 743 695 771 z m 1017 0 l 996 136 l 986 136 b 888 145 953 136 920 138 b 903 237 896 171 903 200 b 838 422 903 302 885 366 b 764 465 816 448 791 465 b 670 412 730 465 698 444 b 616 272 637 373 616 328 b 647 136 616 227 631 172 b 432 112 576 119 505 112 b 103 328 229 115 103 191 b 110 382 103 346 105 363 l 64 399 b 47 279 52 359 47 319 b 422 -30 47 87 179 -30 b 791 40 544 -30 667 -4 b 1008 0 852 15 914 0 z m 664 248 b 758 337 675 294 714 337 b 852 236 802 337 852 270 b 768 165 852 214 821 182 b 664 248 714 184 677 212 z "},"ڥ":{"ha":907,"x_min":0,"x_max":0,"o":"m 712 -184 b 804 -264 744 -210 774 -237 b 860 -195 828 -244 846 -221 b 769 -111 836 -168 805 -139 z m 570 -190 b 663 -271 602 -216 632 -243 b 718 -201 686 -250 705 -227 b 627 -117 693 -174 663 -145 z m 682 -333 b 774 -414 713 -359 744 -386 b 829 -345 797 -393 816 -370 b 739 -260 804 -317 774 -288 z m 776 187 b 777 182 777 185 777 183 b 743 151 777 167 766 158 b 438 112 648 126 547 112 b 104 332 219 112 104 199 b 110 384 104 348 106 365 l 64 400 b 47 283 54 365 47 328 b 419 -30 47 106 154 -30 b 730 11 540 -30 640 -14 b 823 52 774 24 808 38 b 839 156 833 86 839 122 b 835 208 839 174 838 192 b 635 509 812 353 728 509 b 536 452 597 509 564 487 b 502 347 514 422 502 387 b 704 185 502 239 574 185 b 776 187 728 185 752 185 z m 744 290 b 555 361 638 294 555 319 b 621 403 555 381 578 403 b 744 290 666 403 707 361 z "},"ڦ":{"ha":907,"x_min":0,"x_max":0,"o":"m 591 620 b 683 539 622 593 652 567 b 738 608 706 559 724 583 b 648 692 713 636 683 665 z m 446 614 b 538 533 477 587 509 561 b 594 602 562 553 581 576 b 503 686 569 630 539 659 z m 543 774 b 634 694 574 748 604 722 b 690 763 658 714 676 737 b 600 847 665 791 635 819 z m 398 768 b 490 688 429 742 460 715 b 546 757 513 708 532 731 b 455 841 521 785 491 813 z m 776 187 b 777 182 777 185 777 183 b 743 151 777 167 766 158 b 438 112 648 126 547 112 b 104 332 219 112 104 199 b 110 384 104 348 106 365 l 64 400 b 47 283 54 365 47 328 b 419 -30 47 106 154 -30 b 730 11 540 -30 640 -14 b 823 52 774 24 808 38 b 839 156 833 86 839 122 b 835 208 839 174 838 192 b 635 509 812 353 728 509 b 536 452 597 509 564 487 b 502 347 514 422 502 387 b 704 185 502 239 574 185 b 776 187 728 185 752 185 z m 744 290 b 555 361 638 294 555 319 b 621 403 555 381 578 403 b 744 290 666 403 707 361 z "},"ﭰ":{"ha":395,"x_min":0,"x_max":0,"o":"m 75 620 b 168 539 106 593 137 567 b 222 608 191 559 209 583 b 132 692 198 636 168 665 z m -68 614 b 23 533 -37 587 -6 561 b 79 602 46 553 65 576 b -12 686 54 630 24 659 z m 27 774 b 119 694 58 748 89 722 b 174 763 142 714 161 737 b 84 847 150 791 119 819 z m -117 768 b -24 688 -85 742 -55 715 b 31 757 -1 708 18 731 b -60 841 6 785 -24 813 z m -3 136 b -43 85 -35 136 -43 115 b 18 0 -43 58 -33 0 l 28 0 b 333 138 226 0 333 9 b 329 187 333 153 332 169 b 124 509 304 343 216 509 b 25 452 85 509 52 487 b -9 347 3 422 -9 387 b 192 185 -9 239 62 185 b 265 189 217 185 242 186 b 269 176 268 185 269 180 b 33 136 269 139 175 136 z m 233 290 b 43 361 127 294 43 319 b 110 403 43 381 66 403 b 233 290 155 403 196 361 z "},"ﭱ":{"ha":444,"x_min":0,"x_max":0,"o":"m 155 586 b 248 505 186 559 217 533 b 302 574 271 526 289 549 b 212 659 278 602 248 631 z m 12 580 b 103 499 42 553 73 527 b 159 568 126 519 145 543 b 68 652 134 596 104 625 z m 107 741 b 199 660 138 714 169 688 b 254 729 222 680 241 703 b 164 813 230 757 199 785 z m -37 734 b 55 654 -5 708 24 682 b 111 723 78 674 97 697 b 20 807 85 751 56 779 z m -3 136 b -43 85 -35 136 -43 115 b 18 0 -43 58 -33 0 l 28 0 b 211 42 102 0 162 16 b 453 0 311 9 353 0 l 463 0 l 441 136 l 431 136 b 332 144 401 136 368 139 b 348 242 341 176 348 208 b 283 422 348 307 329 368 b 210 465 261 448 237 465 b 115 412 175 465 143 444 b 62 273 82 374 62 329 b 91 144 62 230 76 181 b 7 136 67 138 38 136 z m 109 248 b 203 337 121 294 159 337 b 297 236 248 337 297 270 b 213 167 297 214 266 183 b 109 248 159 185 122 212 z "},"ﭯ":{"ha":999,"x_min":0,"x_max":0,"o":"m 711 586 b 804 505 743 559 773 533 b 859 574 827 526 845 549 b 768 659 834 602 804 631 z m 567 580 b 659 499 598 553 629 527 b 715 568 682 519 701 543 b 624 652 690 596 660 625 z m 663 741 b 755 660 694 714 725 688 b 810 729 779 680 797 703 b 720 813 786 757 755 785 z m 519 734 b 611 654 550 708 581 682 b 667 723 634 674 653 697 b 576 807 642 751 612 779 z m 1017 0 l 996 136 l 986 136 b 888 145 953 136 920 138 b 903 237 896 171 903 200 b 838 422 903 302 885 366 b 764 465 816 448 791 465 b 670 412 730 465 698 444 b 616 272 637 373 616 328 b 647 136 616 227 631 172 b 432 112 576 119 505 112 b 103 328 229 115 103 191 b 110 382 103 346 105 363 l 64 399 b 47 279 52 359 47 319 b 422 -30 47 87 179 -30 b 791 40 544 -30 667 -4 b 1008 0 852 15 914 0 z m 664 248 b 758 337 675 294 714 337 b 852 236 802 337 852 270 b 768 165 852 214 821 182 b 664 248 714 184 677 212 z "},"ݠ":{"ha":907,"x_min":0,"x_max":0,"o":"m 719 -184 b 811 -264 751 -210 781 -237 b 867 -195 835 -244 853 -221 b 776 -111 842 -168 812 -139 z m 577 -190 b 669 -271 608 -216 639 -243 b 725 -201 692 -250 711 -227 b 634 -117 700 -174 669 -145 z m 776 187 b 777 182 777 185 777 183 b 743 151 777 167 766 158 b 438 112 648 126 547 112 b 104 332 219 112 104 199 b 110 384 104 348 106 365 l 64 400 b 47 283 54 365 47 328 b 419 -30 47 106 154 -30 b 730 11 540 -30 640 -14 b 823 52 774 24 808 38 b 839 156 833 86 839 122 b 835 208 839 174 838 192 b 635 509 812 353 728 509 b 536 452 597 509 564 487 b 502 347 514 422 502 387 b 704 185 502 239 574 185 b 776 187 728 185 752 185 z m 744 290 b 555 361 638 294 555 319 b 621 403 555 381 578 403 b 744 290 666 403 707 361 z "},"ݡ":{"ha":907,"x_min":0,"x_max":0,"o":"m 753 -279 b 848 -355 786 -304 817 -329 b 900 -283 870 -334 888 -310 b 806 -203 873 -256 842 -229 z m 606 -286 b 701 -362 638 -311 670 -336 b 752 -290 723 -340 741 -317 b 658 -210 726 -263 695 -236 z m 640 -137 b 735 -213 672 -162 704 -186 b 786 -140 757 -191 775 -168 b 692 -60 760 -114 729 -87 z m 776 187 b 777 182 777 185 777 183 b 743 151 777 167 766 158 b 438 112 648 126 547 112 b 104 332 219 112 104 199 b 110 384 104 348 106 365 l 64 400 b 47 283 54 365 47 328 b 419 -30 47 106 154 -30 b 730 11 540 -30 640 -14 b 823 52 774 24 808 38 b 839 156 833 86 839 122 b 835 208 839 174 838 192 b 635 509 812 353 728 509 b 536 452 597 509 564 487 b 502 347 514 422 502 387 b 704 185 502 239 574 185 b 776 187 728 185 752 185 z m 744 290 b 555 361 638 294 555 319 b 621 403 555 381 578 403 b 744 290 666 403 707 361 z "},"ڧ":{"ha":734,"x_min":0,"x_max":0,"o":"m 305 589 b 418 512 347 563 385 536 b 467 597 441 534 457 564 b 355 678 432 626 395 654 z m 617 94 b 624 76 621 88 623 83 b 536 1 605 49 574 24 b 366 -50 483 -33 425 -50 b 120 214 226 -50 120 41 b 125 281 120 235 121 258 l 77 294 b 66 170 71 254 66 212 b 373 -188 66 17 138 -188 b 592 -109 460 -188 531 -158 b 670 -13 632 -77 656 -43 b 680 62 676 9 680 35 b 673 134 680 84 677 108 b 464 439 656 245 568 439 b 330 266 401 439 330 370 b 401 117 330 207 355 145 b 529 83 445 91 488 83 b 617 94 555 83 585 87 z m 580 210 b 530 206 565 208 548 206 b 387 269 444 206 387 233 b 455 321 387 288 407 321 b 580 210 503 321 545 279 z "},"ڨ":{"ha":734,"x_min":0,"x_max":0,"o":"m 393 579 b 486 498 425 553 456 526 b 541 568 509 519 528 542 b 450 652 516 595 486 624 z m 252 573 b 344 492 283 547 313 520 b 399 562 367 513 385 536 b 309 646 374 589 344 618 z m 285 720 b 377 639 317 693 347 667 b 433 708 401 659 419 682 b 342 792 408 736 378 764 z m 617 94 b 624 76 621 88 623 83 b 536 1 605 49 574 24 b 366 -50 483 -33 425 -50 b 120 214 226 -50 120 41 b 125 281 120 235 121 258 l 77 294 b 66 170 71 254 66 212 b 373 -188 66 17 138 -188 b 592 -109 460 -188 531 -158 b 670 -13 632 -77 656 -43 b 680 62 676 9 680 35 b 673 134 680 84 677 108 b 464 439 656 245 568 439 b 330 266 401 439 330 370 b 401 117 330 207 355 145 b 529 83 445 91 488 83 b 617 94 555 83 585 87 z m 580 210 b 530 206 565 208 548 206 b 387 269 444 206 387 233 b 455 321 387 288 407 321 b 580 210 503 321 545 279 z "},"ک":{"ha":829,"x_min":0,"x_max":0,"o":"m 538 479 b 395 503 492 486 444 493 l 394 507 b 678 616 473 545 568 581 b 718 729 693 654 707 692 l 713 734 b 384 603 569 684 449 637 b 330 522 347 585 330 557 b 359 418 330 486 343 456 b 625 176 511 325 614 244 b 353 127 570 146 458 127 b 96 321 197 126 96 188 b 97 348 96 330 96 339 l 58 358 b 49 265 52 326 49 295 b 356 -9 49 122 108 -9 b 656 54 470 -9 594 18 b 692 176 684 96 692 140 b 690 211 692 189 692 201 b 524 427 677 288 639 339 z "},"ﮐ":{"ha":433,"x_min":0,"x_max":0,"o":"m 141 479 b -2 503 96 486 47 493 l -2 507 b 281 616 76 545 172 581 b 321 729 296 654 310 692 l 316 734 b -12 603 172 684 52 637 b -66 522 -50 585 -66 557 b -37 418 -66 486 -53 456 b 227 186 111 330 227 237 b 7 136 227 157 138 136 l -3 136 b -43 85 -35 136 -43 115 b 18 0 -43 58 -33 0 l 28 0 b 279 88 174 0 260 30 b 294 178 288 118 294 149 b 127 427 294 263 258 330 z "},"ﮑ":{"ha":522,"x_min":0,"x_max":0,"o":"m 138 455 b 5 496 87 469 42 483 l 5 499 b 319 620 81 539 190 581 b 359 729 332 651 345 686 l 353 734 b -12 593 206 687 73 642 b -47 564 -27 584 -39 574 b -62 505 -57 549 -62 529 b -38 410 -62 474 -52 433 b 191 172 97 301 176 221 b 7 136 176 140 96 136 l -3 136 b -43 85 -35 136 -43 115 b 18 0 -43 58 -33 0 l 28 0 b 218 45 127 0 190 15 b 259 165 243 75 259 113 l 259 172 l 261 172 b 531 0 383 48 401 0 l 541 0 l 519 136 l 509 136 b 118 401 390 136 321 264 z "},"ﮏ":{"ha":959,"x_min":0,"x_max":0,"o":"m 574 455 b 442 496 524 469 480 483 l 441 499 b 755 620 518 539 627 581 b 795 729 768 651 782 686 l 789 734 b 425 593 643 687 510 642 b 389 564 409 584 397 574 b 374 505 379 549 374 529 b 398 410 374 474 384 433 b 622 187 522 311 597 237 b 351 130 564 150 449 130 b 95 323 189 130 95 191 l 95 348 l 56 358 b 48 269 51 326 48 296 b 359 -9 48 81 162 -9 b 665 71 487 -9 618 26 b 692 176 682 103 691 138 l 696 176 b 968 0 806 61 838 0 l 977 0 l 956 136 l 946 136 b 555 401 827 136 758 264 z "},"ڪ":{"ha":1117,"x_min":0,"x_max":0,"o":"m 476 489 b 495 570 487 515 495 542 b 494 591 495 576 495 584 b 428 648 488 629 466 648 b 292 579 388 648 341 622 b 191 431 241 536 207 482 b 175 347 182 403 175 374 b 373 214 175 256 249 214 b 779 237 509 214 651 237 b 958 165 879 237 930 209 b 312 136 753 165 519 136 b 47 157 216 136 127 143 l 41 146 l 198 8 b 288 0 225 3 257 0 b 1028 41 546 0 791 41 b 1057 164 1050 111 1057 142 b 975 317 1057 229 1021 283 b 797 366 930 350 871 366 b 381 345 656 366 540 345 b 246 390 306 345 246 362 b 424 511 246 434 367 511 b 464 488 439 511 452 502 z "},"ګ":{"ha":829,"x_min":0,"x_max":0,"o":"m 538 479 b 395 503 492 486 444 493 l 394 507 b 550 572 440 529 492 551 b 547 551 548 566 547 558 b 629 470 547 507 584 470 b 710 551 673 470 710 507 b 676 616 710 576 697 603 l 678 616 b 718 729 693 654 707 692 l 713 734 b 384 603 569 684 449 637 b 330 522 347 585 330 557 b 359 418 330 486 343 456 b 625 176 511 325 614 244 b 353 127 570 146 458 127 b 96 321 197 126 96 188 b 97 348 96 330 96 339 l 58 358 b 49 265 52 326 49 295 b 356 -9 49 122 108 -9 b 656 54 470 -9 594 18 b 692 176 684 96 692 140 b 690 211 692 189 692 201 b 524 427 677 288 639 339 z m 585 551 b 629 595 585 576 604 595 b 673 551 653 595 673 576 b 629 507 673 527 653 507 b 585 551 604 507 585 527 z "},"ڬ":{"ha":704,"x_min":0,"x_max":0,"o":"m 359 827 b 469 751 399 801 437 776 b 517 835 492 774 507 802 b 408 914 484 863 448 890 z m 502 698 b 456 647 481 680 467 663 b 446 606 450 636 446 622 b 448 584 446 600 447 592 b 524 250 454 552 501 396 b 534 180 528 226 532 203 b 318 123 478 144 390 123 b 102 298 155 123 102 208 b 111 357 102 317 105 337 l 66 374 b 50 258 55 335 50 296 b 313 -14 50 97 135 -14 b 565 62 413 -14 508 16 b 598 211 587 104 598 155 b 591 293 598 237 596 264 b 560 465 583 351 572 408 l 614 511 b 511 692 552 593 517 648 z m 344 465 b 347 491 345 474 347 482 b 311 542 347 515 338 542 b 253 506 294 542 275 528 b 217 413 230 482 217 450 b 224 364 217 398 220 379 b 340 353 290 364 340 365 b 191 316 340 334 289 323 l 189 305 b 255 270 210 292 232 281 b 290 267 269 267 281 267 b 385 336 347 267 379 290 b 387 362 387 346 387 355 b 313 433 387 408 360 433 l 263 433 l 263 434 b 316 473 281 459 300 473 b 337 464 324 473 331 469 z "},"ݢ":{"ha":829,"x_min":0,"x_max":0,"o":"m 272 774 b 382 699 313 749 351 724 b 430 783 404 722 420 749 b 320 862 396 811 360 838 z m 538 479 b 395 503 492 486 444 493 l 394 507 b 678 616 473 545 568 581 b 718 729 693 654 707 692 l 713 734 b 384 603 569 684 449 637 b 330 522 347 585 330 557 b 359 418 330 486 343 456 b 625 176 511 325 614 244 b 353 127 570 146 458 127 b 96 321 197 126 96 188 b 97 348 96 330 96 339 l 58 358 b 49 265 52 326 49 295 b 356 -9 49 122 108 -9 b 656 54 470 -9 594 18 b 692 176 684 96 692 140 b 690 211 692 189 692 201 b 524 427 677 288 639 339 z "},"ڭ":{"ha":704,"x_min":0,"x_max":0,"o":"m 445 790 b 532 718 475 767 505 743 b 580 785 552 739 569 760 b 496 857 554 811 527 835 z m 311 781 b 398 709 342 758 371 734 b 446 776 418 730 435 751 b 362 848 420 802 393 826 z m 341 914 b 428 842 372 891 401 867 b 476 909 448 863 465 884 b 392 981 450 935 423 959 z m 502 698 b 456 647 481 680 467 663 b 446 606 450 636 446 622 b 448 584 446 600 447 592 b 524 250 454 552 501 396 b 534 180 528 226 532 203 b 318 123 478 144 390 123 b 102 298 155 123 102 208 b 111 357 102 317 105 337 l 66 374 b 50 258 55 335 50 296 b 313 -14 50 97 135 -14 b 565 62 413 -14 508 16 b 598 211 587 104 598 155 b 591 293 598 237 596 264 b 560 465 583 351 572 408 l 614 511 b 511 692 552 593 517 648 z m 344 465 b 347 491 345 474 347 482 b 311 542 347 515 338 542 b 253 506 294 542 275 528 b 217 413 230 482 217 450 b 224 364 217 398 220 379 b 340 353 290 364 340 365 b 191 316 340 334 289 323 l 189 305 b 255 270 210 292 232 281 b 290 267 269 267 281 267 b 385 336 347 267 379 290 b 387 362 387 346 387 355 b 313 433 387 408 360 433 l 263 433 l 263 434 b 316 473 281 459 300 473 b 337 464 324 473 331 469 z "},"ﯕ":{"ha":433,"x_min":0,"x_max":0,"o":"m 7 777 b 93 705 37 753 66 729 b 141 771 113 726 130 747 b 57 844 115 798 88 821 z m -127 768 b -40 696 -96 745 -67 720 b 8 762 -20 717 -3 738 b -75 835 -18 789 -45 812 z m -97 901 b -10 829 -66 878 -37 853 b 37 895 10 850 26 871 b -46 968 12 922 -15 945 z m 141 479 b -2 503 96 486 47 493 l -2 507 b 281 616 76 545 172 581 b 321 729 296 654 310 692 l 316 734 b -12 603 172 684 52 637 b -66 522 -50 585 -66 557 b -37 418 -66 486 -53 456 b 227 186 111 330 227 237 b 7 136 227 157 138 136 l -3 136 b -43 85 -35 136 -43 115 b 18 0 -43 58 -33 0 l 28 0 b 279 88 174 0 260 30 b 294 178 288 118 294 149 b 127 427 294 263 258 330 z "},"ﯖ":{"ha":522,"x_min":0,"x_max":0,"o":"m 138 455 b 5 496 87 469 42 483 l 5 499 b 319 620 81 539 190 581 b 359 729 332 651 345 686 l 353 734 b -12 593 206 687 73 642 b -47 564 -27 584 -39 574 b -62 505 -57 549 -62 529 b -38 410 -62 474 -52 433 b 191 172 97 301 176 221 b 7 136 176 140 96 136 l -3 136 b -43 85 -35 136 -43 115 b 18 0 -43 58 -33 0 l 28 0 b 218 45 127 0 190 15 b 259 165 243 75 259 113 l 259 172 l 261 172 b 531 0 383 48 401 0 l 541 0 l 519 136 l 509 136 b 118 401 390 136 321 264 z m -132 761 b -45 689 -102 738 -73 713 b 3 755 -25 710 -8 731 b -81 828 -23 782 -51 806 z m 1 770 b 87 698 31 747 60 722 b 136 764 108 719 125 740 b 52 837 110 791 82 814 z m -102 894 b -16 822 -72 871 -43 846 b 32 888 5 843 21 864 b -52 961 7 915 -21 939 z "},"ﯔ":{"ha":753,"x_min":0,"x_max":0,"o":"m 479 790 b 566 718 509 767 538 743 b 614 785 586 739 603 760 b 530 857 588 811 561 835 z m 345 781 b 432 709 376 758 405 734 b 480 776 452 730 469 751 b 396 848 454 802 427 826 z m 375 914 b 462 842 406 891 435 867 b 510 909 482 863 499 884 b 426 981 484 935 457 959 z m 530 705 b 464 626 505 680 485 654 b 549 226 499 485 529 351 b 299 137 492 173 392 137 b 100 342 186 137 100 209 b 102 382 100 356 101 369 l 60 395 b 45 286 50 357 45 321 b 313 0 45 123 146 0 b 488 42 372 0 430 14 b 585 117 532 64 566 90 l 587 117 b 762 0 617 39 674 0 l 772 0 l 750 136 l 741 136 b 620 264 678 136 635 170 l 604 364 b 538 699 588 465 568 586 z m 348 486 b 351 511 349 494 351 503 b 315 562 351 536 342 562 b 257 526 298 562 279 548 b 221 433 234 503 221 471 b 228 385 221 418 224 399 b 345 373 294 385 345 385 b 195 336 345 355 293 343 l 193 326 b 259 290 214 313 236 301 b 294 287 273 288 285 287 b 389 356 351 287 383 310 b 391 382 391 366 391 375 b 317 453 391 429 364 453 l 267 453 l 267 454 b 320 493 286 479 304 493 b 341 484 328 493 335 490 z "},"ݣ":{"ha":829,"x_min":0,"x_max":0,"o":"m 393 777 b 480 705 425 753 453 729 b 528 771 500 726 517 747 b 444 844 503 798 475 821 z m 260 768 b 347 696 291 745 319 720 b 395 762 367 717 384 738 b 311 835 369 789 342 812 z m 290 901 b 376 829 321 878 349 853 b 425 895 397 850 414 871 b 340 968 399 922 372 945 z m 538 479 b 395 503 492 486 444 493 l 394 507 b 678 616 473 545 568 581 b 718 729 693 654 707 692 l 713 734 b 384 603 569 684 449 637 b 330 522 347 585 330 557 b 359 418 330 486 343 456 b 625 176 511 325 614 244 b 353 127 570 146 458 127 b 96 321 197 126 96 188 b 97 348 96 330 96 339 l 58 358 b 49 265 52 326 49 295 b 356 -9 49 122 108 -9 b 656 54 470 -9 594 18 b 692 176 684 96 692 140 b 690 211 692 189 692 201 b 524 427 677 288 639 339 z "},"ݤ":{"ha":829,"x_min":0,"x_max":0,"o":"m 455 -279 b 550 -355 488 -304 519 -329 b 602 -283 572 -334 590 -310 b 507 -203 575 -256 544 -229 z m 307 -286 b 403 -362 340 -311 372 -336 b 454 -290 425 -340 442 -317 b 359 -210 428 -263 397 -236 z m 341 -137 b 437 -213 374 -162 406 -186 b 488 -140 458 -191 477 -168 b 394 -60 462 -114 431 -87 z m 538 479 b 395 503 492 486 444 493 l 394 507 b 678 616 473 545 568 581 b 718 729 693 654 707 692 l 713 734 b 384 603 569 684 449 637 b 330 522 347 585 330 557 b 359 418 330 486 343 456 b 625 176 511 325 614 244 b 353 127 570 146 458 127 b 96 321 197 126 96 188 b 97 348 96 330 96 339 l 58 358 b 49 265 52 326 49 295 b 356 -9 49 122 108 -9 b 656 54 470 -9 594 18 b 692 176 684 96 692 140 b 690 211 692 189 692 201 b 524 427 677 288 639 339 z "},"ڮ":{"ha":704,"x_min":0,"x_max":0,"o":"m 380 -143 b 473 -224 412 -170 442 -196 b 528 -155 496 -203 515 -180 b 437 -71 503 -127 473 -98 z m 238 -149 b 330 -230 270 -176 300 -202 b 386 -161 353 -210 372 -186 b 295 -77 361 -133 331 -104 z m 350 -292 b 442 -373 381 -319 412 -345 b 497 -304 465 -353 484 -330 b 407 -220 473 -276 442 -248 z m 502 698 b 456 647 481 680 467 663 b 446 606 450 636 446 622 b 448 584 446 600 447 592 b 524 250 454 552 501 396 b 534 180 528 226 532 203 b 318 123 478 144 390 123 b 102 298 155 123 102 208 b 111 357 102 317 105 337 l 66 374 b 50 258 55 335 50 296 b 313 -14 50 97 135 -14 b 565 62 413 -14 508 16 b 598 211 587 104 598 155 b 591 293 598 237 596 264 b 560 465 583 351 572 408 l 614 511 b 511 692 552 593 517 648 z m 344 465 b 347 491 345 474 347 482 b 311 542 347 515 338 542 b 253 506 294 542 275 528 b 217 413 230 482 217 450 b 224 364 217 398 220 379 b 340 353 290 364 340 365 b 191 316 340 334 289 323 l 189 305 b 255 270 210 292 232 281 b 290 267 269 267 281 267 b 385 336 347 267 379 290 b 387 362 387 346 387 355 b 313 433 387 408 360 433 l 263 433 l 263 434 b 316 473 281 459 300 473 b 337 464 324 473 331 469 z "},"گ":{"ha":835,"x_min":0,"x_max":0,"o":"m 626 176 b 353 127 570 146 458 127 b 96 321 197 126 96 188 b 97 348 96 330 96 339 l 58 358 b 49 265 52 326 49 295 b 356 -9 49 122 108 -9 b 656 54 470 -9 594 18 b 692 178 684 96 692 141 b 690 212 692 190 691 201 b 532 399 679 279 623 342 l 547 449 b 404 466 498 453 449 458 l 403 468 b 686 574 504 513 598 549 b 730 690 703 612 718 650 l 727 693 b 412 576 610 656 505 616 b 338 481 359 553 338 522 b 368 376 338 446 350 422 b 626 176 503 314 619 219 z m 691 782 l 689 784 b 357 655 582 751 471 712 b 343 597 351 637 345 617 l 347 594 b 673 728 431 640 543 685 z "},"ﮔ":{"ha":439,"x_min":0,"x_max":0,"o":"m 332 693 b 17 576 215 656 110 616 b -57 481 -35 553 -57 522 b -26 376 -57 446 -45 422 b 229 182 105 316 224 217 b 19 136 233 158 152 136 l -3 136 b -43 85 -35 136 -43 115 b 18 0 -43 58 -33 0 l 30 0 b 269 62 156 0 236 20 b 298 168 287 91 298 125 b 294 212 298 182 297 196 b 136 399 283 279 227 342 l 152 449 b 9 466 103 453 54 458 l 8 468 b 290 574 109 513 203 549 b 334 690 307 612 322 650 z m 296 782 l 294 784 b -37 655 186 751 76 712 b -52 597 -44 637 -50 617 l -47 594 b 277 728 36 640 148 685 z "},"ﮕ":{"ha":522,"x_min":0,"x_max":0,"o":"m 519 136 l 509 136 b 384 185 456 136 423 153 b 132 374 298 256 216 320 l 149 427 b 13 458 96 437 51 448 l 13 461 b 328 581 112 509 218 548 b 367 690 342 616 355 652 l 362 694 b -34 531 189 640 44 585 b -56 473 -47 518 -56 498 b -32 372 -56 437 -40 396 b 190 174 104 287 190 201 b 7 136 190 152 115 136 l -3 136 b -43 85 -35 136 -43 115 b 18 0 -43 58 -33 0 l 28 0 b 258 170 172 0 251 20 l 261 170 b 531 0 367 71 390 0 l 541 0 z m 318 778 l 314 782 b -35 647 184 742 66 698 b -44 593 -39 628 -43 610 l -40 589 b 294 724 57 640 169 683 z "},"ﮓ":{"ha":958,"x_min":0,"x_max":0,"o":"m 351 130 b 95 322 186 130 95 191 l 95 348 l 56 358 b 48 269 51 326 48 296 b 359 -9 48 81 162 -9 b 665 71 487 -9 618 26 b 692 170 682 101 690 134 l 696 170 b 967 0 802 71 826 0 l 977 0 l 955 136 l 945 136 b 820 185 892 136 859 153 b 568 374 734 256 652 320 l 585 427 b 448 458 532 437 487 448 l 448 461 b 764 581 548 509 654 548 b 803 690 779 616 791 652 l 798 694 b 401 531 625 640 480 585 b 380 473 388 518 380 498 b 404 372 380 437 395 396 b 622 187 525 296 602 224 b 351 130 564 150 449 130 z m 754 778 l 750 782 b 401 647 621 742 502 698 b 391 593 396 628 393 610 l 395 589 b 730 724 493 640 605 683 z "},"ڰ":{"ha":835,"x_min":0,"x_max":0,"o":"m 730 690 l 727 693 b 412 576 610 656 505 616 b 338 481 359 553 338 522 b 368 376 338 446 350 422 b 626 176 503 314 619 219 b 353 127 570 146 458 127 b 96 321 197 126 96 188 b 97 348 96 330 96 339 l 58 358 b 49 265 52 326 49 295 b 356 -9 49 122 108 -9 b 656 54 470 -9 594 18 b 692 178 684 96 692 141 b 690 212 692 190 691 201 b 524 404 679 279 621 343 l 538 450 b 404 466 488 454 443 459 l 403 468 b 554 531 455 491 506 513 b 553 514 553 525 553 519 b 634 433 553 469 589 433 b 715 514 679 433 715 469 b 686 574 715 537 703 564 b 730 690 703 612 718 650 z m 691 782 l 689 784 b 357 655 582 751 471 712 b 343 597 351 637 345 617 l 347 594 b 673 728 431 640 543 685 z m 590 514 b 634 558 590 538 610 558 b 678 514 659 558 678 538 b 634 470 678 490 659 470 b 590 514 610 470 590 490 z "},"ڱ":{"ha":835,"x_min":0,"x_max":0,"o":"m 691 782 l 689 784 b 357 655 582 751 471 712 b 343 597 351 637 345 617 l 347 594 b 673 728 431 640 543 685 z m 363 821 b 450 749 394 798 423 773 b 498 815 471 770 488 791 b 414 888 473 842 445 865 z m 230 812 b 317 740 260 789 290 764 b 365 806 337 761 354 782 b 281 879 339 833 311 857 z m 626 176 b 353 127 570 146 458 127 b 96 321 197 126 96 188 b 97 348 96 330 96 339 l 58 358 b 49 265 52 326 49 295 b 356 -9 49 122 108 -9 b 656 54 470 -9 594 18 b 692 178 684 96 692 141 b 690 212 692 190 691 201 b 532 399 679 279 623 342 l 547 449 b 404 466 498 453 449 458 l 403 468 b 686 574 504 513 598 549 b 730 690 703 612 718 650 l 727 693 b 412 576 610 656 505 616 b 338 481 359 553 338 522 b 368 376 338 446 350 422 b 626 176 503 314 619 219 z "},"ﮜ":{"ha":439,"x_min":0,"x_max":0,"o":"m 296 782 l 294 784 b -37 655 186 751 76 712 b -52 597 -44 637 -50 617 l -47 594 b 277 728 36 640 148 685 z m -9 821 b 77 749 21 798 50 773 b 125 815 98 770 115 791 b 41 888 100 842 72 865 z m -142 812 b -56 740 -112 789 -83 764 b -7 806 -35 761 -18 782 b -92 879 -33 833 -61 857 z m 332 693 b 17 576 215 656 110 616 b -57 481 -35 553 -57 522 b -26 376 -57 446 -45 422 b 229 182 105 316 224 217 b 19 136 233 158 152 136 l -3 136 b -43 85 -35 136 -43 115 b 18 0 -43 58 -33 0 l 30 0 b 269 62 156 0 236 20 b 298 168 287 91 298 125 b 294 212 298 182 297 196 b 136 399 283 279 227 342 l 152 449 b 9 466 103 453 54 458 l 8 468 b 290 574 109 513 203 549 b 334 690 307 612 322 650 z "},"ﮝ":{"ha":522,"x_min":0,"x_max":0,"o":"m 318 778 l 314 782 b -35 647 184 742 66 698 b -44 593 -39 628 -43 610 l -40 589 b 294 724 57 640 169 683 z m -9 821 b 77 749 21 798 50 773 b 125 815 98 770 115 791 b 41 888 100 842 72 865 z m -142 812 b -56 740 -112 789 -83 764 b -7 806 -35 761 -18 782 b -92 879 -33 833 -61 857 z m 519 136 l 509 136 b 384 185 456 136 423 153 b 132 374 298 256 216 320 l 149 427 b 13 458 96 437 51 448 l 13 461 b 328 581 112 509 218 548 b 367 690 342 616 355 652 l 362 694 b -34 531 189 640 44 585 b -56 473 -47 518 -56 498 b -32 372 -56 437 -40 396 b 190 174 104 287 190 201 b 7 136 190 152 115 136 l -3 136 b -43 85 -35 136 -43 115 b 18 0 -43 58 -33 0 l 28 0 b 258 170 172 0 251 20 l 261 170 b 531 0 367 71 390 0 l 541 0 z "},"ﮛ":{"ha":958,"x_min":0,"x_max":0,"o":"m 351 130 b 95 322 186 130 95 191 l 95 348 l 56 358 b 48 269 51 326 48 296 b 359 -9 48 81 162 -9 b 665 71 487 -9 618 26 b 692 170 682 101 690 134 l 696 170 b 967 0 802 71 826 0 l 977 0 l 955 136 l 945 136 b 820 185 892 136 859 153 b 568 374 734 256 652 320 l 585 427 b 448 458 532 437 487 448 l 448 461 b 764 581 548 509 654 548 b 803 690 779 616 791 652 l 798 694 b 401 531 625 640 480 585 b 380 473 388 518 380 498 b 404 372 380 437 395 396 b 622 187 525 296 602 224 b 351 130 564 150 449 130 z m 754 778 l 750 782 b 401 647 621 742 502 698 b 391 593 396 628 393 610 l 395 589 b 730 724 493 640 605 683 z m 284 812 b 371 740 315 789 344 764 b 419 806 391 761 408 782 b 335 879 393 833 366 857 z m 418 821 b 505 749 448 798 477 773 b 553 815 525 770 542 791 b 469 888 527 842 499 865 z "},"ڲ":{"ha":835,"x_min":0,"x_max":0,"o":"m 691 782 l 689 784 b 357 655 582 751 471 712 b 343 597 351 637 345 617 l 347 594 b 673 728 431 640 543 685 z m 259 -205 b 372 -293 296 -232 334 -261 b 425 -208 391 -265 410 -237 b 316 -121 391 -178 354 -149 z m 422 -197 b 534 -284 459 -223 496 -252 b 588 -199 554 -256 572 -229 b 479 -112 553 -170 517 -140 z m 626 176 b 353 127 570 146 458 127 b 96 321 197 126 96 188 b 97 348 96 330 96 339 l 58 358 b 49 265 52 326 49 295 b 356 -9 49 122 108 -9 b 656 54 470 -9 594 18 b 692 178 684 96 692 141 b 690 212 692 190 691 201 b 532 399 679 279 623 342 l 547 449 b 404 466 498 453 449 458 l 403 468 b 686 574 504 513 598 549 b 730 690 703 612 718 650 l 727 693 b 412 576 610 656 505 616 b 338 481 359 553 338 522 b 368 376 338 446 350 422 b 626 176 503 314 619 219 z "},"ڳ":{"ha":835,"x_min":0,"x_max":0,"o":"m 691 782 l 689 784 b 357 655 582 751 471 712 b 343 597 351 637 345 617 l 347 594 b 673 728 431 640 543 685 z m 385 -309 b 495 -384 425 -334 463 -359 b 543 -300 517 -361 533 -333 b 433 -220 510 -272 473 -245 z m 336 -141 b 448 -216 377 -166 415 -192 b 496 -133 470 -195 485 -165 b 385 -54 462 -105 426 -77 z m 626 176 b 353 127 570 146 458 127 b 96 321 197 126 96 188 b 97 348 96 330 96 339 l 58 358 b 49 265 52 326 49 295 b 356 -9 49 122 108 -9 b 656 54 470 -9 594 18 b 692 178 684 96 692 141 b 690 212 692 190 691 201 b 532 399 679 279 623 342 l 547 449 b 404 466 498 453 449 458 l 403 468 b 686 574 504 513 598 549 b 730 690 703 612 718 650 l 727 693 b 412 576 610 656 505 616 b 338 481 359 553 338 522 b 368 376 338 446 350 422 b 626 176 503 314 619 219 z "},"ﮘ":{"ha":439,"x_min":0,"x_max":0,"o":"m 296 782 l 294 784 b -37 655 186 751 76 712 b -52 597 -44 637 -50 617 l -47 594 b 277 728 36 640 148 685 z m 152 -303 b 257 -374 191 -327 227 -351 b 302 -295 278 -353 293 -326 b 198 -220 271 -269 236 -243 z m 107 -147 b 212 -218 145 -171 182 -195 b 257 -139 233 -197 248 -170 b 153 -64 226 -113 191 -87 z m 332 693 b 17 576 215 656 110 616 b -57 481 -35 553 -57 522 b -26 376 -57 446 -45 422 b 229 182 105 316 224 217 b 19 136 233 158 152 136 l -3 136 b -43 85 -35 136 -43 115 b 18 0 -43 58 -33 0 l 30 0 b 269 62 156 0 236 20 b 298 168 287 91 298 125 b 294 212 298 182 297 196 b 136 399 283 279 227 342 l 152 449 b 9 466 103 453 54 458 l 8 468 b 290 574 109 513 203 549 b 334 690 307 612 322 650 z "},"ﮙ":{"ha":522,"x_min":0,"x_max":0,"o":"m 318 778 l 314 782 b -35 647 184 742 66 698 b -44 593 -39 628 -43 610 l -40 589 b 294 724 57 640 169 683 z m 254 -303 b 359 -374 292 -327 329 -351 b 404 -295 380 -353 395 -326 b 300 -220 372 -269 338 -243 z m 209 -147 b 313 -218 247 -171 283 -195 b 359 -139 335 -197 349 -170 b 254 -64 328 -113 293 -87 z m 519 136 l 509 136 b 384 185 456 136 423 153 b 132 374 298 256 216 320 l 149 427 b 13 458 96 437 51 448 l 13 461 b 328 581 112 509 218 548 b 367 690 342 616 355 652 l 362 694 b -34 531 189 640 44 585 b -56 473 -47 518 -56 498 b -32 372 -56 437 -40 396 b 190 174 104 287 190 201 b 7 136 190 152 115 136 l -3 136 b -43 85 -35 136 -43 115 b 18 0 -43 58 -33 0 l 28 0 b 258 170 172 0 251 20 l 261 170 b 531 0 367 71 390 0 l 541 0 z "},"ﮗ":{"ha":958,"x_min":0,"x_max":0,"o":"m 351 130 b 95 322 186 130 95 191 l 95 348 l 56 358 b 48 269 51 326 48 296 b 359 -9 48 81 162 -9 b 665 71 487 -9 618 26 b 692 170 682 101 690 134 l 696 170 b 967 0 802 71 826 0 l 977 0 l 955 136 l 945 136 b 820 185 892 136 859 153 b 568 374 734 256 652 320 l 585 427 b 448 458 532 437 487 448 l 448 461 b 764 581 548 509 654 548 b 803 690 779 616 791 652 l 798 694 b 401 531 625 640 480 585 b 380 473 388 518 380 498 b 404 372 380 437 395 396 b 622 187 525 296 602 224 b 351 130 564 150 449 130 z m 754 778 l 750 782 b 401 647 621 742 502 698 b 391 593 396 628 393 610 l 395 589 b 730 724 493 640 605 683 z m 336 -141 b 448 -216 377 -166 415 -192 b 496 -133 470 -195 485 -165 b 385 -54 462 -105 426 -77 z m 385 -309 b 495 -384 425 -334 463 -359 b 543 -300 517 -361 533 -333 b 433 -220 510 -272 473 -245 z "},"ڴ":{"ha":835,"x_min":0,"x_max":0,"o":"m 691 782 l 689 784 b 357 655 582 751 471 712 b 343 597 351 637 345 617 l 347 594 b 673 728 431 640 543 685 z m 363 821 b 450 749 394 798 423 773 b 498 815 471 770 488 791 b 414 888 473 842 445 865 z m 230 812 b 317 740 260 789 290 764 b 365 806 337 761 354 782 b 281 879 339 833 311 857 z m 260 945 b 347 873 290 922 319 897 b 395 939 367 894 384 915 b 311 1012 369 966 341 989 z m 626 176 b 353 127 570 146 458 127 b 96 321 197 126 96 188 b 97 348 96 330 96 339 l 58 358 b 49 265 52 326 49 295 b 356 -9 49 122 108 -9 b 656 54 470 -9 594 18 b 692 178 684 96 692 141 b 690 212 692 190 691 201 b 532 399 679 279 623 342 l 547 449 b 404 466 498 453 449 458 l 403 468 b 686 574 504 513 598 549 b 730 690 703 612 718 650 l 727 693 b 412 576 610 656 505 616 b 338 481 359 553 338 522 b 368 376 338 446 350 422 b 626 176 503 314 619 219 z "},"ڵ":{"ha":604,"x_min":0,"x_max":0,"o":"m 420 942 b 353 824 374 887 355 849 l 351 824 b 237 939 340 841 304 880 l 227 939 l 214 871 b 352 735 282 818 336 766 l 370 743 b 450 885 377 774 400 825 b 424 942 442 907 434 923 z m 402 698 b 357 647 381 680 368 663 b 347 606 350 636 347 622 b 371 498 347 569 361 541 b 441 173 398 387 431 243 b 451 106 446 145 450 123 b 385 50 441 87 420 68 b 283 22 353 32 317 22 b 116 190 178 22 116 99 b 127 273 116 216 120 243 l 89 291 b 64 152 73 247 64 201 b 290 -123 64 7 148 -123 b 505 8 372 -123 469 -79 b 513 102 511 38 513 69 b 501 237 513 142 509 186 b 460 465 489 317 475 393 l 514 511 b 411 692 452 593 418 648 z "},"ڶ":{"ha":604,"x_min":0,"x_max":0,"o":"m 252 820 b 363 745 293 794 331 769 b 410 828 385 767 401 795 b 301 907 376 857 340 883 z m 402 698 b 357 647 381 680 368 663 b 347 606 350 636 347 622 b 371 498 347 569 361 541 b 441 173 398 387 431 243 b 451 106 446 145 450 123 b 385 50 441 87 420 68 b 283 22 353 32 317 22 b 116 190 178 22 116 99 b 127 273 116 216 120 243 l 89 291 b 64 152 73 247 64 201 b 290 -123 64 7 148 -123 b 505 8 372 -123 469 -79 b 513 102 511 38 513 69 b 501 237 513 142 509 186 b 460 465 489 317 475 393 l 514 511 b 411 692 452 593 418 648 z "},"ڷ":{"ha":604,"x_min":0,"x_max":0,"o":"m 347 793 b 434 722 378 770 407 746 b 482 788 454 743 471 764 b 399 861 456 814 429 838 z m 214 785 b 300 713 245 762 273 737 b 349 779 321 734 338 755 b 265 852 323 806 296 829 z m 243 918 b 330 846 275 895 303 870 b 378 912 351 867 368 888 b 295 985 353 939 326 962 z m 402 698 b 357 647 381 680 368 663 b 347 606 350 636 347 622 b 371 498 347 569 361 541 b 441 173 398 387 431 243 b 451 106 446 145 450 123 b 385 50 441 87 420 68 b 283 22 353 32 317 22 b 116 190 178 22 116 99 b 127 273 116 216 120 243 l 89 291 b 64 152 73 247 64 201 b 290 -123 64 7 148 -123 b 505 8 372 -123 469 -79 b 513 102 511 38 513 69 b 501 237 513 142 509 186 b 460 465 489 317 475 393 l 514 511 b 411 692 452 593 418 648 z "},"ڸ":{"ha":604,"x_min":0,"x_max":0,"o":"m 338 -241 b 430 -321 369 -267 399 -294 b 485 -252 453 -301 471 -278 b 395 -168 460 -224 430 -196 z m 195 -247 b 288 -328 227 -273 258 -300 b 343 -258 311 -307 330 -284 b 252 -174 318 -231 288 -202 z m 307 -390 b 399 -471 338 -416 369 -443 b 454 -401 422 -450 441 -427 b 364 -317 430 -374 399 -345 z m 402 698 b 357 647 381 680 368 663 b 347 606 350 636 347 622 b 371 498 347 569 361 541 b 441 173 398 387 431 243 b 451 106 446 145 450 123 b 385 50 441 87 420 68 b 283 22 353 32 317 22 b 116 190 178 22 116 99 b 127 273 116 216 120 243 l 89 291 b 64 152 73 247 64 201 b 290 -123 64 7 148 -123 b 505 8 372 -123 469 -79 b 513 102 511 38 513 69 b 501 237 513 142 509 186 b 460 465 489 317 475 393 l 514 511 b 411 692 452 593 418 648 z "},"ݪ":{"ha":635,"x_min":0,"x_max":0,"o":"m 402 698 b 357 647 381 680 368 663 b 349 612 351 637 349 625 b 372 498 349 583 361 542 b 387 435 376 479 382 454 l 303 425 l 292 370 l 296 364 l 399 378 b 441 173 417 298 434 219 b 451 106 446 145 450 123 b 385 50 441 87 420 68 b 283 22 353 32 317 22 b 116 190 178 22 116 99 b 127 273 116 216 120 243 l 89 291 b 64 152 73 247 64 201 b 290 -123 64 7 148 -123 b 505 8 372 -123 469 -79 b 513 102 511 38 513 69 b 501 237 513 142 509 186 b 475 386 493 288 484 338 l 534 393 l 560 446 l 557 452 l 465 441 b 456 487 462 457 459 473 l 511 528 b 411 692 467 581 418 648 z "},"ݥ":{"ha":508,"x_min":0,"x_max":0,"o":"m 90 562 b 200 487 130 536 168 511 b 248 570 222 509 238 537 b 138 650 214 599 178 625 z m 115 169 b 79 82 95 138 84 109 b 74 24 76 60 74 41 b 77 -7 74 13 75 3 b 267 -454 94 -113 224 -315 l 283 -455 b 288 -374 286 -423 288 -397 b 285 -328 288 -356 287 -341 b 139 42 277 -275 168 -73 b 221 69 153 60 184 69 b 421 53 275 69 331 64 b 447 151 437 90 447 124 b 382 293 447 194 417 243 b 208 407 327 365 269 407 b 90 258 136 407 106 348 z m 158 199 l 165 226 b 160 282 165 249 163 265 b 194 288 169 286 180 288 b 343 200 242 288 292 256 l 342 195 b 224 208 298 203 256 208 b 161 197 200 208 179 204 z "},"ݦ":{"ha":508,"x_min":0,"x_max":0,"o":"m 319 -157 b 429 -232 359 -182 397 -208 b 477 -149 451 -210 467 -182 b 368 -69 444 -120 407 -94 z m 115 169 b 79 82 95 138 84 109 b 74 24 76 60 74 41 b 77 -7 74 13 75 3 b 267 -454 94 -113 224 -315 l 283 -455 b 288 -374 286 -423 288 -397 b 285 -328 288 -356 287 -341 b 139 42 277 -275 168 -73 b 221 69 153 60 184 69 b 421 53 275 69 331 64 b 447 151 437 90 447 124 b 382 293 447 194 417 243 b 208 407 327 365 269 407 b 90 258 136 407 106 348 z m 158 199 l 165 226 b 160 282 165 249 163 265 b 194 288 169 286 180 288 b 343 200 242 288 292 256 l 342 195 b 224 208 298 203 256 208 b 161 197 200 208 179 204 z "},"ڹ":{"ha":618,"x_min":0,"x_max":0,"o":"m 151 524 b 275 438 193 498 235 469 b 328 534 298 469 315 502 b 203 622 292 566 251 595 z m 307 -378 b 431 -464 349 -404 391 -433 b 484 -368 455 -433 472 -400 b 360 -280 448 -336 407 -307 z m 434 408 b 380 292 413 367 395 330 b 495 60 456 184 495 92 b 486 34 495 50 492 41 b 311 -41 454 -6 379 -41 b 122 141 265 -41 122 -9 b 140 238 122 168 128 202 l 99 257 b 67 97 78 201 67 148 b 322 -185 67 -58 168 -185 b 546 -60 408 -185 504 -138 b 564 62 557 -20 564 23 b 443 406 564 158 513 298 z "},"ں":{"ha":618,"x_min":0,"x_max":0,"o":"m 434 408 b 380 292 413 367 395 330 b 495 60 456 184 495 92 b 486 34 495 50 492 41 b 311 -41 454 -6 379 -41 b 122 141 265 -41 122 -9 b 140 238 122 168 128 202 l 99 257 b 67 97 78 201 67 148 b 322 -185 67 -58 168 -185 b 546 -60 408 -185 504 -138 b 564 62 557 -20 564 23 b 443 406 564 158 513 298 z "},"ﮟ":{"ha":654,"x_min":0,"x_max":0,"o":"m 436 326 b 388 226 417 292 401 259 b 505 18 454 137 493 67 b 314 -92 498 -26 408 -92 b 126 93 210 -92 126 -26 b 142 178 126 119 131 147 l 102 197 b 75 53 84 149 75 100 b 322 -228 75 -119 185 -228 b 541 -121 418 -228 490 -191 b 562 -1 554 -85 562 -45 b 561 24 562 7 562 16 l 563 24 b 663 0 589 8 622 0 l 673 0 l 651 136 l 642 136 b 542 172 611 136 560 148 b 445 326 511 214 484 269 z "},"ڻ":{"ha":618,"x_min":0,"x_max":0,"o":"m 174 451 l 212 451 b 367 562 317 451 367 481 b 286 659 367 609 333 659 b 195 591 248 659 218 634 l 193 593 b 194 605 194 596 194 600 b 189 663 194 617 193 637 l 214 691 b 169 768 192 720 174 748 l 164 770 b 127 715 139 751 127 733 b 127 709 127 713 127 711 b 141 661 130 694 136 679 b 158 578 149 633 154 606 b 161 546 160 566 161 555 b 159 526 161 538 161 532 b 90 529 133 526 111 527 l 85 515 z m 194 524 b 275 589 216 562 241 589 b 331 555 301 589 319 577 b 194 524 304 534 258 526 z m 434 408 b 380 292 413 367 395 330 b 495 60 456 184 495 92 b 486 34 495 50 492 41 b 311 -41 454 -6 379 -41 b 122 141 265 -41 122 -9 b 140 238 122 168 128 202 l 99 257 b 67 97 78 201 67 148 b 322 -185 67 -58 168 -185 b 546 -60 408 -185 504 -138 b 564 62 557 -20 564 23 b 443 406 564 158 513 298 z "},"ﮢ":{"ha":295,"x_min":0,"x_max":0,"o":"m -2 451 l 37 451 b 191 562 141 451 191 481 b 111 659 191 609 157 659 b 19 591 73 659 43 634 l 18 593 b 18 605 18 596 18 600 b 13 663 18 617 17 637 l 38 691 b -7 768 16 720 -2 748 l -12 770 b -49 715 -37 751 -49 733 b -48 709 -49 713 -49 711 b -35 661 -46 694 -39 679 b -18 578 -26 633 -22 606 b -14 546 -16 566 -14 555 b -16 526 -14 538 -15 532 b -85 529 -43 526 -64 527 l -90 515 z m 18 524 b 99 589 40 562 65 589 b 155 555 125 589 143 577 b 18 524 129 534 82 526 z m 119 406 b 66 300 101 376 83 340 b 155 161 106 247 155 176 b 12 136 155 151 90 136 l -3 136 b -43 85 -35 136 -43 115 b 18 0 -43 58 -33 0 l 28 0 b 161 23 90 0 132 9 b 216 92 182 33 201 53 b 228 170 224 119 228 144 b 126 405 228 254 200 293 z "},"ﮣ":{"ha":317,"x_min":0,"x_max":0,"o":"m 33 356 l 71 356 b 226 467 176 356 226 387 b 145 564 226 514 192 564 b 54 496 107 564 77 539 l 52 498 b 53 510 53 501 53 505 b 47 568 53 522 52 542 l 73 596 b 28 673 51 625 33 653 l 23 675 b -14 621 -2 656 -14 638 b -14 614 -14 618 -14 616 b 0 566 -12 599 -5 584 b 17 484 8 538 13 511 b 20 451 19 471 20 460 b 18 431 20 444 20 437 b -51 434 -8 431 -30 432 l -56 420 z m 53 429 b 134 494 75 467 100 494 b 190 460 160 494 178 482 b 53 429 163 439 117 431 z m 314 136 l 306 136 b 230 155 277 136 252 142 b 185 240 197 174 185 203 b 189 288 185 252 186 268 l 183 292 b 135 256 164 279 149 267 b 94 159 125 225 128 182 b 7 136 75 145 52 136 l -3 136 b -43 85 -35 136 -43 115 b 18 0 -43 58 -33 0 l 28 0 b 157 74 87 0 128 26 l 159 74 b 327 0 205 12 265 0 l 336 0 z "},"ﮡ":{"ha":654,"x_min":0,"x_max":0,"o":"m 189 356 l 227 356 b 382 467 332 356 382 387 b 301 564 382 514 348 564 b 210 496 263 564 233 539 l 208 498 b 209 510 209 501 209 505 b 203 568 209 522 208 542 l 229 596 b 184 673 207 625 189 653 l 179 675 b 142 621 154 656 142 638 b 142 614 142 618 142 616 b 156 566 144 599 151 584 b 173 484 164 538 169 511 b 176 451 175 471 176 460 b 174 431 176 444 176 437 b 105 434 148 431 126 432 l 100 420 z m 209 429 b 290 494 231 467 256 494 b 346 460 316 494 334 482 b 209 429 319 439 273 431 z m 436 326 b 388 226 417 292 401 259 b 505 18 454 137 493 67 b 314 -92 498 -26 408 -92 b 126 93 210 -92 126 -26 b 142 178 126 119 131 147 l 102 197 b 75 53 84 149 75 100 b 322 -228 75 -119 185 -228 b 541 -121 418 -228 490 -191 b 562 -1 554 -85 562 -45 b 561 24 562 7 562 16 l 563 24 b 663 0 589 8 622 0 l 673 0 l 651 136 l 642 136 b 542 172 611 136 560 148 b 445 326 511 214 484 269 z "},"ڼ":{"ha":618,"x_min":0,"x_max":0,"o":"m 434 408 b 380 292 413 367 395 330 b 495 60 456 184 495 92 b 486 34 495 50 492 41 b 311 -41 454 -6 379 -41 b 122 141 265 -41 122 -9 b 140 238 122 168 128 202 l 99 257 b 67 97 78 201 67 148 b 322 -185 67 -58 168 -185 b 332 -184 326 -185 329 -184 b 326 -222 328 -196 326 -209 b 427 -323 326 -278 371 -323 b 529 -222 484 -323 529 -278 b 479 -134 529 -188 511 -153 b 546 -60 507 -115 530 -89 b 564 62 557 -20 564 23 b 443 406 564 158 513 298 z m 151 524 b 275 438 193 498 235 469 b 328 534 298 469 315 502 b 203 622 292 566 251 595 z m 373 -222 b 427 -168 373 -192 397 -168 b 481 -222 457 -168 481 -192 b 427 -276 481 -252 457 -276 b 373 -222 397 -276 373 -252 z "},"ڽ":{"ha":618,"x_min":0,"x_max":0,"o":"m 239 532 b 332 452 271 506 302 479 b 387 521 355 472 374 495 b 296 605 362 549 332 577 z m 98 526 b 189 446 129 500 159 473 b 245 515 213 466 231 489 b 155 599 220 543 190 571 z m 131 673 b 223 592 163 646 193 620 b 279 661 246 612 265 635 b 188 745 254 689 224 718 z m 434 408 b 380 292 413 367 395 330 b 495 60 456 184 495 92 b 486 34 495 50 492 41 b 311 -41 454 -6 379 -41 b 122 141 265 -41 122 -9 b 140 238 122 168 128 202 l 99 257 b 67 97 78 201 67 148 b 322 -185 67 -58 168 -185 b 546 -60 408 -185 504 -138 b 564 62 557 -20 564 23 b 443 406 564 158 513 298 z "},"ݧ":{"ha":618,"x_min":0,"x_max":0,"o":"m 151 524 b 275 438 193 498 235 469 b 328 534 298 469 315 502 b 203 622 292 566 251 595 z m 214 -351 b 323 -434 251 -376 287 -404 b 375 -352 341 -412 359 -385 b 268 -267 340 -320 305 -292 z m 373 -340 b 481 -423 410 -365 445 -393 b 533 -341 499 -401 517 -374 b 426 -256 499 -309 463 -281 z m 434 408 b 380 292 413 367 395 330 b 495 60 456 184 495 92 b 486 34 495 50 492 41 b 311 -41 454 -6 379 -41 b 122 141 265 -41 122 -9 b 140 238 122 168 128 202 l 99 257 b 67 97 78 201 67 148 b 322 -185 67 -58 168 -185 b 546 -60 408 -185 504 -138 b 564 62 557 -20 564 23 b 443 406 564 158 513 298 z "},"ݨ":{"ha":618,"x_min":0,"x_max":0,"o":"m 161 497 b 286 411 204 471 245 442 b 339 507 309 442 327 475 b 215 595 303 538 262 568 z m 123 641 l 162 641 b 317 752 267 641 317 671 b 236 849 317 799 283 849 b 144 781 198 849 168 824 l 143 783 b 144 795 144 786 144 790 b 138 852 144 807 142 827 l 163 881 b 119 958 142 910 123 938 l 114 960 b 77 905 89 941 77 923 b 77 899 77 903 77 901 b 91 850 79 884 86 869 b 108 768 99 823 104 795 b 111 736 110 755 111 745 b 109 715 111 728 111 722 b 40 719 83 715 61 717 l 35 705 z m 144 714 b 224 779 165 752 191 779 b 281 745 251 779 269 767 b 144 714 254 724 208 715 z m 434 408 b 380 292 413 367 395 330 b 495 60 456 184 495 92 b 486 34 495 50 492 41 b 311 -41 454 -6 379 -41 b 122 141 265 -41 122 -9 b 140 238 122 168 128 202 l 99 257 b 67 97 78 201 67 148 b 322 -185 67 -58 168 -185 b 546 -60 408 -185 504 -138 b 564 62 557 -20 564 23 b 443 406 564 158 513 298 z "},"ݩ":{"ha":618,"x_min":0,"x_max":0,"o":"m 151 521 b 275 435 193 494 235 466 b 328 531 299 466 316 498 b 204 618 292 562 251 591 z m 257 878 b 190 760 211 823 193 785 l 188 760 b 74 874 178 777 141 816 l 64 874 l 52 806 b 189 671 120 753 173 702 l 207 678 b 288 821 214 709 237 761 b 261 878 279 842 271 859 z m 434 408 b 380 292 413 367 395 330 b 495 60 456 184 495 92 b 486 34 495 50 492 41 b 311 -41 454 -6 379 -41 b 122 141 265 -41 122 -9 b 140 238 122 168 128 202 l 99 257 b 67 97 78 201 67 148 b 322 -185 67 -58 168 -185 b 546 -60 408 -185 504 -138 b 564 62 557 -20 564 23 b 443 406 564 158 513 298 z "},"ھ":{"ha":736,"x_min":0,"x_max":0,"o":"m 572 0 b 670 73 621 0 652 22 b 680 130 676 91 680 111 b 677 163 680 142 678 153 b 469 379 661 264 576 313 b 296 499 405 418 347 458 l 285 499 b 275 424 280 475 276 450 b 196 258 227 385 196 330 b 239 102 196 204 216 142 b 43 20 177 71 112 43 l 48 -2 b 204 -16 112 -11 163 -16 b 369 36 248 -16 300 -2 b 572 0 443 17 518 0 z m 357 159 b 245 248 294 181 245 216 b 328 328 245 277 287 328 b 419 227 379 328 419 256 b 357 159 419 203 398 177 z m 452 136 b 470 240 463 170 470 203 l 470 245 b 612 130 553 201 612 156 b 573 116 612 120 599 116 b 452 136 541 116 498 123 z "},"ﮬ":{"ha":622,"x_min":0,"x_max":0,"o":"m 219 43 b 458 0 313 17 395 0 b 556 73 507 0 538 22 b 566 130 562 91 566 111 b 563 163 566 142 564 153 b 355 379 547 264 463 313 b 182 499 291 418 233 458 l 171 499 b 161 424 166 475 162 450 b 83 259 113 385 83 330 b 102 146 83 221 92 183 b 7 136 55 139 25 136 l -3 136 b -43 85 -35 136 -43 115 b 18 0 -43 58 -33 0 l 28 0 b 219 43 81 0 144 12 z m 234 163 b 133 249 184 178 133 216 b 214 326 133 281 173 326 b 306 220 263 326 306 257 b 234 163 306 199 281 174 z m 339 136 b 356 239 350 169 356 203 l 356 245 b 498 130 445 199 498 153 b 459 116 498 120 485 116 b 339 136 427 116 385 123 z "},"ﮭ":{"ha":429,"x_min":0,"x_max":0,"o":"m 301 136 b 305 174 303 149 305 161 b 302 202 305 183 304 193 b 199 393 293 262 250 327 l 148 460 l 137 460 b 73 136 99 380 78 271 l -3 136 b -43 85 -35 136 -43 115 b 18 0 -43 58 -33 0 b 73 2 29 0 45 0 b 293 -224 96 -145 209 -224 b 413 -86 377 -224 413 -146 b 390 3 413 -54 404 -26 b 437 0 413 1 429 0 l 447 0 l 425 136 z m 121 136 b 146 306 127 186 135 242 l 149 306 b 241 160 200 241 241 185 b 121 136 241 140 196 136 z m 138 3 b 208 9 163 7 186 9 b 301 -31 247 9 277 -5 b 336 -98 321 -52 336 -82 b 305 -115 336 -109 324 -115 b 138 3 241 -115 161 -54 z "},"ﮫ":{"ha":567,"x_min":0,"x_max":0,"o":"m 439 136 b 444 174 441 149 444 161 b 441 202 444 183 442 193 b 338 393 431 262 389 327 l 286 460 l 275 460 b 210 120 237 380 216 271 b 109 72 166 112 132 98 b 61 -63 83 40 72 -11 l 79 -77 b 213 -12 94 -45 141 -24 b 431 -224 241 -150 350 -224 b 551 -86 515 -224 551 -146 b 528 3 551 -60 543 -26 b 576 0 551 1 567 0 l 585 0 l 564 136 z m 259 126 b 285 306 266 186 273 242 l 288 306 b 379 161 340 241 379 182 b 259 126 379 142 334 133 z m 277 1 b 346 9 302 5 324 9 b 439 -31 385 9 414 -4 b 474 -98 458 -52 474 -81 b 444 -115 474 -109 463 -115 b 277 1 380 -115 300 -55 z "}}}
